{
.appVersion = "3133";
.formatVersion = 3;
DisplayStrings = (
B,
"ǄǅKMNŊØǾRẞVWYZǆĸøǿsz0247⁄½¼¾¹²³⁴⟨⟩#///backslash ()«»‹›&§®№₡₲₺₦₹₩¥⁒∕%‰"
);
axes = (
{
name = Weight;
tag = wght;
}
);
classes = (
{
automatic = 1;

glyphs = (
{
glyphname = A;
kernLeft = A;
kernRight = A;
lastChange = "2022-08-22 22:11:46 +0000";
layers = (
{
anchors = (
{
name = bottom;
pos = (135,0);
},
{
name = top;
pos = (138,700);
}
);
attr = {
color = "1";
};
layerId = "33AE93C6-B8B3-427A-A53B-F24970E840CE";
shapes = (
{
attr = {
gradient = {
colors = (
(
(64,255),
0
),
(
(191,255),
1
)
);
end = (0.5074,0.9658);
start = (0.6091,0.0797);
};
};
closed = 1;
nodes = (
(77,0,l),
(77,700,l),
(76,700,l),
(53,677,l),
(53,0,l)
);
},
{
attr = {
gradient = {
colors = (
(
(64,255),
0
),
(
(191,255),
1
)
);
end = (0.08,0.5878);
start = (0.8784,0.5375);
};
};
closed = 1;
nodes = (
(196,353,l),
(196,377,l),
(77,377,l),
(77,353,l)
);
},
{
attr = {
gradient = {
colors = (
(
(64,255),
0
),
(
(191,255),
1
)
);
end = (0.4707,0.0242);
start = (0.5491,0.9419);
};
};
closed = 1;
nodes = (
(220,0,l),
(220,676,l),
(196,676,l),
(196,0,l)
);
},
{
attr = {
gradient = {
colors = (
(
(64,255),
0
),
(
(191,255),
1
)
);
end = (0.8878,0.5878);
start = (0.0693,0.513);
};
};
closed = 1;
nodes = (
(220,676,l),
(220,677,l),
(197,700,l),
(77,700,l),
(77,676,l)
);
}
);
width = 273;
},
{
anchors = (
{
name = bottom;
pos = (462,0);
},
{
name = top;
pos = (486,730);
}
);
attr = {
color = "1";
};
layerId = m003;
shapes = (
{
attr = {
gradient = {
colors = (
(
(64,255),
0
),
(
(191,255),
1
)
);
end = (0.79,0.8959);
start = (0.4055,0.0144);
};
};
closed = 1;
nodes = (
(289,0,l),
(289,730,l),
(288,730,l),
(35,523,l),
(35,0,l)
);
},
{
attr = {
gradient = {
colors = (
(
(64,255),
0
),
(
(191,255),
1
)
);
end = (0.0383,0.0895);
start = (0.8943,0.4519);
};
};
closed = 1;
nodes = (
(638,173,l),
(638,417,l),
(289,417,l),
(289,173,l)
);
},
{
attr = {
gradient = {
colors = (
(
(64,255),
0
),
(
(191,255),
1
)
);
end = (0.4489,0.0368);
start = (0.4192,0.8964);
};
};
closed = 1;
nodes = (
(892,0,l),
(892,486,l),
(638,486,l),
(638,0,l)
);
},
{
attr = {
gradient = {
colors = (
(
(64,255),
0
),
(
(191,255),
1
)
);
end = (0.8814,0.226);
start = (0.0812,0.4764);
};
};
closed = 1;
nodes = (
(892,486,l),
(892,487,l),
(690,730,l),
(289,730,l),
(289,486,l)
);
}
);
width = 927;
}
);
unicode = 65;
},
{
glyphname = Aacute;
kernLeft = A;
kernRight = A;
lastChange = "2022-08-22 22:11:46 +0000";
layers = (
{
anchors = (
{
name = bottom;
pos = (135,0);
},
{
name = top;
pos = (138,700);
}
);
attr = {
color = "1";
};
layerId = "33AE93C6-B8B3-427A-A53B-F24970E840CE";
shapes = (
{
attr = {
gradient = {
colors = (
(
(64,255),
0
),
(
(191,255),
1
)
);
end = (0.5074,0.9658);
start = (0.6091,0.0797);
};
identifier = ID0x7f9cef9afbe0;
};
closed = 1;
nodes = (
(77,0,l),
(77,700,l),
(76,700,l),
(53,677,l),
(53,0,l)
);
},
{
attr = {
gradient = {
colors = (
(
(64,255),
0
),
(
(191,255),
1
)
);
end = (0.08,0.5878);
start = (0.8784,0.5375);
};
identifier = ID0x7f9cef9afbe0;
};
closed = 1;
nodes = (
(196,353,l),
(196,377,l),
(77,377,l),
(77,353,l)
);
},
{
attr = {
gradient = {
colors = (
(
(64,255),
0
),
(
(191,255),
1
)
);
end = (0.4707,0.0242);
start = (0.5491,0.9419);
};
identifier = ID0x7f9cef9afbe0;
};
closed = 1;
nodes = (
(220,0,l),
(220,676,l),
(196,676,l),
(196,0,l)
);
},
{
attr = {
gradient = {
colors = (
(
(64,255),
0
),
(
(191,255),
1
)
);
end = (0.8878,0.5878);
start = (0.0693,0.513);
};
identifier = ID0x7f9cef9afbe0;
};
closed = 1;
nodes = (
(220,676,l),
(220,677,l),
(197,700,l),
(77,700,l),
(77,676,l)
);
},
{
attr = {
gradient = {
colors = (
(
(191,255),
0
),
(
(64,255),
1
)
);
end = (0.8295,0.9141);
start = (0.1608,0.0873);
};
identifier = ID0x7f9cef9b5990;
};
closed = 1;
nodes = (
(144,735,l),
(171,854,l),
(171,855,l),
(140,855,l),
(120,735,l)
);
}
);
width = 273;
},
{
anchors = (
{
name = bottom;
pos = (462,0);
},
{
name = top;
pos = (486,730);
}
);
attr = {
color = "1";
};
layerId = m003;
shapes = (
{
attr = {
gradient = {
colors = (
(
(64,255),
0
),
(
(191,255),
1
)
);
end = (0.79,0.8959);
start = (0.4055,0.0144);
};
identifier = ID0x7f9d0d9bd1f0;
};
closed = 1;
nodes = (
(289,0,l),
(289,730,l),
(288,730,l),
(35,523,l),
(35,0,l)
);
},
{
attr = {
gradient = {
colors = (
(
(64,255),
0
),
(
(191,255),
1
)
);
end = (0.0383,0.0895);
start = (0.8943,0.4519);
};
identifier = ID0x7f9d0d9bd1f0;
};
closed = 1;
nodes = (
(638,173,l),
(638,417,l),
(289,417,l),
(289,173,l)
);
},
{
attr = {
gradient = {
colors = (
(
(64,255),
0
),
(
(191,255),
1
)
);
end = (0.4489,0.0368);
start = (0.4192,0.8964);
};
identifier = ID0x7f9d0d9bd1f0;
};
closed = 1;
nodes = (
(892,0,l),
(892,486,l),
(638,486,l),
(638,0,l)
);
},
{
attr = {
gradient = {
colors = (
(
(64,255),
0
),
(
(191,255),
1
)
);
end = (0.8814,0.226);
start = (0.0812,0.4764);
};
identifier = ID0x7f9d0d9bd1f0;
};
closed = 1;
nodes = (
(892,486,l),
(892,487,l),
(690,730,l),
(289,730,l),
(289,486,l)
);
},
{
attr = {
gradient = {
colors = (
(
(191,255),
0
),
(
(64,255),
1
)
);
end = (0.8428,0.923);
start = (0.0434,0.0801);
};
identifier = ID0x7f9d0d928c20;
};
closed = 1;
nodes = (
(548,760,l),
(663,899,l),
(663,900,l),
(417,900,l),
(382,760,l)
);
}
);
width = 927;
}
);
unicode = 193;
},
{
glyphname = Abreve;
kernLeft = A;
kernRight = A;
lastChange = "2022-08-22 22:11:46 +0000";
layers = (
{
anchors = (
{
name = bottom;
pos = (135,0);
},
{
name = top;
pos = (138,700);
}
);
attr = {
color = "1";
};
layerId = "33AE93C6-B8B3-427A-A53B-F24970E840CE";
shapes = (
{
attr = {
gradient = {
colors = (
(
(64,255),
0
),
(
(191,255),
1
)
);
end = (0.5074,0.9658);
start = (0.6091,0.0797);
};
identifier = ID0x7f9d6e4b5e00;
};
closed = 1;
nodes = (
(77,0,l),
(77,700,l),
(76,700,l),
(53,677,l),
(53,0,l)
);
},
{
attr = {
gradient = {
colors = (
(
(64,255),
0
),
(
(191,255),
1
)
);
end = (0.08,0.5878);
start = (0.8784,0.5375);
};
identifier = ID0x7f9d6e4b5e00;
};
closed = 1;
nodes = (
(196,353,l),
(196,377,l),
(77,377,l),
(77,353,l)
);
},
{
attr = {
gradient = {
colors = (
(
(64,255),
0
),
(
(191,255),
1
)
);
end = (0.4707,0.0242);
start = (0.5491,0.9419);
};
identifier = ID0x7f9d6e4b5e00;
};
closed = 1;
nodes = (
(220,0,l),
(220,676,l),
(196,676,l),
(196,0,l)
);
},
{
attr = {
gradient = {
colors = (
(
(64,255),
0
),
(
(191,255),
1
)
);
end = (0.8878,0.5878);
start = (0.0693,0.513);
};
identifier = ID0x7f9d6e4b5e00;
};
closed = 1;
nodes = (
(220,676,l),
(220,677,l),
(197,700,l),
(77,700,l),
(77,676,l)
);
},
{
attr = {
gradient = {
colors = (
(
(191,255),
0
),
(
(64,255),
1
)
);
end = (0.7632,0.1468);
start = (0.4204,0.8452);
};
identifier = ID0x7f9cef9a5a70;
};
closed = 1;
nodes = (
(166,781,l),
(185,803,l),
(91,803,l),
(110,781,l)
);
},
{
attr = {
gradient = {
colors = (
(
(191,255),
0
),
(
(64,255),
1
)
);
end = (0.8353,0.121);
start = (0.1796,0.882);
};
identifier = ID0x7f9cef9a5a70;
};
closed = 1;
nodes = (
(123,803,l),
(92,840,l),
(60,840,l),
(60,839,l),
(91,803,l)
);
},
{
attr = {
gradient = {
colors = (
(
(191,255),
0
),
(
(64,255),
1
)
);
end = (0.1664,0.1286);
start = (0.5937,0.8477);
};
identifier = ID0x7f9cef9a5a70;
};
closed = 1;
nodes = (
(185,803,l),
(216,839,l),
(216,840,l),
(184,840,l),
(153,803,l)
);
}
);
width = 273;
},
{
anchors = (
{
name = bottom;
pos = (462,0);
},
{
name = top;
pos = (486,730);
}
);
attr = {
color = "1";
};
layerId = m003;
shapes = (
{
attr = {
gradient = {
colors = (
(
(64,255),
0
),
(
(191,255),
1
)
);
end = (0.79,0.8959);
start = (0.4055,0.0144);
};
identifier = ID0x7f9cef9b1d30;
};
closed = 1;
nodes = (
(289,0,l),
(289,730,l),
(288,730,l),
(35,523,l),
(35,0,l)
);
},
{
attr = {
gradient = {
colors = (
(
(64,255),
0
),
(
(191,255),
1
)
);
end = (0.0383,0.0895);
start = (0.8943,0.4519);
};
identifier = ID0x7f9cef9b1d30;
};
closed = 1;
nodes = (
(638,173,l),
(638,417,l),
(289,417,l),
(289,173,l)
);
},
{
attr = {
gradient = {
colors = (
(
(64,255),
0
),
(
(191,255),
1
)
);
end = (0.4489,0.0368);
start = (0.4192,0.8964);
};
identifier = ID0x7f9cef9b1d30;
};
closed = 1;
nodes = (
(892,0,l),
(892,486,l),
(638,486,l),
(638,0,l)
);
},
{
attr = {
gradient = {
colors = (
(
(64,255),
0
),
(
(191,255),
1
)
);
end = (0.8814,0.226);
start = (0.0812,0.4764);
};
identifier = ID0x7f9cef9b1d30;
};
closed = 1;
nodes = (
(892,486,l),
(892,487,l),
(690,730,l),
(289,730,l),
(289,486,l)
);
},
{
attr = {
gradient = {
colors = (
(
(191,255),
0
),
(
(64,255),
1
)
);
end = (0.9143,0.8534);
start = (0.2813,0.7774);
};
identifier = ID0x7f9cef99a4e0;
};
closed = 1;
nodes = (
(599,760,l),
(693,860,l),
(260,860,l),
(354,760,l)
);
},
{
attr = {
gradient = {
colors = (
(
(191,255),
0
),
(
(64,255),
1
)
);
end = (0.8902,0.1828);
start = (0.1269,0.8041);
};
identifier = ID0x7f9cef99a4e0;
};
closed = 1;
nodes = (
(439,860,l),
(402,900,l),
(226,900,l),
(226,898,l),
(260,860,l)
);
},
{
attr = {
gradient = {
colors = (
(
(191,255),
0
),
(
(64,255),
1
)
);
end = (0.0848,0.1896);
start = (0.9215,0.8746);
};
identifier = ID0x7f9cef99a4e0;
};
closed = 1;
nodes = (
(693,860,l),
(727,899,l),
(727,900,l),
(551,900,l),
(514,860,l)
);
}
);
width = 927;
}
);
unicode = 258;
},
{
glyphname = Abreveacute;
kernLeft = A;
kernRight = A;
lastChange = "2022-08-22 22:11:46 +0000";
layers = (
{
anchors = (
{
name = bottom;
pos = (135,0);
},
{
name = top;
pos = (138,700);
}
);
attr = {
color = "1";
};
layerId = "33AE93C6-B8B3-427A-A53B-F24970E840CE";
shapes = (
{
attr = {
gradient = {
colors = (
(
(64,255),
0
),
(
(191,255),
1
)
);
end = (0.5074,0.9658);
start = (0.6091,0.0797);
};
identifier = ID0x7f9cef982690;
};
closed = 1;
nodes = (
(77,0,l),
(77,700,l),
(76,700,l),
(53,677,l),
(53,0,l)
);
},
{
attr = {
gradient = {
colors = (
(
(64,255),
0
),
(
(191,255),
1
)
);
end = (0.08,0.5878);
start = (0.8784,0.5375);
};
identifier = ID0x7f9cef982690;
};
closed = 1;
nodes = (
(196,353,l),
(196,377,l),
(77,377,l),
(77,353,l)
);
},
{
attr = {
gradient = {
colors = (
(
(64,255),
0
),
(
(191,255),
1
)
);
end = (0.4707,0.0242);
start = (0.5491,0.9419);
};
identifier = ID0x7f9cef982690;
};
closed = 1;
nodes = (
(220,0,l),
(220,676,l),
(196,676,l),
(196,0,l)
);
},
{
attr = {
gradient = {
colors = (
(
(64,255),
0
),
(
(191,255),
1
)
);
end = (0.8878,0.5878);
start = (0.0693,0.513);
};
identifier = ID0x7f9cef982690;
};
closed = 1;
nodes = (
(220,676,l),
(220,677,l),
(197,700,l),
(77,700,l),
(77,676,l)
);
},
{
attr = {
gradient = {
colors = (
(
(64,255),
0
),
(
(191,255),
1
)
);
end = (0.5952,0.8567);
start = (0.7441,0.1172);
};
identifier = ID0x7f9cecf70c20;
};
closed = 1;
nodes = (
(166,761,l),
(185,783,l),
(91,783,l),
(110,761,l)
);
},
{
attr = {
gradient = {
colors = (
(
(191,255),
0
),
(
(64,255),
1
)
);
end = (0.8337,0.1553);
start = (0.1213,0.9446);
};
identifier = ID0x7f9cecf70c20;
};
closed = 1;
nodes = (
(123,783,l),
(92,820,l),
(60,820,l),
(60,819,l),
(91,783,l)
);
},
{
attr = {
gradient = {
colors = (
(
(191,255),
0
),
(
(64,255),
1
)
);
end = (0.3248,0.0794);
start = (0.5318,0.9002);
};
identifier = ID0x7f9cecf70c20;
};
closed = 1;
nodes = (
(145,815,l),
(180,899,l),
(180,900,l),
(147,900,l),
(122,815,l)
);
},
{
attr = {
gradient = {
colors = (
(
(191,255),
0
),
(
(64,255),
1
)
);
end = (0.1323,0.1086);
start = (0.5888,0.9521);
};
identifier = ID0x7f9cecf70c20;
};
closed = 1;
nodes = (
(185,783,l),
(216,819,l),
(216,820,l),
(184,820,l),
(153,783,l)
);
}
);
width = 273;
},
{
anchors = (
{
name = bottom;
pos = (462,0);
},
{
name = top;
pos = (486,730);
}
);
attr = {
color = "1";
};
layerId = m003;
shapes = (
{
attr = {
gradient = {
colors = (
(
(64,255),
0
),
(
(191,255),
1
)
);
end = (0.79,0.8959);
start = (0.4055,0.0144);
};
identifier = ID0x7f9cef9b0820;
};
closed = 1;
nodes = (
(289,0,l),
(289,730,l),
(288,730,l),
(35,523,l),
(35,0,l)
);
},
{
attr = {
gradient = {
colors = (
(
(64,255),
0
),
(
(191,255),
1
)
);
end = (0.0383,0.0895);
start = (0.8943,0.4519);
};
identifier = ID0x7f9cef9b0820;
};
closed = 1;
nodes = (
(638,173,l),
(638,417,l),
(289,417,l),
(289,173,l)
);
},
{
attr = {
gradient = {
colors = (
(
(64,255),
0
),
(
(191,255),
1
)
);
end = (0.4489,0.0368);
start = (0.4192,0.8964);
};
identifier = ID0x7f9cef9b0820;
};
closed = 1;
nodes = (
(892,0,l),
(892,486,l),
(638,486,l),
(638,0,l)
);
},
{
attr = {
gradient = {
colors = (
(
(64,255),
0
),
(
(191,255),
1
)
);
end = (0.8814,0.226);
start = (0.0812,0.4764);
};
identifier = ID0x7f9cef9b0820;
};
closed = 1;
nodes = (
(892,486,l),
(892,487,l),
(690,730,l),
(289,730,l),
(289,486,l)
);
},
{
attr = {
gradient = {
colors = (
(
(64,255),
0
),
(
(191,255),
1
)
);
end = (0.5532,0.8627);
start = (0.6529,0.0859);
};
identifier = ID0x7f9cef987fa0;
};
closed = 1;
nodes = (
(609,760,l),
(700,852,l),
(273,852,l),
(364,760,l)
);
},
{
attr = {
gradient = {
colors = (
(
(191,255),
0
),
(
(64,255),
1
)
);
end = (0.8794,0.1099);
start = (0.0918,0.8925);
};
identifier = ID0x7f9cef987fa0;
};
closed = 1;
nodes = (
(419,852,l),
(372,892,l),
(236,892,l),
(236,890,l),
(273,852,l)
);
},
{
attr = {
gradient = {
colors = (
(
(191,255),
0
),
(
(64,255),
1
)
);
end = (0.4683,0.075);
start = (0.1998,0.9422);
};
identifier = ID0x7f9cef987fa0;
};
closed = 1;
nodes = (
(518,870,l),
(621,979,l),
(621,980,l),
(455,980,l),
(422,870,l)
);
},
{
attr = {
gradient = {
colors = (
(
(191,255),
0
),
(
(64,255),
1
)
);
end = (0.0826,0.1154);
start = (0.8056,0.8328);
};
identifier = ID0x7f9cef987fa0;
};
closed = 1;
nodes = (
(700,852,l),
(737,891,l),
(737,892,l),
(601,892,l),
(554,852,l)
);
}
);
width = 927;
}
);
unicode = 7854;
},
{
glyphname = Abrevedotbelow;
kernLeft = A;
kernRight = A;
lastChange = "2022-08-22 22:11:46 +0000";
layers = (
{
anchors = (
{
name = bottom;
pos = (135,0);
},
{
name = top;
pos = (138,700);
}
);
attr = {
color = "1";
};
layerId = "33AE93C6-B8B3-427A-A53B-F24970E840CE";
shapes = (
{
attr = {
gradient = {
colors = (
(
(64,255),
0
),
(
(191,255),
1
)
);
end = (0.5074,0.9658);
start = (0.6091,0.0797);
};
identifier = ID0x7f9cef9b9380;
};
closed = 1;
nodes = (
(77,0,l),
(77,700,l),
(76,700,l),
(53,677,l),
(53,0,l)
);
},
{
attr = {
gradient = {
colors = (
(
(64,255),
0
),
(
(191,255),
1
)
);
end = (0.08,0.5878);
start = (0.8784,0.5375);
};
identifier = ID0x7f9cef9b9380;
};
closed = 1;
nodes = (
(196,353,l),
(196,377,l),
(77,377,l),
(77,353,l)
);
},
{
attr = {
gradient = {
colors = (
(
(64,255),
0
),
(
(191,255),
1
)
);
end = (0.4707,0.0242);
start = (0.5491,0.9419);
};
identifier = ID0x7f9cef9b9380;
};
closed = 1;
nodes = (
(220,0,l),
(220,676,l),
(196,676,l),
(196,0,l)
);
},
{
attr = {
gradient = {
colors = (
(
(64,255),
0
),
(
(191,255),
1
)
);
end = (0.8878,0.5878);
start = (0.0693,0.513);
};
identifier = ID0x7f9cef9b9380;
};
closed = 1;
nodes = (
(220,676,l),
(220,677,l),
(197,700,l),
(77,700,l),
(77,676,l)
);
},
{
attr = {
gradient = {
colors = (
(
(191,255),
0
),
(
(64,255),
1
)
);
end = (0.9081,0.083);
start = (0.0737,0.9244);
};
identifier = ID0x7f9cef9aa890;
};
closed = 1;
nodes = (
(151,-119,l),
(151,-85,l),
(121,-85,l),
(121,-119,l)
);
},
{
attr = {
gradient = {
colors = (
(
(191,255),
0
),
(
(64,255),
1
)
);
end = (0.7632,0.1468);
start = (0.4204,0.8452);
};
identifier = ID0x7f9cef9ecac0;
};
closed = 1;
nodes = (
(166,781,l),
(185,803,l),
(91,803,l),
(110,781,l)
);
},
{
attr = {
gradient = {
colors = (
(
(191,255),
0
),
(
(64,255),
1
)
);
end = (0.8353,0.121);
start = (0.1796,0.882);
};
identifier = ID0x7f9cef9ecac0;
};
closed = 1;
nodes = (
(123,803,l),
(92,840,l),
(60,840,l),
(60,839,l),
(91,803,l)
);
},
{
attr = {
gradient = {
colors = (
(
(191,255),
0
),
(
(64,255),
1
)
);
end = (0.1664,0.1286);
start = (0.5937,0.8477);
};
identifier = ID0x7f9cef9ecac0;
};
closed = 1;
nodes = (
(185,803,l),
(216,839,l),
(216,840,l),
(184,840,l),
(153,803,l)
);
}
);
width = 273;
},
{
anchors = (
{
name = bottom;
pos = (462,0);
},
{
name = top;
pos = (486,730);
}
);
attr = {
color = "1";
};
layerId = m003;
shapes = (
{
attr = {
gradient = {
colors = (
(
(64,255),
0
),
(
(191,255),
1
)
);
end = (0.79,0.8959);
start = (0.4055,0.0144);
};
identifier = ID0x7f9cef998e00;
};
closed = 1;
nodes = (
(289,0,l),
(289,730,l),
(288,730,l),
(35,523,l),
(35,0,l)
);
},
{
attr = {
gradient = {
colors = (
(
(64,255),
0
),
(
(191,255),
1
)
);
end = (0.0383,0.0895);
start = (0.8943,0.4519);
};
identifier = ID0x7f9cef998e00;
};
closed = 1;
nodes = (
(638,173,l),
(638,417,l),
(289,417,l),
(289,173,l)
);
},
{
attr = {
gradient = {
colors = (
(
(64,255),
0
),
(
(191,255),
1
)
);
end = (0.4489,0.0368);
start = (0.4192,0.8964);
};
identifier = ID0x7f9cef998e00;
};
closed = 1;
nodes = (
(892,0,l),
(892,486,l),
(638,486,l),
(638,0,l)
);
},
{
attr = {
gradient = {
colors = (
(
(64,255),
0
),
(
(191,255),
1
)
);
end = (0.8814,0.226);
start = (0.0812,0.4764);
};
identifier = ID0x7f9cef998e00;
};
closed = 1;
nodes = (
(892,486,l),
(892,487,l),
(690,730,l),
(289,730,l),
(289,486,l)
);
},
{
attr = {
gradient = {
colors = (
(
(191,255),
0
),
(
(64,255),
1
)
);
end = (0.8925,0.136);
start = (0.1278,0.8543);
};
identifier = ID0x7f9d0f1a41f0;
};
closed = 1;
nodes = (
(567,-200,l),
(567,-38,l),
(363,-38,l),
(363,-200,l)
);
},
{
attr = {
gradient = {
colors = (
(
(191,255),
0
),
(
(64,255),
1
)
);
end = (0.9143,0.8534);
start = (0.2813,0.7774);
};
identifier = ID0x7f9cef9bcc10;
};
closed = 1;
nodes = (
(599,760,l),
(693,860,l),
(260,860,l),
(354,760,l)
);
},
{
attr = {
gradient = {
colors = (
(
(191,255),
0
),
(
(64,255),
1
)
);
end = (0.8902,0.1828);
start = (0.1269,0.8041);
};
identifier = ID0x7f9cef9bcc10;
};
closed = 1;
nodes = (
(439,860,l),
(402,900,l),
(226,900,l),
(226,898,l),
(260,860,l)
);
},
{
attr = {
gradient = {
colors = (
(
(191,255),
0
),
(
(64,255),
1
)
);
end = (0.0848,0.1896);
start = (0.9215,0.8746);
};
identifier = ID0x7f9cef9bcc10;
};
closed = 1;
nodes = (
(693,860,l),
(727,899,l),
(727,900,l),
(551,900,l),
(514,860,l)
);
}
);
width = 927;
}
);
unicode = 7862;
},
{
glyphname = Abrevegrave;
kernLeft = A;
kernRight = A;
lastChange = "2022-08-22 22:11:46 +0000";
layers = (
{
anchors = (
{
name = bottom;
pos = (135,0);
},
{
name = top;
pos = (138,700);
}
);
attr = {
color = "1";
};
layerId = "33AE93C6-B8B3-427A-A53B-F24970E840CE";
shapes = (
{
attr = {
gradient = {
colors = (
(
(64,255),
0
),
(
(191,255),
1
)
);
end = (0.5074,0.9658);
start = (0.6091,0.0797);
};
identifier = ID0x7f9cef9ae060;
};
closed = 1;
nodes = (
(77,0,l),
(77,700,l),
(76,700,l),
(53,677,l),
(53,0,l)
);
},
{
attr = {
gradient = {
colors = (
(
(64,255),
0
),
(
(191,255),
1
)
);
end = (0.08,0.5878);
start = (0.8784,0.5375);
};
identifier = ID0x7f9cef9ae060;
};
closed = 1;
nodes = (
(196,353,l),
(196,377,l),
(77,377,l),
(77,353,l)
);
},
{
attr = {
gradient = {
colors = (
(
(64,255),
0
),
(
(191,255),
1
)
);
end = (0.4707,0.0242);
start = (0.5491,0.9419);
};
identifier = ID0x7f9cef9ae060;
};
closed = 1;
nodes = (
(220,0,l),
(220,676,l),
(196,676,l),
(196,0,l)
);
},
{
attr = {
gradient = {
colors = (
(
(64,255),
0
),
(
(191,255),
1
)
);
end = (0.8878,0.5878);
start = (0.0693,0.513);
};
identifier = ID0x7f9cef9ae060;
};
closed = 1;
nodes = (
(220,676,l),
(220,677,l),
(197,700,l),
(77,700,l),
(77,676,l)
);
},
{
attr = {
gradient = {
colors = (
(
(64,255),
0
),
(
(191,255),
1
)
);
end = (0.691,0.9072);
start = (0.7625,0.1536);
};
identifier = ID0x7f9cef9ae170;
};
closed = 1;
nodes = (
(165,741,l),
(184,763,l),
(90,763,l),
(109,741,l)
);
},
{
attr = {
gradient = {
colors = (
(
(191,255),
0
),
(
(64,255),
1
)
);
end = (0.8706,0.1081);
start = (0.2317,0.9103);
};
identifier = ID0x7f9cef9ae170;
};
closed = 1;
nodes = (
(122,763,l),
(91,800,l),
(59,800,l),
(59,799,l),
(90,763,l)
);
},
{
attr = {
gradient = {
colors = (
(
(191,255),
0
),
(
(64,255),
1
)
);
end = (0.7988,0.084);
start = (0.2248,0.867);
};
identifier = ID0x7f9cef9ae170;
};
closed = 1;
nodes = (
(152,815,l),
(127,900,l),
(94,900,l),
(94,899,l),
(129,815,l)
);
},
{
attr = {
gradient = {
colors = (
(
(191,255),
0
),
(
(64,255),
1
)
);
end = (0.1279,0.12);
start = (0.815,0.8968);
};
identifier = ID0x7f9cef9ae170;
};
closed = 1;
nodes = (
(184,763,l),
(215,799,l),
(215,800,l),
(183,800,l),
(152,763,l)
);
}
);
width = 273;
},
{
anchors = (
{
name = bottom;
pos = (462,0);
},
{
name = top;
pos = (486,730);
}
);
attr = {
color = "1";
};
layerId = m003;
shapes = (
{
attr = {
gradient = {
colors = (
(
(64,255),
0
),
(
(191,255),
1
)
);
end = (0.79,0.8959);
start = (0.4055,0.0144);
};
identifier = ID0x7f9cef9aeef0;
};
closed = 1;
nodes = (
(289,0,l),
(289,730,l),
(288,730,l),
(35,523,l),
(35,0,l)
);
},
{
attr = {
gradient = {
colors = (
(
(64,255),
0
),
(
(191,255),
1
)
);
end = (0.0383,0.0895);
start = (0.8943,0.4519);
};
identifier = ID0x7f9cef9aeef0;
};
closed = 1;
nodes = (
(638,173,l),
(638,417,l),
(289,417,l),
(289,173,l)
);
},
{
attr = {
gradient = {
colors = (
(
(64,255),
0
),
(
(191,255),
1
)
);
end = (0.4489,0.0368);
start = (0.4192,0.8964);
};
identifier = ID0x7f9cef9aeef0;
};
closed = 1;
nodes = (
(892,0,l),
(892,486,l),
(638,486,l),
(638,0,l)
);
},
{
attr = {
gradient = {
colors = (
(
(64,255),
0
),
(
(191,255),
1
)
);
end = (0.8814,0.226);
start = (0.0812,0.4764);
};
identifier = ID0x7f9cef9aeef0;
};
closed = 1;
nodes = (
(892,486,l),
(892,487,l),
(690,730,l),
(289,730,l),
(289,486,l)
);
},
{
attr = {
gradient = {
colors = (
(
(64,255),
0
),
(
(191,255),
1
)
);
end = (0.5037,0.9389);
start = (0.5651,0.0603);
};
identifier = ID0x7f9cef9af000;
};
closed = 1;
nodes = (
(609,760,l),
(700,852,l),
(273,852,l),
(364,760,l)
);
},
{
attr = {
gradient = {
colors = (
(
(191,255),
0
),
(
(64,255),
1
)
);
end = (0.8794,0.1099);
start = (0.0918,0.8925);
};
identifier = ID0x7f9cef9af000;
};
closed = 1;
nodes = (
(419,852,l),
(372,892,l),
(236,892,l),
(236,890,l),
(273,852,l)
);
},
{
attr = {
gradient = {
colors = (
(
(191,255),
0
),
(
(64,255),
1
)
);
end = (0.9356,0.1167);
start = (0.1313,0.8899);
};
identifier = ID0x7f9cef9af000;
};
closed = 1;
nodes = (
(545,870,l),
(512,980,l),
(346,980,l),
(346,979,l),
(449,870,l)
);
},
{
attr = {
gradient = {
colors = (
(
(191,255),
0
),
(
(64,255),
1
)
);
end = (0.0826,0.1154);
start = (0.8056,0.8328);
};
identifier = ID0x7f9cef9af000;
};
closed = 1;
nodes = (
(700,852,l),
(737,891,l),
(737,892,l),
(601,892,l),
(554,852,l)
);
}
);
width = 927;
}
);
unicode = 7856;
},
{
glyphname = Abrevehookabove;
kernLeft = A;
kernRight = A;
lastChange = "2022-08-22 22:11:46 +0000";
layers = (
{
anchors = (
{
name = bottom;
pos = (135,0);
},
{
name = top;
pos = (138,700);
}
);
attr = {
color = "1";
};
layerId = "33AE93C6-B8B3-427A-A53B-F24970E840CE";
shapes = (
{
attr = {
gradient = {
colors = (
(
(64,255),
0
),
(
(191,255),
1
)
);
end = (0.5074,0.9658);
start = (0.6091,0.0797);
};
identifier = ID0x7f9cef9bbd80;
};
closed = 1;
nodes = (
(77,0,l),
(77,700,l),
(76,700,l),
(53,677,l),
(53,0,l)
);
},
{
attr = {
gradient = {
colors = (
(
(64,255),
0
),
(
(191,255),
1
)
);
end = (0.08,0.5878);
start = (0.8784,0.5375);
};
identifier = ID0x7f9cef9bbd80;
};
closed = 1;
nodes = (
(196,353,l),
(196,377,l),
(77,377,l),
(77,353,l)
);
},
{
attr = {
gradient = {
colors = (
(
(64,255),
0
),
(
(191,255),
1
)
);
end = (0.4707,0.0242);
start = (0.5491,0.9419);
};
identifier = ID0x7f9cef9bbd80;
};
closed = 1;
nodes = (
(220,0,l),
(220,676,l),
(196,676,l),
(196,0,l)
);
},
{
attr = {
gradient = {
colors = (
(
(64,255),
0
),
(
(191,255),
1
)
);
end = (0.8878,0.5878);
start = (0.0693,0.513);
};
identifier = ID0x7f9cef9bbd80;
};
closed = 1;
nodes = (
(220,676,l),
(220,677,l),
(197,700,l),
(77,700,l),
(77,676,l)
);
},
{
attr = {
gradient = {
colors = (
(
(64,255),
0
),
(
(191,255),
1
)
);
end = (0.5226,0.863);
start = (0.919,0.8575);
};
identifier = ID0x7f9cef9bbe90;
};
closed = 1;
nodes = (
(166,761,l),
(185,783,l),
(91,783,l),
(110,761,l)
);
},
{
attr = {
gradient = {
colors = (
(
(191,255),
0
),
(
(64,255),
1
)
);
end = (0.8593,0.0383);
start = (0.1213,0.9446);
};
identifier = ID0x7f9cef9bbe90;
};
closed = 1;
nodes = (
(123,783,l),
(92,820,l),
(60,820,l),
(60,819,l),
(91,783,l)
);
},
{
attr = {
gradient = {
colors = (
(
(64,255),
0
),
(
(191,255),
1
)
);
end = (0.0416,0.8836);
start = (0.6808,0.742);
};
identifier = ID0x7f9cef9bbe90;
};
closed = 1;
nodes = (
(179,902,l),
(179,903,l),
(161,926,l),
(102,926,l),
(102,902,l)
);
},
{
attr = {
gradient = {
colors = (
(
(191,255),
0
),
(
(64,255),
1
)
);
end = (0.1949,0.0311);
start = (0.6652,0.898);
};
identifier = ID0x7f9cef9bbe90;
};
closed = 1;
nodes = (
(151,819,l),
(179,902,l),
(179,903,l),
(161,926,l),
(128,820,l),
(128,819,l)
);
},
{
attr = {
gradient = {
colors = (
(
(191,255),
0
),
(
(64,255),
1
)
);
end = (0.0863,0.058);
start = (0.5888,0.9521);
};
identifier = ID0x7f9cef9bbe90;
};
closed = 1;
nodes = (
(185,783,l),
(216,819,l),
(216,820,l),
(184,820,l),
(153,783,l)
);
}
);
width = 273;
},
{
anchors = (
{
name = bottom;
pos = (462,0);
},
{
name = top;
pos = (486,730);
}
);
attr = {
color = "1";
};
layerId = m003;
shapes = (
{
attr = {
gradient = {
colors = (
(
(64,255),
0
),
(
(191,255),
1
)
);
end = (0.79,0.8959);
start = (0.4055,0.0144);
};
identifier = ID0x7f9cef9bbfa0;
};
closed = 1;
nodes = (
(289,0,l),
(289,730,l),
(288,730,l),
(35,523,l),
(35,0,l)
);
},
{
attr = {
gradient = {
colors = (
(
(64,255),
0
),
(
(191,255),
1
)
);
end = (0.0383,0.0895);
start = (0.8943,0.4519);
};
identifier = ID0x7f9cef9bbfa0;
};
closed = 1;
nodes = (
(638,173,l),
(638,417,l),
(289,417,l),
(289,173,l)
);
},
{
attr = {
gradient = {
colors = (
(
(64,255),
0
),
(
(191,255),
1
)
);
end = (0.4489,0.0368);
start = (0.4192,0.8964);
};
identifier = ID0x7f9cef9bbfa0;
};
closed = 1;
nodes = (
(892,0,l),
(892,486,l),
(638,486,l),
(638,0,l)
);
},
{
attr = {
gradient = {
colors = (
(
(64,255),
0
),
(
(191,255),
1
)
);
end = (0.8814,0.226);
start = (0.0812,0.4764);
};
identifier = ID0x7f9cef9bbfa0;
};
closed = 1;
nodes = (
(892,486,l),
(892,487,l),
(690,730,l),
(289,730,l),
(289,486,l)
);
},
{
attr = {
gradient = {
colors = (
(
(64,255),
0
),
(
(191,255),
1
)
);
end = (0.1186,0.9165);
start = (0.9392,0.8689);
};
identifier = ID0x7f9cef9fd720;
};
closed = 1;
nodes = (
(609,760,l),
(700,852,l),
(273,852,l),
(364,760,l)
);
},
{
attr = {
gradient = {
colors = (
(
(191,255),
0
),
(
(64,255),
1
)
);
end = (0.8794,0.1099);
start = (0.0918,0.8925);
};
identifier = ID0x7f9cef9fd720;
};
closed = 1;
nodes = (
(419,852,l),
(372,892,l),
(236,892,l),
(236,890,l),
(273,852,l)
);
},
{
attr = {
gradient = {
colors = (
(
(64,255),
0
),
(
(191,255),
1
)
);
end = (0.0611,0.8551);
start = (0.6503,0.8436);
};
identifier = ID0x7f9cef9fd720;
};
closed = 1;
nodes = (
(634,928,l),
(634,929,l),
(567,1010,l),
(376,1010,l),
(376,928,l)
);
},
{
attr = {
gradient = {
colors = (
(
(191,255),
0
),
(
(64,255),
1
)
);
end = (0.2333,0.08);
start = (0.6171,0.8745);
};
identifier = ID0x7f9cef9fd720;
};
closed = 1;
nodes = (
(537,874,l),
(634,928,l),
(634,929,l),
(567,1010,l),
(439,875,l),
(439,874,l)
);
},
{
attr = {
gradient = {
colors = (
(
(191,255),
0
),
(
(64,255),
1
)
);
end = (0.0826,0.1154);
start = (0.8056,0.8328);
};
identifier = ID0x7f9cef9fd720;
};
closed = 1;
nodes = (
(700,852,l),
(737,891,l),
(737,892,l),
(601,892,l),
(554,852,l)
);
}
);
width = 927;
}
);
unicode = 7858;
},
{
glyphname = Abrevetilde;
kernLeft = A;
kernRight = A;
lastChange = "2022-08-22 22:11:46 +0000";
layers = (
{
anchors = (
{
name = bottom;
pos = (135,0);
},
{
name = top;
pos = (138,700);
}
);
attr = {
color = "1";
};
layerId = "33AE93C6-B8B3-427A-A53B-F24970E840CE";
shapes = (
{
attr = {
gradient = {
colors = (
(
(64,255),
0
),
(
(191,255),
1
)
);
end = (0.5074,0.9658);
start = (0.6091,0.0797);
};
identifier = ID0x7f9cef9fdbb0;
};
closed = 1;
nodes = (
(77,0,l),
(77,700,l),
(76,700,l),
(53,677,l),
(53,0,l)
);
},
{
attr = {
gradient = {
colors = (
(
(64,255),
0
),
(
(191,255),
1
)
);
end = (0.08,0.5878);
start = (0.8784,0.5375);
};
identifier = ID0x7f9cef9fdbb0;
};
closed = 1;
nodes = (
(196,353,l),
(196,377,l),
(77,377,l),
(77,353,l)
);
},
{
attr = {
gradient = {
colors = (
(
(64,255),
0
),
(
(191,255),
1
)
);
end = (0.4707,0.0242);
start = (0.5491,0.9419);
};
identifier = ID0x7f9cef9fdbb0;
};
closed = 1;
nodes = (
(220,0,l),
(220,676,l),
(196,676,l),
(196,0,l)
);
},
{
attr = {
gradient = {
colors = (
(
(64,255),
0
),
(
(191,255),
1
)
);
end = (0.8878,0.5878);
start = (0.0693,0.513);
};
identifier = ID0x7f9cef9fdbb0;
};
closed = 1;
nodes = (
(220,676,l),
(220,677,l),
(197,700,l),
(77,700,l),
(77,676,l)
);
},
{
attr = {
gradient = {
colors = (
(
(64,255),
0
),
(
(191,255),
1
)
);
end = (0.8068,0.953);
start = (0.1407,0.2739);
};
identifier = ID0x7f9cef9fdcc0;
};
closed = 1;
nodes = (
(198,870,l),
(198,922,l),
(174,922,l),
(174,870,l)
);
},
{
attr = {
gradient = {
colors = (
(
(64,255),
0
),
(
(191,255),
1
)
);
end = (0.1716,0.0881);
start = (0.379,0.7975);
};
identifier = ID0x7f9cef9fdcc0;
};
closed = 1;
nodes = (
(102,861,l),
(102,913,l),
(78,912,l),
(78,861,l)
);
},
{
attr = {
gradient = {
colors = (
(
(191,255),
0
),
(
(64,255),
0.48213
),
(
(191,255),
1
)
);
end = (0.1917,0.9282);
start = (0.9433,0.1468);
};
identifier = ID0x7f9cef9fdcc0;
};
closed = 1;
nodes = (
(175,860,l),
(197,869,l),
(197,870,l),
(101,922,l),
(100,922,l),
(78,913,l),
(78,912,l),
(174,860,l)
);
},
{
attr = {
gradient = {
colors = (
(
(191,255),
0
),
(
(64,255),
1
)
);
end = (0.8536,0.087);
start = (0.1666,0.8913);
};
identifier = ID0x7f9cef9fdcc0;
};
closed = 1;
nodes = (
(123,783,l),
(92,820,l),
(60,820,l),
(60,819,l),
(91,783,l)
);
},
{
attr = {
gradient = {
colors = (
(
(191,255),
0
),
(
(64,255),
1
)
);
end = (0.1637,0.1223);
start = (0.6369,0.8918);
};
identifier = ID0x7f9cef9fdcc0;
};
closed = 1;
nodes = (
(185,783,l),
(216,819,l),
(216,820,l),
(184,820,l),
(153,783,l)
);
},
{
attr = {
gradient = {
colors = (
(
(64,255),
0
),
(
(191,255),
1
)
);
end = (0.4582,0.7951);
start = (0.8695,0.7562);
};
identifier = ID0x7f9cef9fdcc0;
};
closed = 1;
nodes = (
(166,761,l),
(185,783,l),
(91,783,l),
(110,761,l)
);
}
);
width = 273;
},
{
anchors = (
{
name = bottom;
pos = (462,0);
},
{
name = top;
pos = (486,730);
}
);
attr = {
color = "1";
};
layerId = m003;
shapes = (
{
attr = {
gradient = {
colors = (
(
(64,255),
0
),
(
(191,255),
1
)
);
end = (0.79,0.8959);
start = (0.4055,0.0144);
};
identifier = ID0x7f9cef9fdfd0;
};
closed = 1;
nodes = (
(289,0,l),
(289,730,l),
(288,730,l),
(35,523,l),
(35,0,l)
);
},
{
attr = {
gradient = {
colors = (
(
(64,255),
0
),
(
(191,255),
1
)
);
end = (0.0383,0.0895);
start = (0.8943,0.4519);
};
identifier = ID0x7f9cef9fdfd0;
};
closed = 1;
nodes = (
(638,173,l),
(638,417,l),
(289,417,l),
(289,173,l)
);
},
{
attr = {
gradient = {
colors = (
(
(64,255),
0
),
(
(191,255),
1
)
);
end = (0.4489,0.0368);
start = (0.4192,0.8964);
};
identifier = ID0x7f9cef9fdfd0;
};
closed = 1;
nodes = (
(892,0,l),
(892,486,l),
(638,486,l),
(638,0,l)
);
},
{
attr = {
gradient = {
colors = (
(
(64,255),
0
),
(
(191,255),
1
)
);
end = (0.8814,0.226);
start = (0.0812,0.4764);
};
identifier = ID0x7f9cef9fdfd0;
};
closed = 1;
nodes = (
(892,486,l),
(892,487,l),
(690,730,l),
(289,730,l),
(289,486,l)
);
},
{
attr = {
gradient = {
colors = (
(
(64,255),
0
),
(
(191,255),
1
)
);
end = (0.9323,0.8754);
start = (0.2537,0.3497);
};
identifier = ID0x7f9cef9fe0e0;
};
closed = 1;
nodes = (
(805,916,l),
(805,980,l),
(670,980,l),
(670,907,l)
);
},
{
attr = {
gradient = {
colors = (
(
(64,255),
0
),
(
(191,255),
1
)
);
end = (0.0749,0.0963);
start = (0.4022,0.7541);
};
identifier = ID0x7f9cef9fe0e0;
};
closed = 1;
nodes = (
(495,868,l),
(495,955,l),
(370,944,l),
(370,868,l)
);
},
{
attr = {
gradient = {
colors = (
(
(191,255),
0
),
(
(64,255),
0.52095
),
(
(191,255),
1
)
);
end = (0.0814,0.6617);
start = (0.9769,0.392);
};
identifier = ID0x7f9cef9fe0e0;
};
closed = 1;
nodes = (
(723,879,l),
(805,916,l),
(805,927,l),
(526,984,l),
(485,984,l),
(370,945,l),
(370,944,l),
(682,879,l)
);
},
{
attr = {
gradient = {
colors = (
(
(191,255),
0
),
(
(64,255),
1
)
);
end = (0.8794,0.1099);
start = (0.0918,0.8925);
};
identifier = ID0x7f9cef9fe0e0;
};
closed = 1;
nodes = (
(359,852,l),
(307,900,l),
(171,900,l),
(171,898,l),
(213,852,l)
);
},
{
attr = {
gradient = {
colors = (
(
(191,255),
0
),
(
(64,255),
1
)
);
end = (0.1252,0.1294);
start = (0.8787,0.2105);
};
identifier = ID0x7f9cef9fe0e0;
};
closed = 1;
nodes = (
(640,852,l),
(654,866,l),
(654,867,l),
(540,890,l),
(494,852,l)
);
},
{
attr = {
gradient = {
colors = (
(
(64,255),
0
),
(
(191,255),
1
)
);
end = (0.1437,0.437);
start = (0.8674,0.4621);
};
identifier = ID0x7f9cef9fe0e0;
};
closed = 1;
nodes = (
(549,760,l),
(640,852,l),
(213,852,l),
(304,760,l)
);
}
);
width = 927;
}
);
unicode = 7860;
},
{
glyphname = Acaron;
lastChange = "2022-08-22 22:11:46 +0000";
layers = (
{
anchors = (
{
name = bottom;
pos = (135,0);
},
{
name = top;
pos = (138,700);
}
);
attr = {
color = 1;
};
layerId = "33AE93C6-B8B3-427A-A53B-F24970E840CE";
shapes = (
{
attr = {
gradient = {
colors = (
(
(64,255),
0
),
(
(191,255),
1
)
);
end = (0.5074,0.9658);
start = (0.6091,0.0797);
};
identifier = ID0x7f9cef9fe570;
};
closed = 1;
nodes = (
(77,0,l),
(77,700,l),
(76,700,l),
(53,677,l),
(53,0,l)
);
},
{
attr = {
gradient = {
colors = (
(
(64,255),
0
),
(
(191,255),
1
)
);
end = (0.08,0.5878);
start = (0.8784,0.5375);
};
identifier = ID0x7f9cef9fe570;
};
closed = 1;
nodes = (
(196,353,l),
(196,377,l),
(77,377,l),
(77,353,l)
);
},
{
attr = {
gradient = {
colors = (
(
(64,255),
0
),
(
(191,255),
1
)
);
end = (0.4707,0.0242);
start = (0.5491,0.9419);
};
identifier = ID0x7f9cef9fe570;
};
closed = 1;
nodes = (
(220,0,l),
(220,676,l),
(196,676,l),
(196,0,l)
);
},
{
attr = {
gradient = {
colors = (
(
(64,255),
0
),
(
(191,255),
1
)
);
end = (0.8878,0.5878);
start = (0.0693,0.513);
};
identifier = ID0x7f9cef9fe570;
};
closed = 1;
nodes = (
(220,676,l),
(220,677,l),
(197,700,l),
(77,700,l),
(77,676,l)
);
},
{
attr = {
gradient = {
colors = (
(
(191,255),
0
),
(
(64,255),
1
)
);
end = (0.6919,0.095);
start = (0.1777,0.9503);
};
identifier = ID0x7f9cef9fe680;
};
closed = 1;
nodes = (
(149,750,l),
(105,840,l),
(81,840,l),
(81,839,l),
(125,750,l)
);
},
{
attr = {
gradient = {
colors = (
(
(64,255),
0
),
(
(191,255),
1
)
);
end = (0.1367,0.051);
start = (0.8716,0.9453);
};
identifier = ID0x7f9cef9fe680;
};
closed = 1;
nodes = (
(149,750,l),
(195,839,l),
(195,840,l),
(171,840,l),
(126,750,l)
);
}
);
width = 273;
},
{
anchors = (
{
name = bottom;
pos = (462,0);
},
{
name = top;
pos = (486,730);
}
);
attr = {
color = 1;
};
layerId = m003;
shapes = (
{
attr = {
gradient = {
colors = (
(
(64,255),
0
),
(
(191,255),
1
)
);
end = (0.79,0.8959);
start = (0.4055,0.0144);
};
identifier = ID0x7f9cef9fe990;
};
closed = 1;
nodes = (
(289,0,l),
(289,730,l),
(288,730,l),
(35,523,l),
(35,0,l)
);
},
{
attr = {
gradient = {
colors = (
(
(64,255),
0
),
(
(191,255),
1
)
);
end = (0.0383,0.0895);
start = (0.8943,0.4519);
};
identifier = ID0x7f9cef9fe990;
};
closed = 1;
nodes = (
(638,173,l),
(638,417,l),
(289,417,l),
(289,173,l)
);
},
{
attr = {
gradient = {
colors = (
(
(64,255),
0
),
(
(191,255),
1
)
);
end = (0.4489,0.0368);
start = (0.4192,0.8964);
};
identifier = ID0x7f9cef9fe990;
};
closed = 1;
nodes = (
(892,0,l),
(892,486,l),
(638,486,l),
(638,0,l)
);
},
{
attr = {
gradient = {
colors = (
(
(64,255),
0
),
(
(191,255),
1
)
);
end = (0.8814,0.226);
start = (0.0812,0.4764);
};
identifier = ID0x7f9cef9fe990;
};
closed = 1;
nodes = (
(892,486,l),
(892,487,l),
(690,730,l),
(289,730,l),
(289,486,l)
);
},
{
attr = {
gradient = {
colors = (
(
(191,255),
0
),
(
(64,255),
1
)
);
end = (0.7695,0.5176);
start = (0.0969,0.9365);
};
identifier = ID0x7f9cef9feaa0;
};
closed = 1;
nodes = (
(555,793,l),
(411,900,l),
(234,900,l),
(234,899,l),
(402,760,l)
);
},
{
attr = {
gradient = {
colors = (
(
(64,255),
0
),
(
(191,255),
1
)
);
end = (0.0646,0.0508);
start = (0.9221,0.9501);
};
identifier = ID0x7f9cef9feaa0;
};
closed = 1;
nodes = (
(576,760,l),
(740,899,l),
(740,900,l),
(566,900,l),
(402,760,l)
);
}
);
width = 927;
}
);
unicode = 461;
},
{
glyphname = Acircumflex;
kernLeft = A;
kernRight = A;
lastChange = "2022-08-22 22:11:46 +0000";
layers = (
{
anchors = (
{
name = bottom;
pos = (135,0);
},
{
name = top;
pos = (138,700);
}
);
attr = {
color = "1";
};
layerId = "33AE93C6-B8B3-427A-A53B-F24970E840CE";
shapes = (
{
attr = {
gradient = {
colors = (
(
(64,255),
0
),
(
(191,255),
1
)
);
end = (0.5074,0.9658);
start = (0.6091,0.0797);
};
identifier = ID0x7f9cef9fef30;
};
closed = 1;
nodes = (
(77,0,l),
(77,700,l),
(76,700,l),
(53,677,l),
(53,0,l)
);
},
{
attr = {
gradient = {
colors = (
(
(64,255),
0
),
(
(191,255),
1
)
);
end = (0.08,0.5878);
start = (0.8784,0.5375);
};
identifier = ID0x7f9cef9fef30;
};
closed = 1;
nodes = (
(196,353,l),
(196,377,l),
(77,377,l),
(77,353,l)
);
},
{
attr = {
gradient = {
colors = (
(
(64,255),
0
),
(
(191,255),
1
)
);
end = (0.4707,0.0242);
start = (0.5491,0.9419);
};
identifier = ID0x7f9cef9fef30;
};
closed = 1;
nodes = (
(220,0,l),
(220,676,l),
(196,676,l),
(196,0,l)
);
},
{
attr = {
gradient = {
colors = (
(
(64,255),
0
),
(
(191,255),
1
)
);
end = (0.8878,0.5878);
start = (0.0693,0.513);
};
identifier = ID0x7f9cef9fef30;
};
closed = 1;
nodes = (
(220,676,l),
(220,677,l),
(197,700,l),
(77,700,l),
(77,676,l)
);
},
{
attr = {
gradient = {
colors = (
(
(191,255),
0
),
(
(64,255),
1
)
);
end = (0.3436,0.9317);
start = (0.8521,0.1516);
};
identifier = ID0x7f9cef9ff040;
};
closed = 1;
nodes = (
(192,760,l),
(192,761,l),
(148,850,l),
(124,850,l),
(168,760,l)
);
},
{
attr = {
gradient = {
colors = (
(
(64,255),
0
),
(
(191,255),
1
)
);
end = (0.9007,0.953);
start = (0.117,0.0327);
};
identifier = ID0x7f9cef9ff040;
};
closed = 1;
nodes = (
(102,760,l),
(147,850,l),
(124,850,l),
(78,761,l),
(78,760,l)
);
}
);
width = 273;
},
{
anchors = (
{
name = bottom;
pos = (462,0);
},
{
name = top;
pos = (486,730);
}
);
attr = {
color = "1";
};
layerId = m003;
shapes = (
{
attr = {
gradient = {
colors = (
(
(64,255),
0
),
(
(191,255),
1
)
);
end = (0.79,0.8959);
start = (0.4055,0.0144);
};
identifier = ID0x7f9cef9ff350;
};
closed = 1;
nodes = (
(289,0,l),
(289,730,l),
(288,730,l),
(35,523,l),
(35,0,l)
);
},
{
attr = {
gradient = {
colors = (
(
(64,255),
0
),
(
(191,255),
1
)
);
end = (0.0383,0.0895);
start = (0.8943,0.4519);
};
identifier = ID0x7f9cef9ff350;
};
closed = 1;
nodes = (
(638,173,l),
(638,417,l),
(289,417,l),
(289,173,l)
);
},
{
attr = {
gradient = {
colors = (
(
(64,255),
0
),
(
(191,255),
1
)
);
end = (0.4489,0.0368);
start = (0.4192,0.8964);
};
identifier = ID0x7f9cef9ff350;
};
closed = 1;
nodes = (
(892,0,l),
(892,486,l),
(638,486,l),
(638,0,l)
);
},
{
attr = {
gradient = {
colors = (
(
(64,255),
0
),
(
(191,255),
1
)
);
end = (0.8814,0.226);
start = (0.0812,0.4764);
};
identifier = ID0x7f9cef9ff350;
};
closed = 1;
nodes = (
(892,486,l),
(892,487,l),
(690,730,l),
(289,730,l),
(289,486,l)
);
},
{
attr = {
gradient = {
colors = (
(
(191,255),
0
),
(
(64,255),
1
)
);
end = (0.4452,0.9278);
start = (0.782,0.2138);
};
identifier = ID0x7f9cef9ff460;
};
closed = 1;
nodes = (
(746,760,l),
(746,761,l),
(578,900,l),
(425,867,l),
(569,760,l)
);
},
{
attr = {
gradient = {
colors = (
(
(64,255),
0
),
(
(191,255),
1
)
);
end = (0.6568,0.9502);
start = (0.2244,0.068);
};
identifier = ID0x7f9cef9ff460;
};
closed = 1;
nodes = (
(414,760,l),
(578,900,l),
(394,900,l),
(240,761,l),
(240,760,l)
);
}
);
width = 927;
}
);
unicode = 194;
},
{
glyphname = Acircumflexacute;
kernLeft = A;
kernRight = A;
lastChange = "2022-08-22 22:11:46 +0000";
layers = (
{
anchors = (
{
name = bottom;
pos = (135,0);
},
{
name = top;
pos = (138,700);
}
);
attr = {
color = "1";
};
layerId = "33AE93C6-B8B3-427A-A53B-F24970E840CE";
shapes = (
{
attr = {
gradient = {
colors = (
(
(64,255),
0
),
(
(191,255),
1
)
);
end = (0.5074,0.9658);
start = (0.6091,0.0797);
};
identifier = ID0x7f9cef9ff8f0;
};
closed = 1;
nodes = (
(77,0,l),
(77,700,l),
(76,700,l),
(53,677,l),
(53,0,l)
);
},
{
attr = {
gradient = {
colors = (
(
(64,255),
0
),
(
(191,255),
1
)
);
end = (0.08,0.5878);
start = (0.8784,0.5375);
};
identifier = ID0x7f9cef9ff8f0;
};
closed = 1;
nodes = (
(196,353,l),
(196,377,l),
(77,377,l),
(77,353,l)
);
},
{
attr = {
gradient = {
colors = (
(
(64,255),
0
),
(
(191,255),
1
)
);
end = (0.4707,0.0242);
start = (0.5491,0.9419);
};
identifier = ID0x7f9cef9ff8f0;
};
closed = 1;
nodes = (
(220,0,l),
(220,676,l),
(196,676,l),
(196,0,l)
);
},
{
attr = {
gradient = {
colors = (
(
(64,255),
0
),
(
(191,255),
1
)
);
end = (0.8878,0.5878);
start = (0.0693,0.513);
};
identifier = ID0x7f9cef9ff8f0;
};
closed = 1;
nodes = (
(220,676,l),
(220,677,l),
(197,700,l),
(77,700,l),
(77,676,l)
);
},
{
attr = {
gradient = {
colors = (
(
(191,255),
0
),
(
(64,255),
1
)
);
end = (0.3671,0.8704);
start = (0.7737,0.0951);
};
identifier = ID0x7f9cef9ffa00;
};
closed = 1;
nodes = (
(195,770,l),
(195,771,l),
(151,860,l),
(127,860,l),
(171,770,l)
);
},
{
attr = {
gradient = {
colors = (
(
(64,255),
0
),
(
(191,255),
1
)
);
end = (0.9007,0.953);
start = (0.2006,0.0758);
};
identifier = ID0x7f9cef9ffa00;
};
closed = 1;
nodes = (
(105,770,l),
(150,860,l),
(127,860,l),
(81,771,l),
(81,770,l)
);
},
{
attr = {
gradient = {
colors = (
(
(191,255),
0
),
(
(64,255),
1
)
);
end = (0.1643,0.0661);
start = (0.8302,0.9298);
};
identifier = ID0x7f9cef9ffa00;
};
closed = 1;
nodes = (
(210,810,l),
(242,899,l),
(242,900,l),
(214,900,l),
(189,810,l)
);
}
);
width = 273;
},
{
anchors = (
{
name = bottom;
pos = (462,0);
},
{
name = top;
pos = (486,730);
}
);
attr = {
color = "1";
};
layerId = m003;
shapes = (
{
attr = {
gradient = {
colors = (
(
(64,255),
0
),
(
(191,255),
1
)
);
end = (0.79,0.8959);
start = (0.4055,0.0144);
};
identifier = ID0x7f9cef9ffd10;
};
closed = 1;
nodes = (
(289,0,l),
(289,730,l),
(288,730,l),
(35,523,l),
(35,0,l)
);
},
{
attr = {
gradient = {
colors = (
(
(64,255),
0
),
(
(191,255),
1
)
);
end = (0.0383,0.0895);
start = (0.8943,0.4519);
};
identifier = ID0x7f9cef9ffd10;
};
closed = 1;
nodes = (
(638,173,l),
(638,417,l),
(289,417,l),
(289,173,l)
);
},
{
attr = {
gradient = {
colors = (
(
(64,255),
0
),
(
(191,255),
1
)
);
end = (0.4489,0.0368);
start = (0.4192,0.8964);
};
identifier = ID0x7f9cef9ffd10;
};
closed = 1;
nodes = (
(892,0,l),
(892,486,l),
(638,486,l),
(638,0,l)
);
},
{
attr = {
gradient = {
colors = (
(
(64,255),
0
),
(
(191,255),
1
)
);
end = (0.8814,0.226);
start = (0.0812,0.4764);
};
identifier = ID0x7f9cef9ffd10;
};
closed = 1;
nodes = (
(892,486,l),
(892,487,l),
(690,730,l),
(289,730,l),
(289,486,l)
);
},
{
attr = {
gradient = {
colors = (
(
(191,255),
0
),
(
(64,255),
1
)
);
end = (0.475,0.852);
start = (0.8377,0.0764);
};
identifier = ID0x7f9cef9ffe20;
};
closed = 1;
nodes = (
(676,755,l),
(676,756,l),
(548,883,l),
(415,852,l),
(519,755,l)
);
},
{
attr = {
gradient = {
colors = (
(
(64,255),
0
),
(
(191,255),
1
)
);
end = (0.6471,0.9661);
start = (0.2597,0.0984);
};
identifier = ID0x7f9cef9ffe20;
};
closed = 1;
nodes = (
(404,755,l),
(548,883,l),
(384,883,l),
(250,756,l),
(250,755,l)
);
},
{
attr = {
gradient = {
colors = (
(
(191,255),
0
),
(
(64,255),
1
)
);
end = (0.0775,0.1199);
start = (0.895,0.9123);
};
identifier = ID0x7f9cef9ffe20;
};
closed = 1;
nodes = (
(748,808,l),
(841,949,l),
(841,950,l),
(675,950,l),
(632,808,l)
);
}
);
width = 927;
}
);
unicode = 7844;
},
{
glyphname = Acircumflexdotbelow;
kernLeft = A;
kernRight = A;
lastChange = "2022-08-22 22:11:46 +0000";
layers = (
{
anchors = (
{
name = bottom;
pos = (135,0);
},
{
name = top;
pos = (138,700);
}
);
attr = {
color = "1";
};
layerId = "33AE93C6-B8B3-427A-A53B-F24970E840CE";
shapes = (
{
attr = {
gradient = {
colors = (
(
(64,255),
0
),
(
(191,255),
1
)
);
end = (0.5074,0.9658);
start = (0.6091,0.0797);
};
identifier = ID0x7f9cef9fc950;
};
closed = 1;
nodes = (
(77,0,l),
(77,700,l),
(76,700,l),
(53,677,l),
(53,0,l)
);
},
{
attr = {
gradient = {
colors = (
(
(64,255),
0
),
(
(191,255),
1
)
);
end = (0.08,0.5878);
start = (0.8784,0.5375);
};
identifier = ID0x7f9cef9fc950;
};
closed = 1;
nodes = (
(196,353,l),
(196,377,l),
(77,377,l),
(77,353,l)
);
},
{
attr = {
gradient = {
colors = (
(
(64,255),
0
),
(
(191,255),
1
)
);
end = (0.4707,0.0242);
start = (0.5491,0.9419);
};
identifier = ID0x7f9cef9fc950;
};
closed = 1;
nodes = (
(220,0,l),
(220,676,l),
(196,676,l),
(196,0,l)
);
},
{
attr = {
gradient = {
colors = (
(
(64,255),
0
),
(
(191,255),
1
)
);
end = (0.8878,0.5878);
start = (0.0693,0.513);
};
identifier = ID0x7f9cef9fc950;
};
closed = 1;
nodes = (
(220,676,l),
(220,677,l),
(197,700,l),
(77,700,l),
(77,676,l)
);
},
{
attr = {
gradient = {
colors = (
(
(191,255),
0
),
(
(64,255),
1
)
);
end = (0.9081,0.083);
start = (0.0737,0.9244);
};
identifier = ID0x7f9cef9fca60;
};
closed = 1;
nodes = (
(151,-119,l),
(151,-85,l),
(121,-85,l),
(121,-119,l)
);
},
{
attr = {
gradient = {
colors = (
(
(191,255),
0
),
(
(64,255),
1
)
);
end = (0.3436,0.9317);
start = (0.8521,0.1516);
};
identifier = ID0x7f9cef9fcb70;
};
closed = 1;
nodes = (
(192,760,l),
(192,761,l),
(148,850,l),
(124,850,l),
(168,760,l)
);
},
{
attr = {
gradient = {
colors = (
(
(64,255),
0
),
(
(191,255),
1
)
);
end = (0.9007,0.953);
start = (0.117,0.0327);
};
identifier = ID0x7f9cef9fcb70;
};
closed = 1;
nodes = (
(102,760,l),
(147,850,l),
(124,850,l),
(78,761,l),
(78,760,l)
);
}
);
width = 273;
},
{
anchors = (
{
name = bottom;
pos = (462,0);
},
{
name = top;
pos = (486,730);
}
);
attr = {
color = "1";
};
layerId = m003;
shapes = (
{
attr = {
gradient = {
colors = (
(
(64,255),
0
),
(
(191,255),
1
)
);
end = (0.79,0.8959);
start = (0.4055,0.0144);
};
identifier = ID0x7f9cef9fce80;
};
closed = 1;
nodes = (
(289,0,l),
(289,730,l),
(288,730,l),
(35,523,l),
(35,0,l)
);
},
{
attr = {
gradient = {
colors = (
(
(64,255),
0
),
(
(191,255),
1
)
);
end = (0.0383,0.0895);
start = (0.8943,0.4519);
};
identifier = ID0x7f9cef9fce80;
};
closed = 1;
nodes = (
(638,173,l),
(638,417,l),
(289,417,l),
(289,173,l)
);
},
{
attr = {
gradient = {
colors = (
(
(64,255),
0
),
(
(191,255),
1
)
);
end = (0.4489,0.0368);
start = (0.4192,0.8964);
};
identifier = ID0x7f9cef9fce80;
};
closed = 1;
nodes = (
(892,0,l),
(892,486,l),
(638,486,l),
(638,0,l)
);
},
{
attr = {
gradient = {
colors = (
(
(64,255),
0
),
(
(191,255),
1
)
);
end = (0.8814,0.226);
start = (0.0812,0.4764);
};
identifier = ID0x7f9cef9fce80;
};
closed = 1;
nodes = (
(892,486,l),
(892,487,l),
(690,730,l),
(289,730,l),
(289,486,l)
);
},
{
attr = {
gradient = {
colors = (
(
(191,255),
0
),
(
(64,255),
1
)
);
end = (0.8925,0.136);
start = (0.1278,0.8543);
};
identifier = ID0x7f9cef9a9420;
};
closed = 1;
nodes = (
(567,-200,l),
(567,-38,l),
(363,-38,l),
(363,-200,l)
);
},
{
attr = {
gradient = {
colors = (
(
(191,255),
0
),
(
(64,255),
1
)
);
end = (0.4452,0.9278);
start = (0.782,0.2138);
};
identifier = ID0x7f9cef9a9530;
};
closed = 1;
nodes = (
(746,760,l),
(746,761,l),
(578,900,l),
(425,867,l),
(569,760,l)
);
},
{
attr = {
gradient = {
colors = (
(
(64,255),
0
),
(
(191,255),
1
)
);
end = (0.6568,0.9502);
start = (0.2244,0.068);
};
identifier = ID0x7f9cef9a9530;
};
closed = 1;
nodes = (
(414,760,l),
(578,900,l),
(394,900,l),
(240,761,l),
(240,760,l)
);
}
);
width = 927;
}
);
unicode = 7852;
},
{
glyphname = Acircumflexgrave;
kernLeft = A;
kernRight = A;
lastChange = "2022-08-22 22:11:46 +0000";
layers = (
{
anchors = (
{
name = bottom;
pos = (135,0);
},
{
name = top;
pos = (138,700);
}
);
attr = {
color = "1";
};
layerId = "33AE93C6-B8B3-427A-A53B-F24970E840CE";
shapes = (
{
attr = {
gradient = {
colors = (
(
(64,255),
0
),
(
(191,255),
1
)
);
end = (0.5074,0.9658);
start = (0.6091,0.0797);
};
identifier = ID0x7f9cef9a97c0;
};
closed = 1;
nodes = (
(77,0,l),
(77,700,l),
(76,700,l),
(53,677,l),
(53,0,l)
);
},
{
attr = {
gradient = {
colors = (
(
(64,255),
0
),
(
(191,255),
1
)
);
end = (0.08,0.5878);
start = (0.8784,0.5375);
};
identifier = ID0x7f9cef9a97c0;
};
closed = 1;
nodes = (
(196,353,l),
(196,377,l),
(77,377,l),
(77,353,l)
);
},
{
attr = {
gradient = {
colors = (
(
(64,255),
0
),
(
(191,255),
1
)
);
end = (0.4707,0.0242);
start = (0.5491,0.9419);
};
identifier = ID0x7f9cef9a97c0;
};
closed = 1;
nodes = (
(220,0,l),
(220,676,l),
(196,676,l),
(196,0,l)
);
},
{
attr = {
gradient = {
colors = (
(
(64,255),
0
),
(
(191,255),
1
)
);
end = (0.8878,0.5878);
start = (0.0693,0.513);
};
identifier = ID0x7f9cef9a97c0;
};
closed = 1;
nodes = (
(220,676,l),
(220,677,l),
(197,700,l),
(77,700,l),
(77,676,l)
);
},
{
attr = {
gradient = {
colors = (
(
(191,255),
0
),
(
(64,255),
1
)
);
end = (0.3555,0.8745);
start = (0.7648,0.0924);
};
identifier = ID0x7f9cef9f46e0;
};
closed = 1;
nodes = (
(196,744,l),
(196,745,l),
(152,834,l),
(128,834,l),
(172,744,l)
);
},
{
attr = {
gradient = {
colors = (
(
(64,255),
0
),
(
(191,255),
1
)
);
end = (0.86,0.9247);
start = (0.1646,0.087);
};
identifier = ID0x7f9cef9f46e0;
};
closed = 1;
nodes = (
(106,744,l),
(151,834,l),
(128,834,l),
(82,745,l),
(82,744,l)
);
},
{
attr = {
gradient = {
colors = (
(
(191,255),
0
),
(
(64,255),
1
)
);
end = (0.1945,0.9162);
start = (0.8997,0.0564);
};
identifier = ID0x7f9cef9f46e0;
};
closed = 1;
nodes = (
(223,810,l),
(198,900,l),
(170,900,l),
(170,899,l),
(202,810,l)
);
}
);
width = 273;
},
{
anchors = (
{
name = bottom;
pos = (462,0);
},
{
name = top;
pos = (486,730);
}
);
attr = {
color = "1";
};
layerId = m003;
shapes = (
{
attr = {
gradient = {
colors = (
(
(64,255),
0
),
(
(191,255),
1
)
);
end = (0.79,0.8959);
start = (0.4055,0.0144);
};
identifier = ID0x7f9cef9f49f0;
};
closed = 1;
nodes = (
(289,0,l),
(289,730,l),
(288,730,l),
(35,523,l),
(35,0,l)
);
},
{
attr = {
gradient = {
colors = (
(
(64,255),
0
),
(
(191,255),
1
)
);
end = (0.0383,0.0895);
start = (0.8943,0.4519);
};
identifier = ID0x7f9cef9f49f0;
};
closed = 1;
nodes = (
(638,173,l),
(638,417,l),
(289,417,l),
(289,173,l)
);
},
{
attr = {
gradient = {
colors = (
(
(64,255),
0
),
(
(191,255),
1
)
);
end = (0.4489,0.0368);
start = (0.4192,0.8964);
};
identifier = ID0x7f9cef9f49f0;
};
closed = 1;
nodes = (
(892,0,l),
(892,486,l),
(638,486,l),
(638,0,l)
);
},
{
attr = {
gradient = {
colors = (
(
(64,255),
0
),
(
(191,255),
1
)
);
end = (0.8814,0.226);
start = (0.0812,0.4764);
};
identifier = ID0x7f9cef9f49f0;
};
closed = 1;
nodes = (
(892,486,l),
(892,487,l),
(690,730,l),
(289,730,l),
(289,486,l)
);
},
{
attr = {
gradient = {
colors = (
(
(191,255),
0
),
(
(64,255),
1
)
);
end = (0.504,0.8198);
start = (0.8874,0.0814);
};
identifier = ID0x7f9cef9f4b00;
};
closed = 1;
nodes = (
(676,755,l),
(676,756,l),
(548,883,l),
(415,852,l),
(519,755,l)
);
},
{
attr = {
gradient = {
colors = (
(
(64,255),
0
),
(
(191,255),
1
)
);
end = (0.7316,0.9232);
start = (0.1428,0.1029);
};
identifier = ID0x7f9cef9f4b00;
};
closed = 1;
nodes = (
(404,755,l),
(548,883,l),
(384,883,l),
(250,756,l),
(250,755,l)
);
},
{
attr = {
gradient = {
colors = (
(
(191,255),
0
),
(
(64,255),
1
)
);
end = (0.1805,0.8573);
start = (0.9241,0.0906);
};
identifier = ID0x7f9cef9f4b00;
};
closed = 1;
nodes = (
(768,808,l),
(725,950,l),
(559,950,l),
(559,949,l),
(652,808,l)
);
}
);
width = 927;
}
);
unicode = 7846;
},
{
glyphname = Acircumflexhookabove;
kernLeft = A;
kernRight = A;
lastChange = "2022-08-22 22:11:46 +0000";
layers = (
{
anchors = (
{
name = bottom;
pos = (135,0);
},
{
name = top;
pos = (138,700);
}
);
attr = {
color = "1";
};
layerId = "33AE93C6-B8B3-427A-A53B-F24970E840CE";
shapes = (
{
attr = {
gradient = {
colors = (
(
(64,255),
0
),
(
(191,255),
1
)
);
end = (0.5074,0.9658);
start = (0.6091,0.0797);
};
identifier = ID0x7f9cef9f4f90;
};
closed = 1;
nodes = (
(77,0,l),
(77,700,l),
(76,700,l),
(53,677,l),
(53,0,l)
);
},
{
attr = {
gradient = {
colors = (
(
(64,255),
0
),
(
(191,255),
1
)
);
end = (0.08,0.5878);
start = (0.8784,0.5375);
};
identifier = ID0x7f9cef9f4f90;
};
closed = 1;
nodes = (
(196,353,l),
(196,377,l),
(77,377,l),
(77,353,l)
);
},
{
attr = {
gradient = {
colors = (
(
(64,255),
0
),
(
(191,255),
1
)
);
end = (0.4707,0.0242);
start = (0.5491,0.9419);
};
identifier = ID0x7f9cef9f4f90;
};
closed = 1;
nodes = (
(220,0,l),
(220,676,l),
(196,676,l),
(196,0,l)
);
},
{
attr = {
gradient = {
colors = (
(
(64,255),
0
),
(
(191,255),
1
)
);
end = (0.8878,0.5878);
start = (0.0693,0.513);
};
identifier = ID0x7f9cef9f4f90;
};
closed = 1;
nodes = (
(220,676,l),
(220,677,l),
(197,700,l),
(77,700,l),
(77,676,l)
);
},
{
attr = {
gradient = {
colors = (
(
(191,255),
0
),
(
(64,255),
1
)
);
end = (0.38,0.8556);
start = (0.8521,0.1516);
};
identifier = ID0x7f9cef9f50a0;
};
closed = 1;
nodes = (
(197,760,l),
(197,761,l),
(153,850,l),
(152,850,l),
(129,850,l),
(173,760,l)
);
},
{
attr = {
gradient = {
colors = (
(
(64,255),
0
),
(
(191,255),
1
)
);
end = (0.9007,0.953);
start = (0.1907,0.0615);
};
identifier = ID0x7f9cef9f50a0;
};
closed = 1;
nodes = (
(107,760,l),
(152,850,l),
(129,850,l),
(83,761,l),
(83,760,l)
);
},
{
attr = {
gradient = {
colors = (
(
(64,255),
0
),
(
(191,255),
1
)
);
end = (0.0416,0.8836);
start = (0.6305,0.7572);
};
identifier = ID0x7f9cef9f50a0;
};
closed = 1;
nodes = (
(250,876,l),
(250,877,l),
(232,900,l),
(173,900,l),
(173,876,l)
);
},
{
attr = {
gradient = {
colors = (
(
(191,255),
0
),
(
(64,255),
1
)
);
end = (0.2458,0.0888);
start = (0.761,0.8385);
};
identifier = ID0x7f9cef9f50a0;
};
closed = 1;
nodes = (
(217,805,l),
(250,876,l),
(250,877,l),
(232,900,l),
(194,806,l),
(194,805,l)
);
}
);
width = 273;
},
{
anchors = (
{
name = bottom;
pos = (462,0);
},
{
name = top;
pos = (486,730);
}
);
attr = {
color = "1";
};
layerId = m003;
shapes = (
{
attr = {
gradient = {
colors = (
(
(64,255),
0
),
(
(191,255),
1
)
);
end = (0.79,0.8959);
start = (0.4055,0.0144);
};
identifier = ID0x7f9cef9f53b0;
};
closed = 1;
nodes = (
(289,0,l),
(289,730,l),
(288,730,l),
(35,523,l),
(35,0,l)
);
},
{
attr = {
gradient = {
colors = (
(
(64,255),
0
),
(
(191,255),
1
)
);
end = (0.0383,0.0895);
start = (0.8943,0.4519);
};
identifier = ID0x7f9cef9f53b0;
};
closed = 1;
nodes = (
(638,173,l),
(638,417,l),
(289,417,l),
(289,173,l)
);
},
{
attr = {
gradient = {
colors = (
(
(64,255),
0
),
(
(191,255),
1
)
);
end = (0.4489,0.0368);
start = (0.4192,0.8964);
};
identifier = ID0x7f9cef9f53b0;
};
closed = 1;
nodes = (
(892,0,l),
(892,486,l),
(638,486,l),
(638,0,l)
);
},
{
attr = {
gradient = {
colors = (
(
(64,255),
0
),
(
(191,255),
1
)
);
end = (0.8814,0.226);
start = (0.0812,0.4764);
};
identifier = ID0x7f9cef9f53b0;
};
closed = 1;
nodes = (
(892,486,l),
(892,487,l),
(690,730,l),
(289,730,l),
(289,486,l)
);
},
{
attr = {
gradient = {
colors = (
(
(191,255),
0
),
(
(64,255),
1
)
);
end = (0.4671,0.8636);
start = (0.7465,0.1437);
};
identifier = ID0x7f9cef9f54c0;
};
closed = 1;
nodes = (
(692,755,l),
(692,756,l),
(553,873,l),
(484,854,l),
(424,838,l),
(538,755,l)
);
},
{
attr = {
gradient = {
colors = (
(
(64,255),
0
),
(
(191,255),
1
)
);
end = (0.6904,0.8951);
start = (0.1364,0.1011);
};
identifier = ID0x7f9cef9f54c0;
};
closed = 1;
nodes = (
(394,755,l),
(553,873,l),
(394,873,l),
(240,756,l),
(240,755,l)
);
},
{
attr = {
gradient = {
colors = (
(
(64,255),
0
),
(
(191,255),
1
)
);
end = (0.0611,0.8551);
start = (0.6556,0.851);
};
identifier = ID0x7f9cef9f54c0;
};
closed = 1;
nodes = (
(794,892,l),
(794,893,l),
(717,980,l),
(506,980,l),
(506,892,l)
);
},
{
attr = {
gradient = {
colors = (
(
(191,255),
0
),
(
(64,255),
1
)
);
end = (0.1672,0.0549);
start = (0.6171,0.8745);
};
identifier = ID0x7f9cef9f54c0;
};
closed = 1;
nodes = (
(707,824,l),
(794,892,l),
(794,893,l),
(717,980,l),
(619,825,l),
(619,824,l)
);
}
);
width = 927;
}
);
unicode = 7848;
},
{
glyphname = Acircumflextilde;
kernLeft = A;
kernRight = A;
lastChange = "2022-08-22 22:11:46 +0000";
layers = (
{
anchors = (
{
name = bottom;
pos = (135,0);
},
{
name = top;
pos = (138,700);
}
);
attr = {
color = "1";
};
layerId = "33AE93C6-B8B3-427A-A53B-F24970E840CE";
shapes = (
{
attr = {
gradient = {
colors = (
(
(64,255),
0
),
(
(191,255),
1
)
);
end = (0.5074,0.9658);
start = (0.6091,0.0797);
};
identifier = ID0x7f9cef9f5950;
};
closed = 1;
nodes = (
(77,0,l),
(77,700,l),
(76,700,l),
(53,677,l),
(53,0,l)
);
},
{
attr = {
gradient = {
colors = (
(
(64,255),
0
),
(
(191,255),
1
)
);
end = (0.08,0.5878);
start = (0.8784,0.5375);
};
identifier = ID0x7f9cef9f5950;
};
closed = 1;
nodes = (
(196,353,l),
(196,377,l),
(77,377,l),
(77,353,l)
);
},
{
attr = {
gradient = {
colors = (
(
(64,255),
0
),
(
(191,255),
1
)
);
end = (0.4707,0.0242);
start = (0.5491,0.9419);
};
identifier = ID0x7f9cef9f5950;
};
closed = 1;
nodes = (
(220,0,l),
(220,676,l),
(196,676,l),
(196,0,l)
);
},
{
attr = {
gradient = {
colors = (
(
(64,255),
0
),
(
(191,255),
1
)
);
end = (0.8878,0.5878);
start = (0.0693,0.513);
};
identifier = ID0x7f9cef9f5950;
};
closed = 1;
nodes = (
(220,676,l),
(220,677,l),
(197,700,l),
(77,700,l),
(77,676,l)
);
},
{
attr = {
gradient = {
colors = (
(
(191,255),
0
),
(
(64,255),
1
)
);
end = (0.3353,0.8849);
start = (0.8521,0.1516);
};
identifier = ID0x7f9cef9f5a60;
};
closed = 1;
nodes = (
(204,757,l),
(204,758,l),
(150,832,l),
(120,832,l),
(174,757,l)
);
},
{
attr = {
gradient = {
colors = (
(
(64,255),
0
),
(
(191,255),
1
)
);
end = (0.9007,0.953);
start = (0.2066,0.0796);
};
identifier = ID0x7f9cef9f5a60;
};
closed = 1;
nodes = (
(94,757,l),
(150,832,l),
(120,832,l),
(64,758,l),
(64,757,l)
);
},
{
attr = {
gradient = {
colors = (
(
(64,255),
0
),
(
(191,255),
1
)
);
end = (0.6388,0.1085);
start = (0.1865,0.8406);
};
identifier = ID0x7f9cef9f5a60;
};
closed = 1;
nodes = (
(96,869,l),
(96,921,l),
(72,920,l),
(72,869,l)
);
},
{
attr = {
gradient = {
colors = (
(
(64,255),
0
),
(
(191,255),
1
)
);
end = (0.764,0.7986);
start = (0.1544,0.253);
};
identifier = ID0x7f9cef9f5a60;
};
closed = 1;
nodes = (
(192,878,l),
(192,930,l),
(168,930,l),
(168,878,l)
);
},
{
attr = {
gradient = {
colors = (
(
(191,255),
0
),
(
(64,255),
0.50526
),
(
(191,255),
1
)
);
end = (0.1796,0.9207);
start = (0.8224,0.0742);
};
identifier = ID0x7f9cef9f5a60;
};
closed = 1;
nodes = (
(169,868,l),
(191,877,l),
(191,878,l),
(95,930,l),
(94,930,l),
(72,921,l),
(72,920,l),
(168,868,l)
);
}
);
width = 273;
},
{
anchors = (
{
name = bottom;
pos = (462,0);
},
{
name = top;
pos = (486,730);
}
);
attr = {
color = "1";
};
layerId = m003;
shapes = (
{
attr = {
gradient = {
colors = (
(
(64,255),
0
),
(
(191,255),
1
)
);
end = (0.79,0.8959);
start = (0.4055,0.0144);
};
identifier = ID0x7f9cef9f5d70;
};
closed = 1;
nodes = (
(289,0,l),
(289,730,l),
(288,730,l),
(35,523,l),
(35,0,l)
);
},
{
attr = {
gradient = {
colors = (
(
(64,255),
0
),
(
(191,255),
1
)
);
end = (0.0383,0.0895);
start = (0.8943,0.4519);
};
identifier = ID0x7f9cef9f5d70;
};
closed = 1;
nodes = (
(638,173,l),
(638,417,l),
(289,417,l),
(289,173,l)
);
},
{
attr = {
gradient = {
colors = (
(
(64,255),
0
),
(
(191,255),
1
)
);
end = (0.4489,0.0368);
start = (0.4192,0.8964);
};
identifier = ID0x7f9cef9f5d70;
};
closed = 1;
nodes = (
(892,0,l),
(892,486,l),
(638,486,l),
(638,0,l)
);
},
{
attr = {
gradient = {
colors = (
(
(64,255),
0
),
(
(191,255),
1
)
);
end = (0.8814,0.226);
start = (0.0812,0.4764);
};
identifier = ID0x7f9cef9f5d70;
};
closed = 1;
nodes = (
(892,486,l),
(892,487,l),
(690,730,l),
(289,730,l),
(289,486,l)
);
},
{
attr = {
gradient = {
colors = (
(
(191,255),
0
),
(
(64,255),
1
)
);
end = (0.1891,0.4769);
start = (0.8293,0.1024);
};
identifier = ID0x7f9cef9f5e80;
};
closed = 1;
nodes = (
(722,755,l),
(722,756,l),
(558,853,l),
(444,808,l),
(548,755,l)
);
},
{
attr = {
gradient = {
colors = (
(
(64,255),
0
),
(
(191,255),
1
)
);
end = (0.8331,0.886);
start = (0.136,0.1457);
};
identifier = ID0x7f9cef9f5e80;
};
closed = 1;
nodes = (
(394,755,l),
(558,853,l),
(394,853,l),
(230,756,l),
(230,755,l)
);
},
{
attr = {
gradient = {
colors = (
(
(64,255),
0
),
(
(191,255),
1
)
);
end = (0.8915,0.1123);
start = (0.0645,0.6331);
};
identifier = ID0x7f9cef9f5e80;
};
closed = 1;
nodes = (
(396,868,l),
(396,945,l),
(276,934,l),
(276,868,l)
);
},
{
attr = {
gradient = {
colors = (
(
(64,255),
0
),
(
(191,255),
1
)
);
end = (0.8916,0.8904);
start = (0.1664,0.4798);
};
identifier = ID0x7f9cef9f5e80;
};
closed = 1;
nodes = (
(705,906,l),
(705,980,l),
(585,980,l),
(585,887,l)
);
},
{
attr = {
gradient = {
colors = (
(
(191,255),
0
),
(
(64,255),
0.52095
),
(
(191,255),
1
)
);
end = (0.0573,0.6543);
start = (0.9279,0.3091);
};
identifier = ID0x7f9cef9f5e80;
};
closed = 1;
nodes = (
(613,861,l),
(705,906,l),
(705,927,l),
(387,984,l),
(386,984,l),
(276,935,l),
(276,924,l),
(612,861,l)
);
}
);
width = 927;
}
);
unicode = 7850;
},
{
glyphname = Adblgrave;
kernLeft = A;
kernRight = A;
lastChange = "2022-08-22 22:11:46 +0000";
layers = (
{
anchors = (
{
name = bottom;
pos = (135,0);
},
{
name = top;
pos = (138,700);
}
);
attr = {
color = "1";
};
layerId = "33AE93C6-B8B3-427A-A53B-F24970E840CE";
shapes = (
{
attr = {
gradient = {
colors = (
(
(64,255),
0
),
(
(191,255),
1
)
);
end = (0.5074,0.9658);
start = (0.6091,0.0797);
};
identifier = ID0x7f9cef9f6310;
};
closed = 1;
nodes = (
(77,0,l),
(77,700,l),
(76,700,l),
(53,677,l),
(53,0,l)
);
},
{
attr = {
gradient = {
colors = (
(
(64,255),
0
),
(
(191,255),
1
)
);
end = (0.08,0.5878);
start = (0.8784,0.5375);
};
identifier = ID0x7f9cef9f6310;
};
closed = 1;
nodes = (
(196,353,l),
(196,377,l),
(77,377,l),
(77,353,l)
);
},
{
attr = {
gradient = {
colors = (
(
(64,255),
0
),
(
(191,255),
1
)
);
end = (0.4707,0.0242);
start = (0.5491,0.9419);
};
identifier = ID0x7f9cef9f6310;
};
closed = 1;
nodes = (
(220,0,l),
(220,676,l),
(196,676,l),
(196,0,l)
);
},
{
attr = {
gradient = {
colors = (
(
(64,255),
0
),
(
(191,255),
1
)
);
end = (0.8878,0.5878);
start = (0.0693,0.513);
};
identifier = ID0x7f9cef9f6310;
};
closed = 1;
nodes = (
(220,676,l),
(220,677,l),
(197,700,l),
(77,700,l),
(77,676,l)
);
},
{
attr = {
gradient = {
colors = (
(
(191,255),
0
),
(
(64,255),
1
)
);
end = (0.2389,0.9169);
start = (0.8626,0.0429);
};
identifier = ID0x7f9cef9f6420;
};
closed = 1;
nodes = (
(179,770,l),
(154,860,l),
(123,860,l),
(123,859,l),
(155,770,l)
);
},
{
attr = {
gradient = {
colors = (
(
(191,255),
0
),
(
(64,255),
1
)
);
end = (0.2068,0.9521);
start = (0.8229,0.055);
};
identifier = ID0x7f9cef9f6420;
};
closed = 1;
nodes = (
(122,770,l),
(97,860,l),
(66,860,l),
(66,859,l),
(98,770,l)
);
}
);
width = 273;
},
{
anchors = (
{
name = bottom;
pos = (462,0);
},
{
name = top;
pos = (486,730);
}
);
attr = {
color = "1";
};
layerId = m003;
shapes = (
{
attr = {
gradient = {
colors = (
(
(64,255),
0
),
(
(191,255),
1
)
);
end = (0.79,0.8959);
start = (0.4055,0.0144);
};
identifier = ID0x7f9cef9b68d0;
};
closed = 1;
nodes = (
(289,0,l),
(289,730,l),
(288,730,l),
(35,523,l),
(35,0,l)
);
},
{
attr = {
gradient = {
colors = (
(
(64,255),
0
),
(
(191,255),
1
)
);
end = (0.0383,0.0895);
start = (0.8943,0.4519);
};
identifier = ID0x7f9cef9b68d0;
};
closed = 1;
nodes = (
(638,173,l),
(638,417,l),
(289,417,l),
(289,173,l)
);
},
{
attr = {
gradient = {
colors = (
(
(64,255),
0
),
(
(191,255),
1
)
);
end = (0.4489,0.0368);
start = (0.4192,0.8964);
};
identifier = ID0x7f9cef9b68d0;
};
closed = 1;
nodes = (
(892,0,l),
(892,486,l),
(638,486,l),
(638,0,l)
);
},
{
attr = {
gradient = {
colors = (
(
(64,255),
0
),
(
(191,255),
1
)
);
end = (0.8814,0.226);
start = (0.0812,0.4764);
};
identifier = ID0x7f9cef9b68d0;
};
closed = 1;
nodes = (
(892,486,l),
(892,487,l),
(690,730,l),
(289,730,l),
(289,486,l)
);
},
{
attr = {
gradient = {
colors = (
(
(191,255),
0
),
(
(64,255),
1
)
);
end = (0.1692,0.9007);
start = (0.9146,0.1015);
};
identifier = ID0x7f9cef9b69e0;
};
closed = 1;
nodes = (
(674,760,l),
(639,900,l),
(433,900,l),
(433,899,l),
(548,760,l)
);
},
{
attr = {
gradient = {
colors = (
(
(191,255),
0
),
(
(64,255),
1
)
);
end = (0.169,0.9162);
start = (0.9061,0.1141);
};
identifier = ID0x7f9cef9b69e0;
};
closed = 1;
nodes = (
(444,760,l),
(409,900,l),
(203,900,l),
(203,899,l),
(318,760,l)
);
}
);
width = 927;
}
);
unicode = 512;
},
{
glyphname = Adieresis;
kernLeft = A;
kernRight = A;
lastChange = "2022-08-22 22:11:46 +0000";
layers = (
{
anchors = (
{
name = bottom;
pos = (135,0);
},
{
name = top;
pos = (138,800);
}
);
attr = {
color = "1";
};
layerId = "33AE93C6-B8B3-427A-A53B-F24970E840CE";
shapes = (
{
attr = {
gradient = {
colors = (
(
(64,255),
0
),
(
(191,255),
1
)
);
end = (0.5074,0.9658);
start = (0.6091,0.0797);
};
identifier = ID0x7f9cef99aff0;
};
closed = 1;
nodes = (
(77,0,l),
(77,700,l),
(76,700,l),
(53,677,l),
(53,0,l)
);
},
{
attr = {
gradient = {
colors = (
(
(64,255),
0
),
(
(191,255),
1
)
);
end = (0.08,0.5878);
start = (0.8784,0.5375);
};
identifier = ID0x7f9cef99aff0;
};
closed = 1;
nodes = (
(196,353,l),
(196,377,l),
(77,377,l),
(77,353,l)
);
},
{
attr = {
gradient = {
colors = (
(
(64,255),
0
),
(
(191,255),
1
)
);
end = (0.4707,0.0242);
start = (0.5491,0.9419);
};
identifier = ID0x7f9cef99aff0;
};
closed = 1;
nodes = (
(220,0,l),
(220,676,l),
(196,676,l),
(196,0,l)
);
},
{
attr = {
gradient = {
colors = (
(
(64,255),
0
),
(
(191,255),
1
)
);
end = (0.8878,0.5878);
start = (0.0693,0.513);
};
identifier = ID0x7f9cef99aff0;
};
closed = 1;
nodes = (
(220,676,l),
(220,677,l),
(197,700,l),
(77,700,l),
(77,676,l)
);
},
{
attr = {
gradient = {
colors = (
(
(191,255),
0
),
(
(64,255),
1
)
);
end = (0.1852,0.1283);
start = (0.8002,0.8766);
};
identifier = ID0x7f9cef99b100;
};
closed = 1;
nodes = (
(186,811,l),
(186,845,l),
(155,845,l),
(155,811,l)
);
},
{
attr = {
gradient = {
colors = (
(
(191,255),
0
),
(
(64,255),
1
)
);
end = (0.2697,0.1121);
start = (0.8383,0.8625);
};
identifier = ID0x7f9cef99b100;
};
closed = 1;
nodes = (
(121,811,l),
(121,845,l),
(90,845,l),
(90,811,l)
);
}
);
width = 273;
},
{
anchors = (
{
name = bottom;
pos = (462,0);
},
{
name = top;
pos = (486,900);
}
);
attr = {
color = "1";
};
layerId = m003;
shapes = (
{
attr = {
gradient = {
colors = (
(
(64,255),
0
),
(
(191,255),
1
)
);
end = (0.79,0.8959);
start = (0.4055,0.0144);
};
identifier = ID0x7f9cef99b410;
};
closed = 1;
nodes = (
(289,0,l),
(289,730,l),
(288,730,l),
(35,523,l),
(35,0,l)
);
},
{
attr = {
gradient = {
colors = (
(
(64,255),
0
),
(
(191,255),
1
)
);
end = (0.0383,0.0895);
start = (0.8943,0.4519);
};
identifier = ID0x7f9cef99b410;
};
closed = 1;
nodes = (
(638,173,l),
(638,417,l),
(289,417,l),
(289,173,l)
);
},
{
attr = {
gradient = {
colors = (
(
(64,255),
0
),
(
(191,255),
1
)
);
end = (0.4489,0.0368);
start = (0.4192,0.8964);
};
identifier = ID0x7f9cef99b410;
};
closed = 1;
nodes = (
(892,0,l),
(892,486,l),
(638,486,l),
(638,0,l)
);
},
{
attr = {
gradient = {
colors = (
(
(64,255),
0
),
(
(191,255),
1
)
);
end = (0.8814,0.226);
start = (0.0812,0.4764);
};
identifier = ID0x7f9cef99b410;
};
closed = 1;
nodes = (
(892,486,l),
(892,487,l),
(690,730,l),
(289,730,l),
(289,486,l)
);
},
{
attr = {
gradient = {
colors = (
(
(191,255),
0
),
(
(64,255),
1
)
);
end = (0.1474,0.1754);
start = (0.8842,0.8769);
};
identifier = ID0x7f9cef99b520;
};
closed = 1;
nodes = (
(684,788,l),
(684,900,l),
(538,900,l),
(538,788,l)
);
},
{
attr = {
gradient = {
colors = (
(
(191,255),
0
),
(
(64,255),
1
)
);
end = (0.1045,0.1752);
start = (0.7307,0.846);
};
identifier = ID0x7f9cef99b520;
};
closed = 1;
nodes = (
(436,788,l),
(436,900,l),
(290,900,l),
(290,788,l)
);
}
);
width = 927;
}
);
unicode = 196;
},
{
glyphname = Adotbelow;
kernLeft = A;
kernRight = A;
lastChange = "2022-08-22 22:11:46 +0000";
layers = (
{
anchors = (
{
name = bottom;
pos = (135,0);
},
{
name = top;
pos = (138,700);
}
);
attr = {
color = "1";
};
layerId = "33AE93C6-B8B3-427A-A53B-F24970E840CE";
shapes = (
{
attr = {
gradient = {
colors = (
(
(64,255),
0
),
(
(191,255),
1
)
);
end = (0.5074,0.9658);
start = (0.6091,0.0797);
};
identifier = ID0x7f9cef99b9b0;
};
closed = 1;
nodes = (
(77,0,l),
(77,700,l),
(76,700,l),
(53,677,l),
(53,0,l)
);
},
{
attr = {
gradient = {
colors = (
(
(64,255),
0
),
(
(191,255),
1
)
);
end = (0.08,0.5878);
start = (0.8784,0.5375);
};
identifier = ID0x7f9cef99b9b0;
};
closed = 1;
nodes = (
(196,353,l),
(196,377,l),
(77,377,l),
(77,353,l)
);
},
{
attr = {
gradient = {
colors = (
(
(64,255),
0
),
(
(191,255),
1
)
);
end = (0.4707,0.0242);
start = (0.5491,0.9419);
};
identifier = ID0x7f9cef99b9b0;
};
closed = 1;
nodes = (
(220,0,l),
(220,676,l),
(196,676,l),
(196,0,l)
);
},
{
attr = {
gradient = {
colors = (
(
(64,255),
0
),
(
(191,255),
1
)
);
end = (0.8878,0.5878);
start = (0.0693,0.513);
};
identifier = ID0x7f9cef99b9b0;
};
closed = 1;
nodes = (
(220,676,l),
(220,677,l),
(197,700,l),
(77,700,l),
(77,676,l)
);
},
{
attr = {
gradient = {
colors = (
(
(191,255),
0
),
(
(64,255),
1
)
);
end = (0.9081,0.083);
start = (0.0737,0.9244);
};
identifier = ID0x7f9cef99bac0;
};
closed = 1;
nodes = (
(151,-119,l),
(151,-85,l),
(121,-85,l),
(121,-119,l)
);
}
);
width = 273;
},
{
anchors = (
{
name = bottom;
pos = (462,0);
},
{
name = top;
pos = (486,730);
}
);
attr = {
color = "1";
};
layerId = m003;
shapes = (
{
attr = {
gradient = {
colors = (
(
(64,255),
0
),
(
(191,255),
1
)
);
end = (0.79,0.8959);
start = (0.4055,0.0144);
};
identifier = ID0x7f9cef99bdd0;
};
closed = 1;
nodes = (
(289,0,l),
(289,730,l),
(288,730,l),
(35,523,l),
(35,0,l)
);
},
{
attr = {
gradient = {
colors = (
(
(64,255),
0
),
(
(191,255),
1
)
);
end = (0.0383,0.0895);
start = (0.8943,0.4519);
};
identifier = ID0x7f9cef99bdd0;
};
closed = 1;
nodes = (
(638,173,l),
(638,417,l),
(289,417,l),
(289,173,l)
);
},
{
attr = {
gradient = {
colors = (
(
(64,255),
0
),
(
(191,255),
1
)
);
end = (0.4489,0.0368);
start = (0.4192,0.8964);
};
identifier = ID0x7f9cef99bdd0;
};
closed = 1;
nodes = (
(892,0,l),
(892,486,l),
(638,486,l),
(638,0,l)
);
},
{
attr = {
gradient = {
colors = (
(
(64,255),
0
),
(
(191,255),
1
)
);
end = (0.8814,0.226);
start = (0.0812,0.4764);
};
identifier = ID0x7f9cef99bdd0;
};
closed = 1;
nodes = (
(892,486,l),
(892,487,l),
(690,730,l),
(289,730,l),
(289,486,l)
);
},
{
attr = {
gradient = {
colors = (
(
(191,255),
0
),
(
(64,255),
1
)
);
end = (0.8925,0.136);
start = (0.1278,0.8543);
};
identifier = ID0x7f9cef99bee0;
};
closed = 1;
nodes = (
(567,-200,l),
(567,-38,l),
(363,-38,l),
(363,-200,l)
);
}
);
width = 927;
}
);
unicode = 7840;
},
{
glyphname = Agrave;
kernLeft = A;
kernRight = A;
lastChange = "2022-08-22 22:11:46 +0000";
layers = (
{
anchors = (
{
name = bottom;
pos = (135,0);
},
{
name = top;
pos = (138,700);
}
);
attr = {
color = "1";
};
layerId = "33AE93C6-B8B3-427A-A53B-F24970E840CE";
shapes = (
{
attr = {
gradient = {
colors = (
(
(64,255),
0
),
(
(191,255),
1
)
);
end = (0.5074,0.9658);
start = (0.6091,0.0797);
};
identifier = ID0x7f9cef99c370;
};
closed = 1;
nodes = (
(77,0,l),
(77,700,l),
(76,700,l),
(53,677,l),
(53,0,l)
);
},
{
attr = {
gradient = {
colors = (
(
(64,255),
0
),
(
(191,255),
1
)
);
end = (0.08,0.5878);
start = (0.8784,0.5375);
};
identifier = ID0x7f9cef99c370;
};
closed = 1;
nodes = (
(196,353,l),
(196,377,l),
(77,377,l),
(77,353,l)
);
},
{
attr = {
gradient = {
colors = (
(
(64,255),
0
),
(
(191,255),
1
)
);
end = (0.4707,0.0242);
start = (0.5491,0.9419);
};
identifier = ID0x7f9cef99c370;
};
closed = 1;
nodes = (
(220,0,l),
(220,676,l),
(196,676,l),
(196,0,l)
);
},
{
attr = {
gradient = {
colors = (
(
(64,255),
0
),
(
(191,255),
1
)
);
end = (0.8878,0.5878);
start = (0.0693,0.513);
};
identifier = ID0x7f9cef99c370;
};
closed = 1;
nodes = (
(220,676,l),
(220,677,l),
(197,700,l),
(77,700,l),
(77,676,l)
);
},
{
attr = {
gradient = {
colors = (
(
(191,255),
0
),
(
(64,255),
1
)
);
end = (0.1637,0.9293);
start = (0.8526,0.0553);
};
identifier = ID0x7f9cef99c480;
};
closed = 1;
nodes = (
(152,740,l),
(142,860,l),
(111,860,l),
(111,859,l),
(128,740,l)
);
}
);
width = 273;
},
{
anchors = (
{
name = bottom;
pos = (462,0);
},
{
name = top;
pos = (486,730);
}
);
attr = {
color = "1";
};
layerId = m003;
shapes = (
{
attr = {
gradient = {
colors = (
(
(64,255),
0
),
(
(191,255),
1
)
);
end = (0.79,0.8959);
start = (0.4055,0.0144);
};
identifier = ID0x7f9cef9ab680;
};
closed = 1;
nodes = (
(289,0,l),
(289,730,l),
(288,730,l),
(35,523,l),
(35,0,l)
);
},
{
attr = {
gradient = {
colors = (
(
(64,255),
0
),
(
(191,255),
1
)
);
end = (0.0383,0.0895);
start = (0.8943,0.4519);
};
identifier = ID0x7f9cef9ab680;
};
closed = 1;
nodes = (
(638,173,l),
(638,417,l),
(289,417,l),
(289,173,l)
);
},
{
attr = {
gradient = {
colors = (
(
(64,255),
0
),
(
(191,255),
1
)
);
end = (0.4489,0.0368);
start = (0.4192,0.8964);
};
identifier = ID0x7f9cef9ab680;
};
closed = 1;
nodes = (
(892,0,l),
(892,486,l),
(638,486,l),
(638,0,l)
);
},
{
attr = {
gradient = {
colors = (
(
(64,255),
0
),
(
(191,255),
1
)
);
end = (0.8814,0.226);
start = (0.0812,0.4764);
};
identifier = ID0x7f9cef9ab680;
};
closed = 1;
nodes = (
(892,486,l),
(892,487,l),
(690,730,l),
(289,730,l),
(289,486,l)
);
},
{
attr = {
gradient = {
colors = (
(
(191,255),
0
),
(
(64,255),
1
)
);
end = (0.1271,0.9168);
start = (0.9403,0.0787);
};
identifier = ID0x7f9cef9ab790;
};
closed = 1;
nodes = (
(565,760,l),
(530,900,l),
(324,900,l),
(324,899,l),
(439,760,l)
);
}
);
width = 927;
}
);
unicode = 192;
},
{
glyphname = Ahookabove;
kernLeft = A;
kernRight = A;
lastChange = "2022-08-22 22:11:46 +0000";
layers = (
{
anchors = (
{
name = bottom;
pos = (135,0);
},
{
name = top;
pos = (138,700);
}
);
attr = {
color = "1";
};
layerId = "33AE93C6-B8B3-427A-A53B-F24970E840CE";
shapes = (
{
attr = {
gradient = {
colors = (
(
(64,255),
0
),
(
(191,255),
1
)
);
end = (0.5074,0.9658);
start = (0.6091,0.0797);
};
identifier = ID0x7f9cef9abc20;
};
closed = 1;
nodes = (
(77,0,l),
(77,700,l),
(76,700,l),
(53,677,l),
(53,0,l)
);
},
{
attr = {
gradient = {
colors = (
(
(64,255),
0
),
(
(191,255),
1
)
);
end = (0.08,0.5878);
start = (0.8784,0.5375);
};
identifier = ID0x7f9cef9abc20;
};
closed = 1;
nodes = (
(196,353,l),
(196,377,l),
(77,377,l),
(77,353,l)
);
},
{
attr = {
gradient = {
colors = (
(
(64,255),
0
),
(
(191,255),
1
)
);
end = (0.4707,0.0242);
start = (0.5491,0.9419);
};
identifier = ID0x7f9cef9abc20;
};
closed = 1;
nodes = (
(220,0,l),
(220,676,l),
(196,676,l),
(196,0,l)
);
},
{
attr = {
gradient = {
colors = (
(
(64,255),
0
),
(
(191,255),
1
)
);
end = (0.8878,0.5878);
start = (0.0693,0.513);
};
identifier = ID0x7f9cef9abc20;
};
closed = 1;
nodes = (
(220,676,l),
(220,677,l),
(197,700,l),
(77,700,l),
(77,676,l)
);
},
{
attr = {
gradient = {
colors = (
(
(64,255),
0
),
(
(191,255),
1
)
);
end = (0.2262,0.0381);
start = (0.7085,0.7592);
};
identifier = ID0x7f9cef9abd30;
};
closed = 1;
nodes = (
(146,739,l),
(179,846,l),
(179,847,l),
(161,870,l),
(123,740,l),
(123,739,l)
);
},
{
attr = {
gradient = {
colors = (
(
(191,255),
0
),
(
(64,255),
1
)
);
end = (0.0932,0.7302);
start = (0.8129,0.301);
};
identifier = ID0x7f9cef9abd30;
};
closed = 1;
nodes = (
(179,846,l),
(179,847,l),
(161,870,l),
(102,870,l),
(102,846,l)
);
}
);
width = 273;
},
{
anchors = (
{
name = bottom;
pos = (462,0);
},
{
name = top;
pos = (486,730);
}
);
attr = {
color = "1";
};
layerId = m003;
shapes = (
{
attr = {
gradient = {
colors = (
(
(64,255),
0
),
(
(191,255),
1
)
);
end = (0.79,0.8959);
start = (0.4055,0.0144);
};
identifier = ID0x7f9cef9ac040;
};
closed = 1;
nodes = (
(289,0,l),
(289,730,l),
(288,730,l),
(35,523,l),
(35,0,l)
);
},
{
attr = {
gradient = {
colors = (
(
(64,255),
0
),
(
(191,255),
1
)
);
end = (0.0383,0.0895);
start = (0.8943,0.4519);
};
identifier = ID0x7f9cef9ac040;
};
closed = 1;
nodes = (
(638,173,l),
(638,417,l),
(289,417,l),
(289,173,l)
);
},
{
attr = {
gradient = {
colors = (
(
(64,255),
0
),
(
(191,255),
1
)
);
end = (0.4489,0.0368);
start = (0.4192,0.8964);
};
identifier = ID0x7f9cef9ac040;
};
closed = 1;
nodes = (
(892,0,l),
(892,486,l),
(638,486,l),
(638,0,l)
);
},
{
attr = {
gradient = {
colors = (
(
(64,255),
0
),
(
(191,255),
1
)
);
end = (0.8814,0.226);
start = (0.0812,0.4764);
};
identifier = ID0x7f9cef9ac040;
};
closed = 1;
nodes = (
(892,486,l),
(892,487,l),
(690,730,l),
(289,730,l),
(289,486,l)
);
},
{
attr = {
gradient = {
colors = (
(
(64,255),
0
),
(
(191,255),
1
)
);
end = (0.1453,0.0612);
start = (0.6563,0.3677);
};
identifier = ID0x7f9cef9ac150;
};
closed = 1;
nodes = (
(523,760,l),
(664,838,l),
(664,839,l),
(557,960,l),
(395,761,l),
(395,760,l)
);
},
{
attr = {
gradient = {
colors = (
(
(191,255),
0
),
(
(64,255),
1
)
);
end = (0.0611,0.8551);
start = (0.7772,0.3154);
};
identifier = ID0x7f9cef9ac150;
};
closed = 1;
nodes = (
(664,838,l),
(664,839,l),
(557,960,l),
(296,960,l),
(296,838,l)
);
}
);
width = 927;
}
);
unicode = 7842;
},
{
glyphname = Ainvertedbreve;
kernLeft = A;
kernRight = A;
lastChange = "2022-08-22 22:11:46 +0000";
layers = (
{
anchors = (
{
name = bottom;
pos = (135,0);
},
{
name = top;
pos = (138,700);
}
);
attr = {
color = "1";
};
layerId = "33AE93C6-B8B3-427A-A53B-F24970E840CE";
shapes = (
{
attr = {
gradient = {
colors = (
(
(64,255),
0
),
(
(191,255),
1
)
);
end = (0.5074,0.9658);
start = (0.6091,0.0797);
};
identifier = ID0x7f9cef9ac5e0;
};
closed = 1;
nodes = (
(77,0,l),
(77,700,l),
(76,700,l),
(53,677,l),
(53,0,l)
);
},
{
attr = {
gradient = {
colors = (
(
(64,255),
0
),
(
(191,255),
1
)
);
end = (0.08,0.5878);
start = (0.8784,0.5375);
};
identifier = ID0x7f9cef9ac5e0;
};
closed = 1;
nodes = (
(196,353,l),
(196,377,l),
(77,377,l),
(77,353,l)
);
},
{
attr = {
gradient = {
colors = (
(
(64,255),
0
),
(
(191,255),
1
)
);
end = (0.4707,0.0242);
start = (0.5491,0.9419);
};
identifier = ID0x7f9cef9ac5e0;
};
closed = 1;
nodes = (
(220,0,l),
(220,676,l),
(196,676,l),
(196,0,l)
);
},
{
attr = {
gradient = {
colors = (
(
(64,255),
0
),
(
(191,255),
1
)
);
end = (0.8878,0.5878);
start = (0.0693,0.513);
};
identifier = ID0x7f9cef9ac5e0;
};
closed = 1;
nodes = (
(220,676,l),
(220,677,l),
(197,700,l),
(77,700,l),
(77,676,l)
);
},
{
attr = {
gradient = {
colors = (
(
(64,255),
0
),
(
(191,255),
1
)
);
end = (0.5104,0.8134);
start = (0.9153,0.1559);
};
identifier = ID0x7f9cef9ac6f0;
};
closed = 1;
nodes = (
(185,818,l),
(166,840,l),
(110,840,l),
(91,818,l)
);
},
{
attr = {
gradient = {
colors = (
(
(191,255),
0
),
(
(64,255),
1
)
);
end = (0.8119,0.9081);
start = (0.1869,0.1486);
};
identifier = ID0x7f9cef9ac6f0;
};
closed = 1;
nodes = (
(92,781,l),
(123,818,l),
(91,818,l),
(60,782,l),
(60,781,l)
);
},
{
attr = {
gradient = {
colors = (
(
(191,255),
0
),
(
(64,255),
1
)
);
end = (0.1333,0.8878);
start = (0.524,0.0643);
};
identifier = ID0x7f9cef9ac6f0;
};
closed = 1;
nodes = (
(216,781,l),
(216,782,l),
(185,818,l),
(153,818,l),
(184,781,l)
);
}
);
width = 273;
},
{
anchors = (
{
name = bottom;
pos = (462,0);
},
{
name = top;
pos = (486,730);
}
);
attr = {
color = "1";
};
layerId = m003;
shapes = (
{
attr = {
gradient = {
colors = (
(
(64,255),
0
),
(
(191,255),
1
)
);
end = (0.79,0.8959);
start = (0.4055,0.0144);
};
identifier = ID0x7f9cef9aca00;
};
closed = 1;
nodes = (
(289,0,l),
(289,730,l),
(288,730,l),
(35,523,l),
(35,0,l)
);
},
{
attr = {
gradient = {
colors = (
(
(64,255),
0
),
(
(191,255),
1
)
);
end = (0.0383,0.0895);
start = (0.8943,0.4519);
};
identifier = ID0x7f9cef9aca00;
};
closed = 1;
nodes = (
(638,173,l),
(638,417,l),
(289,417,l),
(289,173,l)
);
},
{
attr = {
gradient = {
colors = (
(
(64,255),
0
),
(
(191,255),
1
)
);
end = (0.4489,0.0368);
start = (0.4192,0.8964);
};
identifier = ID0x7f9cef9aca00;
};
closed = 1;
nodes = (
(892,0,l),
(892,486,l),
(638,486,l),
(638,0,l)
);
},
{
attr = {
gradient = {
colors = (
(
(64,255),
0
),
(
(191,255),
1
)
);
end = (0.8814,0.226);
start = (0.0812,0.4764);
};
identifier = ID0x7f9cef9aca00;
};
closed = 1;
nodes = (
(892,486,l),
(892,487,l),
(690,730,l),
(289,730,l),
(289,486,l)
);
},
{
attr = {
gradient = {
colors = (
(
(64,255),
0
),
(
(191,255),
1
)
);
end = (0.2079,0.8534);
start = (0.8912,0.1355);
};
identifier = ID0x7f9cef9acb10;
};
closed = 1;
nodes = (
(683,820,l),
(609,900,l),
(364,900,l),
(290,820,l)
);
},
{
attr = {
gradient = {
colors = (
(
(191,255),
0
),
(
(64,255),
1
)
);
end = (0.8943,0.8385);
start = (0.1895,0.1088);
};
identifier = ID0x7f9cef9acb10;
};
closed = 1;
nodes = (
(392,760,l),
(449,820,l),
(290,820,l),
(236,762,l),
(236,760,l)
);
},
{
attr = {
gradient = {
colors = (
(
(191,255),
0
),
(
(64,255),
1
)
);
end = (0.2192,0.9094);
start = (0.8311,0.2184);
};
identifier = ID0x7f9cef9acb10;
};
closed = 1;
nodes = (
(737,760,l),
(737,761,l),
(683,820,l),
(524,820,l),
(581,760,l)
);
}
);
width = 927;
}
);
unicode = 514;
},
{
glyphname = Amacron;
kernLeft = A;
kernRight = A;
lastChange = "2022-08-22 22:11:46 +0000";
layers = (
{
anchors = (
{
name = bottom;
pos = (135,0);
},
{
name = top;
pos = (138,700);
}
);
attr = {
color = "1";
};
layerId = "33AE93C6-B8B3-427A-A53B-F24970E840CE";
shapes = (
{
attr = {
gradient = {
colors = (
(
(64,255),
0
),
(
(191,255),
1
)
);
end = (0.5074,0.9658);
start = (0.6091,0.0797);
};
identifier = ID0x7f9cefa1e780;
};
closed = 1;
nodes = (
(77,0,l),
(77,700,l),
(76,700,l),
(53,677,l),
(53,0,l)
);
},
{
attr = {
gradient = {
colors = (
(
(64,255),
0
),
(
(191,255),
1
)
);
end = (0.08,0.5878);
start = (0.8784,0.5375);
};
identifier = ID0x7f9cefa1e780;
};
closed = 1;
nodes = (
(196,353,l),
(196,377,l),
(77,377,l),
(77,353,l)
);
},
{
attr = {
gradient = {
colors = (
(
(64,255),
0
),
(
(191,255),
1
)
);
end = (0.4707,0.0242);
start = (0.5491,0.9419);
};
identifier = ID0x7f9cefa1e780;
};
closed = 1;
nodes = (
(220,0,l),
(220,676,l),
(196,676,l),
(196,0,l)
);
},
{
attr = {
gradient = {
colors = (
(
(64,255),
0
),
(
(191,255),
1
)
);
end = (0.8878,0.5878);
start = (0.0693,0.513);
};
identifier = ID0x7f9cefa1e780;
};
closed = 1;
nodes = (
(220,676,l),
(220,677,l),
(197,700,l),
(77,700,l),
(77,676,l)
);
},
{
attr = {
gradient = {
colors = (
(
(191,255),
0
),
(
(64,255),
1
)
);
end = (0.9392,0.4499);
start = (0.0364,0.6229);
};
identifier = ID0x7f9cefa1e890;
};
closed = 1;
nodes = (
(213,801,l),
(213,825,l),
(63,825,l),
(63,801,l)
);
}
);
width = 273;
},
{
anchors = (
{
name = bottom;
pos = (462,0);
},
{
name = top;
pos = (486,730);
}
);
attr = {
color = "1";
};
layerId = m003;
shapes = (
{
attr = {
gradient = {
colors = (
(
(64,255),
0
),
(
(191,255),
1
)
);
end = (0.79,0.8959);
start = (0.4055,0.0144);
};
identifier = ID0x7f9cefa1eba0;
};
closed = 1;
nodes = (
(289,0,l),
(289,730,l),
(288,730,l),
(35,523,l),
(35,0,l)
);
},
{
attr = {
gradient = {
colors = (
(
(64,255),
0
),
(
(191,255),
1
)
);
end = (0.0383,0.0895);
start = (0.8943,0.4519);
};
identifier = ID0x7f9cefa1eba0;
};
closed = 1;
nodes = (
(638,173,l),
(638,417,l),
(289,417,l),
(289,173,l)
);
},
{
attr = {
gradient = {
colors = (
(
(64,255),
0
),
(
(191,255),
1
)
);
end = (0.4489,0.0368);
start = (0.4192,0.8964);
};
identifier = ID0x7f9cefa1eba0;
};
closed = 1;
nodes = (
(892,0,l),
(892,486,l),
(638,486,l),
(638,0,l)
);
},
{
attr = {
gradient = {
colors = (
(
(64,255),
0
),
(
(191,255),
1
)
);
end = (0.8814,0.226);
start = (0.0812,0.4764);
};
identifier = ID0x7f9cefa1eba0;
};
closed = 1;
nodes = (
(892,486,l),
(892,487,l),
(690,730,l),
(289,730,l),
(289,486,l)
);
},
{
attr = {
gradient = {
colors = (
(
(191,255),
0
),
(
(64,255),
1
)
);
end = (0.9413,0.788);
start = (0.0734,0.1468);
};
identifier = ID0x7f9cefa1ecb0;
};
closed = 1;
nodes = (
(684,798,l),
(684,900,l),
(288,900,l),
(288,798,l)
);
}
);
width = 927;
}
);
unicode = 256;
},
{
glyphname = Aogonek;
kernLeft = A;
kernRight = A;
lastChange = "2022-08-22 22:11:46 +0000";
layers = (
{
anchors = (
{
name = bottom;
pos = (135,0);
},
{
name = top;
pos = (138,700);
}
);
attr = {
color = "1";
};
layerId = "33AE93C6-B8B3-427A-A53B-F24970E840CE";
shapes = (
{
attr = {
gradient = {
colors = (
(
(64,255),
0
),
(
(191,255),
1
)
);
end = (0.5074,0.9658);
start = (0.6091,0.0797);
};
identifier = ID0x7f9cefa1f140;
};
closed = 1;
nodes = (
(77,0,l),
(77,700,l),
(76,700,l),
(53,677,l),
(53,0,l)
);
},
{
attr = {
gradient = {
colors = (
(
(64,255),
0
),
(
(191,255),
1
)
);
end = (0.08,0.5878);
start = (0.8784,0.5375);
};
identifier = ID0x7f9cefa1f140;
};
closed = 1;
nodes = (
(196,353,l),
(196,377,l),
(77,377,l),
(77,353,l)
);
},
{
attr = {
gradient = {
colors = (
(
(64,255),
0
),
(
(191,255),
1
)
);
end = (0.4707,0.0242);
start = (0.5491,0.9419);
};
identifier = ID0x7f9cefa1f140;
};
closed = 1;
nodes = (
(220,0,l),
(220,676,l),
(196,676,l),
(196,0,l)
);
},
{
attr = {
gradient = {
colors = (
(
(64,255),
0
),
(
(191,255),
1
)
);
end = (0.8878,0.5878);
start = (0.0693,0.513);
};
identifier = ID0x7f9cefa1f140;
};
closed = 1;
nodes = (
(220,676,l),
(220,677,l),
(197,700,l),
(77,700,l),
(77,676,l)
);
},
{
attr = {
gradient = {
colors = (
(
(64,255),
0
),
(
(191,255),
1
)
);
end = (0.1016,0.073);
start = (0.8462,0.9177);
};
identifier = ID0x7f9cefa1f250;
};
closed = 1;
nodes = (
(196,-34,l),
(220,-1,l),
(220,0,l),
(196,0,l),
(175,-33,l),
(175,-34,l)
);
},
{
attr = {
gradient = {
colors = (
(
(64,255),
0
),
(
(191,255),
1
)
);
end = (0.7289,0.1934);
start = (0.1161,0.911);
};
identifier = ID0x7f9cefa1f250;
};
closed = 1;
nodes = (
(196,-79,l),
(196,-34,l),
(175,-34,l),
(175,-61,l),
(195,-79,l)
);
},
{
attr = {
gradient = {
colors = (
(
(64,255),
0
),
(
(191,255),
1
)
);
end = (0.6869,0.8149);
start = (0.0687,0.2493);
};
identifier = ID0x7f9cefa1f250;
};
closed = 1;
nodes = (
(221,-80,l),
(239,-62,l),
(239,-61,l),
(196,-61,l),
(196,-80,l)
);
}
);
width = 273;
},
{
anchors = (
{
name = bottom;
pos = (462,0);
},
{
name = top;
pos = (486,730);
}
);
attr = {
color = "1";
};
layerId = m003;
shapes = (
{
attr = {
gradient = {
colors = (
(
(64,255),
0
),
(
(191,255),
1
)
);
end = (0.79,0.8959);
start = (0.4055,0.0144);
};
identifier = ID0x7f9cefa1f560;
};
closed = 1;
nodes = (
(289,0,l),
(289,730,l),
(288,730,l),
(35,523,l),
(35,0,l)
);
},
{
attr = {
gradient = {
colors = (
(
(64,255),
0
),
(
(191,255),
1
)
);
end = (0.0383,0.0895);
start = (0.8943,0.4519);
};
identifier = ID0x7f9cefa1f560;
};
closed = 1;
nodes = (
(638,173,l),
(638,417,l),
(289,417,l),
(289,173,l)
);
},
{
attr = {
gradient = {
colors = (
(
(64,255),
0
),
(
(191,255),
1
)
);
end = (0.4489,0.0368);
start = (0.4192,0.8964);
};
identifier = ID0x7f9cefa1f560;
};
closed = 1;
nodes = (
(892,0,l),
(892,486,l),
(638,486,l),
(638,0,l)
);
},
{
attr = {
gradient = {
colors = (
(
(64,255),
0
),
(
(191,255),
1
)
);
end = (0.8814,0.226);
start = (0.0812,0.4764);
};
identifier = ID0x7f9cefa1f560;
};
closed = 1;
nodes = (
(892,486,l),
(892,487,l),
(690,730,l),
(289,730,l),
(289,486,l)
);
},
{
attr = {
gradient = {
colors = (
(
(64,255),
0
),
(
(191,255),
1
)
);
end = (0.0571,0.0713);
start = (0.9198,0.9327);
};
identifier = ID0x7f9cefa1f670;
};
closed = 1;
nodes = (
(789,-86,l),
(873,-1,l),
(873,0,l),
(688,0,l),
(631,-85,l),
(631,-86,l)
);
},
{
attr = {
gradient = {
colors = (
(
(64,255),
0
),
(
(191,255),
1
)
);
end = (0.6177,0.2155);
start = (0.0717,0.9428);
};
identifier = ID0x7f9cefa1f670;
};
closed = 1;
nodes = (
(789,-240,l),
(789,-86,l),
(631,-86,l),
(631,-184,l),
(788,-240,l)
);
},
{
attr = {
gradient = {
colors = (
(
(64,255),
0
),
(
(191,255),
1
)
);
end = (0.6063,0.9159);
start = (0.0654,0.0951);
};
identifier = ID0x7f9cefa1f670;
};
closed = 1;
nodes = (
(897,-240,l),
(957,-129,l),
(957,-128,l),
(789,-128,l),
(789,-240,l)
);
}
);
width = 927;
}
);
unicode = 260;
},
{
glyphname = Aring;
kernLeft = A;
kernRight = A;
lastChange = "2022-08-22 22:11:46 +0000";
layers = (
{
anchors = (
{
name = bottom;
pos = (135,0);
},
{
name = top;
pos = (138,700);
}
);
attr = {
color = "1";
};
layerId = "33AE93C6-B8B3-427A-A53B-F24970E840CE";
shapes = (
{
attr = {
gradient = {
colors = (
(
(64,255),
0
),
(
(191,255),
1
)
);
end = (0.5074,0.9658);
start = (0.6091,0.0797);
};
identifier = ID0x7f9cefa1fb00;
};
closed = 1;
nodes = (
(77,0,l),
(77,700,l),
(76,700,l),
(53,677,l),
(53,0,l)
);
},
{
attr = {
gradient = {
colors = (
(
(64,255),
0
),
(
(191,255),
1
)
);
end = (0.08,0.5878);
start = (0.8784,0.5375);
};
identifier = ID0x7f9cefa1fb00;
};
closed = 1;
nodes = (
(196,353,l),
(196,377,l),
(77,377,l),
(77,353,l)
);
},
{
attr = {
gradient = {
colors = (
(
(64,255),
0
),
(
(191,255),
1
)
);
end = (0.4707,0.0242);
start = (0.5491,0.9419);
};
identifier = ID0x7f9cefa1fb00;
};
closed = 1;
nodes = (
(220,0,l),
(220,676,l),
(196,676,l),
(196,0,l)
);
},
{
attr = {
gradient = {
colors = (
(
(64,255),
0
),
(
(191,255),
1
)
);
end = (0.8878,0.5878);
start = (0.0693,0.513);
};
identifier = ID0x7f9cefa1fb00;
};
closed = 1;
nodes = (
(220,676,l),
(220,677,l),
(197,700,l),
(77,700,l),
(77,676,l)
);
},
{
attr = {
gradient = {
colors = (
(
(64,255),
0
),
(
(191,255),
1
)
);
end = (0.4056,0.1204);
start = (0.4192,0.8964);
};
identifier = ID0x7f9cefa1fc10;
};
closed = 1;
nodes = (
(151,753,l),
(172,771,l),
(172,835,l),
(150,835,l),
(150,753,l)
);
},
{
attr = {
gradient = {
colors = (
(
(191,255),
0
),
(
(64,255),
1
)
);
end = (0.8878,0.5878);
start = (0.1542,0.7212);
};
identifier = ID0x7f9cefa1fc10;
};
closed = 1;
nodes = (
(150,753,l),
(150,775,l),
(95,775,l),
(95,774,l),
(113,753,l)
);
},
{
attr = {
gradient = {
colors = (
(
(64,255),
0
),
(
(191,255),
1
)
);
end = (0.686,0.87);
start = (0.6154,0.0465);
};
identifier = ID0x7f9cefa1fc10;
};
closed = 1;
nodes = (
(116,775,l),
(116,857,l),
(115,857,l),
(95,839,l),
(95,775,l)
);
},
{
attr = {
gradient = {
colors = (
(
(64,255),
0
),
(
(191,255),
1
)
);
end = (0.7709,0.4067);
start = (0.0693,0.513);
};
identifier = ID0x7f9cefa1fc10;
};
closed = 1;
nodes = (
(172,835,l),
(172,836,l),
(154,857,l),
(116,857,l),
(116,835,l)
);
}
);
width = 273;
},
{
anchors = (
{
name = bottom;
pos = (462,0);
},
{
name = top;
pos = (486,730);
}
);
attr = {
color = "1";
};
layerId = m003;
shapes = (
{
attr = {
gradient = {
colors = (
(
(64,255),
0
),
(
(191,255),
1
)
);
end = (0.79,0.8959);
start = (0.4055,0.0144);
};
identifier = ID0x7f9cefa1ff20;
};
closed = 1;
nodes = (
(289,0,l),
(289,730,l),
(288,730,l),
(35,523,l),
(35,0,l)
);
},
{
attr = {
gradient = {
colors = (
(
(64,255),
0
),
(
(191,255),
1
)
);
end = (0.0383,0.0895);
start = (0.8943,0.4519);
};
identifier = ID0x7f9cefa1ff20;
};
closed = 1;
nodes = (
(638,173,l),
(638,417,l),
(289,417,l),
(289,173,l)
);
},
{
attr = {
gradient = {
colors = (
(
(64,255),
0
),
(
(191,255),
1
)
);
end = (0.4489,0.0368);
start = (0.4192,0.8964);
};
identifier = ID0x7f9cefa1ff20;
};
closed = 1;
nodes = (
(892,0,l),
(892,486,l),
(638,486,l),
(638,0,l)
);
},
{
attr = {
gradient = {
colors = (
(
(64,255),
0
),
(
(191,255),
1
)
);
end = (0.8814,0.226);
start = (0.0812,0.4764);
};
identifier = ID0x7f9cefa1ff20;
};
closed = 1;
nodes = (
(892,486,l),
(892,487,l),
(690,730,l),
(289,730,l),
(289,486,l)
);
},
{
attr = {
gradient = {
colors = (
(
(64,255),
0
),
(
(191,255),
1
)
);
end = (0.1493,0.1708);
start = (0.4192,0.8964);
};
identifier = ID0x7f9cefa20030;
};
closed = 1;
nodes = (
(548,730,l),
(644,786,l),
(644,864,l),
(548,864,l),
(548,730,l)
);
},
{
attr = {
gradient = {
colors = (
(
(191,255),
0
),
(
(64,255),
1
)
);
end = (0.8878,0.5878);
start = (0.117,0.8122);
};
identifier = ID0x7f9cefa20030;
};
closed = 1;
nodes = (
(548,730,l),
(548,812,l),
(318,812,l),
(318,811,l),
(378,730,l)
);
},
{
attr = {
gradient = {
colors = (
(
(64,255),
0
),
(
(191,255),
1
)
);
end = (0.8577,0.8126);
start = (0.3791,0.0576);
};
identifier = ID0x7f9cefa20030;
};
closed = 1;
nodes = (
(414,812,l),
(414,948,l),
(413,948,l),
(318,886,l),
(318,812,l)
);
},
{
attr = {
gradient = {
colors = (
(
(64,255),
0
),
(
(191,255),
1
)
);
end = (0.8091,0.3318);
start = (0.0693,0.513);
};
identifier = ID0x7f9cefa20030;
};
closed = 1;
nodes = (
(644,864,l),
(644,865,l),
(584,948,l),
(414,948,l),
(414,864,l)
);
}
);
width = 927;
}
);
unicode = 197;
},
{
glyphname = Aringacute;
kernLeft = A;
kernRight = A;
lastChange = "2022-08-22 22:11:46 +0000";
layers = (
{
anchors = (
{
name = bottom;
pos = (135,0);
},
{
name = top;
pos = (138,700);
}
);
attr = {
color = "1";
};
layerId = "33AE93C6-B8B3-427A-A53B-F24970E840CE";
shapes = (
{
attr = {
gradient = {
colors = (
(
(191,255),
0
),
(
(64,255),
1
)
);
end = (0.098,0.0553);
start = (0.8835,0.9295);
};
identifier = ID0x60000019dc00;
};
closed = 1;
nodes = (
(139,840,l),
(177,899,l),
(177,900,l),
(148,900,l),
(118,840,l)
);
},
{
attr = {
gradient = {
colors = (
(
(64,255),
0
),
(
(191,255),
1
)
);
end = (0.5074,0.9658);
start = (0.6091,0.0797);
};
identifier = ID0x7f9cefa204c0;
};
closed = 1;
nodes = (
(77,0,l),
(77,700,l),
(76,700,l),
(53,677,l),
(53,0,l)
);
},
{
attr = {
gradient = {
colors = (
(
(64,255),
0
),
(
(191,255),
1
)
);
end = (0.08,0.5878);
start = (0.8784,0.5375);
};
identifier = ID0x7f9cefa204c0;
};
closed = 1;
nodes = (
(196,353,l),
(196,377,l),
(77,377,l),
(77,353,l)
);
},
{
attr = {
gradient = {
colors = (
(
(64,255),
0
),
(
(191,255),
1
)
);
end = (0.4707,0.0242);
start = (0.5491,0.9419);
};
identifier = ID0x7f9cefa204c0;
};
closed = 1;
nodes = (
(220,0,l),
(220,676,l),
(196,676,l),
(196,0,l)
);
},
{
attr = {
gradient = {
colors = (
(
(64,255),
0
),
(
(191,255),
1
)
);
end = (0.8878,0.5878);
start = (0.0693,0.513);
};
identifier = ID0x7f9cefa204c0;
};
closed = 1;
nodes = (
(220,676,l),
(220,677,l),
(197,700,l),
(77,700,l),
(77,676,l)
);
},
{
attr = {
gradient = {
colors = (
(
(191,255),
0
),
(
(64,255),
1
)
);
end = (0.8878,0.5878);
start = (0.1193,0.7671);
};
identifier = ID0x60000019dce0;
};
closed = 1;
nodes = (
(160,737,l),
(160,758,l),
(94,758,l),
(94,757,l),
(112,737,l)
);
},
{
attr = {
gradient = {
colors = (
(
(64,255),
0
),
(
(191,255),
1
)
);
end = (0.7972,0.8618);
start = (0.4355,0.0498);
};
identifier = ID0x60000019dce0;
};
closed = 1;
nodes = (
(115,758,l),
(115,821,l),
(114,821,l),
(94,803,l),
(94,758,l)
);
},
{
attr = {
gradient = {
colors = (
(
(64,255),
0
),
(
(191,255),
1
)
);
end = (0.1914,0.1245);
start = (0.4192,0.8964);
};
identifier = ID0x60000019dce0;
};
closed = 1;
nodes = (
(161,737,l),
(181,755,l),
(181,800,l),
(160,800,l),
(160,737,l)
);
},
{
attr = {
gradient = {
colors = (
(
(64,255),
0
),
(
(191,255),
1
)
);
end = (0.8685,0.2912);
start = (0.0693,0.513);
};
identifier = ID0x60000019dce0;
};
closed = 1;
nodes = (
(181,800,l),
(181,801,l),
(163,821,l),
(115,821,l),
(115,800,l)
);
}
);
width = 273;
},
{
anchors = (
{
name = bottom;
pos = (462,0);
},
{
name = top;
pos = (486,730);
}
);
attr = {
color = "1";
};
layerId = m003;
shapes = (
{
attr = {
gradient = {
colors = (
(
(191,255),
0
),
(
(64,255),
1
)
);
end = (0.0479,0.095);
start = (0.9467,0.9402);
};
identifier = ID0x600000627aa0;
};
closed = 1;
nodes = (
(509,939,l),
(654,1028,l),
(654,1029,l),
(448,1029,l),
(393,939,l)
);
},
{
attr = {
gradient = {
colors = (
(
(64,255),
0
),
(
(191,255),
1
)
);
end = (0.79,0.8959);
start = (0.4055,0.0144);
};
identifier = ID0x7f9cefa207d0;
};
closed = 1;
nodes = (
(289,0,l),
(289,730,l),
(288,730,l),
(35,523,l),
(35,0,l)
);
},
{
attr = {
gradient = {
colors = (
(
(64,255),
0
),
(
(191,255),
1
)
);
end = (0.0383,0.0895);
start = (0.8943,0.4519);
};
identifier = ID0x7f9cefa207d0;
};
closed = 1;
nodes = (
(638,173,l),
(638,417,l),
(289,417,l),
(289,173,l)
);
},
{
attr = {
gradient = {
colors = (
(
(64,255),
0
),
(
(191,255),
1
)
);
end = (0.4489,0.0368);
start = (0.4192,0.8964);
};
identifier = ID0x7f9cefa207d0;
};
closed = 1;
nodes = (
(892,0,l),
(892,486,l),
(638,486,l),
(638,0,l)
);
},
{
attr = {
gradient = {
colors = (
(
(64,255),
0
),
(
(191,255),
1
)
);
end = (0.8814,0.226);
start = (0.0812,0.4764);
};
identifier = ID0x7f9cefa207d0;
};
closed = 1;
nodes = (
(892,486,l),
(892,487,l),
(690,730,l),
(289,730,l),
(289,486,l)
);
},
{
attr = {
gradient = {
colors = (
(
(191,255),
0
),
(
(64,255),
1
)
);
end = (0.8878,0.5878);
start = (0.0685,0.9017);
};
identifier = ID0x6000006279c0;
};
closed = 1;
nodes = (
(539,751,l),
(539,818,l),
(304,818,l),
(304,817,l),
(364,751,l)
);
},
{
attr = {
gradient = {
colors = (
(
(64,255),
0
),
(
(191,255),
1
)
);
end = (0.9072,0.8304);
start = (0.3309,0.0667);
};
identifier = ID0x6000006279c0;
};
closed = 1;
nodes = (
(385,818,l),
(385,914,l),
(384,914,l),
(304,852,l),
(304,818,l)
);
},
{
attr = {
gradient = {
colors = (
(
(64,255),
0
),
(
(191,255),
1
)
);
end = (0.1392,0.1551);
start = (0.4192,0.8964);
};
identifier = ID0x6000006279c0;
};
closed = 1;
nodes = (
(540,751,l),
(620,807,l),
(620,845,l),
(539,845,l),
(539,751,l)
);
},
{
attr = {
gradient = {
colors = (
(
(64,255),
0
),
(
(191,255),
1
)
);
end = (0.9153,0.2216);
start = (0.0693,0.513);
};
identifier = ID0x6000006279c0;
};
closed = 1;
nodes = (
(620,845,l),
(620,846,l),
(560,914,l),
(385,914,l),
(385,845,l)
);
}
);
width = 907;
}
);
unicode = 506;
},
{
glyphname = Atilde;
kernLeft = A;
kernRight = A;
lastChange = "2022-08-22 22:11:46 +0000";
layers = (
{
anchors = (
{
name = bottom;
pos = (135,0);
},
{
name = top;
pos = (138,700);
}
);
attr = {
color = "1";
};
layerId = "33AE93C6-B8B3-427A-A53B-F24970E840CE";
shapes = (
{
attr = {
gradient = {
colors = (
(
(64,255),
0
),
(
(191,255),
1
)
);
end = (0.5074,0.9658);
start = (0.6091,0.0797);
};
identifier = ID0x7f9cef9d5770;
};
closed = 1;
nodes = (
(77,0,l),
(77,700,l),
(76,700,l),
(53,677,l),
(53,0,l)
);
},
{
attr = {
gradient = {
colors = (
(
(64,255),
0
),
(
(191,255),
1
)
);
end = (0.08,0.5878);
start = (0.8784,0.5375);
};
identifier = ID0x7f9cef9d5770;
};
closed = 1;
nodes = (
(196,353,l),
(196,377,l),
(77,377,l),
(77,353,l)
);
},
{
attr = {
gradient = {
colors = (
(
(64,255),
0
),
(
(191,255),
1
)
);
end = (0.4707,0.0242);
start = (0.5491,0.9419);
};
identifier = ID0x7f9cef9d5770;
};
closed = 1;
nodes = (
(220,0,l),
(220,676,l),
(196,676,l),
(196,0,l)
);
},
{
attr = {
gradient = {
colors = (
(
(64,255),
0
),
(
(191,255),
1
)
);
end = (0.8878,0.5878);
start = (0.0693,0.513);
};
identifier = ID0x7f9cef9d5770;
};
closed = 1;
nodes = (
(220,676,l),
(220,677,l),
(197,700,l),
(77,700,l),
(77,676,l)
);
},
{
attr = {
gradient = {
colors = (
(
(64,255),
0
),
(
(191,255),
1
)
);
end = (0.3482,0.0927);
start = (0.3042,0.7891);
};
identifier = ID0x7f9cef9babc0;
};
closed = 1;
nodes = (
(101,786,l),
(101,838,l),
(77,837,l),
(77,786,l)
);
},
{
attr = {
gradient = {
colors = (
(
(64,255),
0
),
(
(191,255),
1
)
);
end = (0.8068,0.953);
start = (0.1945,0.2743);
};
identifier = ID0x7f9cef9babc0;
};
closed = 1;
nodes = (
(197,795,l),
(197,847,l),
(173,847,l),
(173,795,l)
);
},
{
attr = {
gradient = {
colors = (
(
(191,255),
0
),
(
(64,255),
0.5193
),
(
(191,255),
1
)
);
end = (0.1701,0.9284);
start = (0.8149,0.0572);
};
identifier = ID0x7f9cef9babc0;
};
closed = 1;
nodes = (
(174,785,l),
(196,794,l),
(196,795,l),
(100,847,l),
(99,847,l),
(77,838,l),
(77,837,l),
(173,785,l)
);
}
);
width = 273;
},
{
anchors = (
{
name = bottom;
pos = (462,0);
},
{
name = top;
pos = (486,730);
}
);
attr = {
color = "1";
};
layerId = m003;
shapes = (
{
attr = {
gradient = {
colors = (
(
(64,255),
0
),
(
(191,255),
1
)
);
end = (0.79,0.8959);
start = (0.4055,0.0144);
};
identifier = ID0x7f9cefa20ee0;
};
closed = 1;
nodes = (
(289,0,l),
(289,730,l),
(288,730,l),
(35,523,l),
(35,0,l)
);
},
{
attr = {
gradient = {
colors = (
(
(64,255),
0
),
(
(191,255),
1
)
);
end = (0.0383,0.0895);
start = (0.8943,0.4519);
};
identifier = ID0x7f9cefa20ee0;
};
closed = 1;
nodes = (
(638,173,l),
(638,417,l),
(289,417,l),
(289,173,l)
);
},
{
attr = {
gradient = {
colors = (
(
(64,255),
0
),
(
(191,255),
1
)
);
end = (0.4489,0.0368);
start = (0.4192,0.8964);
};
identifier = ID0x7f9cefa20ee0;
};
closed = 1;
nodes = (
(892,0,l),
(892,486,l),
(638,486,l),
(638,0,l)
);
},
{
attr = {
gradient = {
colors = (
(
(64,255),
0
),
(
(191,255),
1
)
);
end = (0.8814,0.226);
start = (0.0812,0.4764);
};
identifier = ID0x7f9cefa20ee0;
};
closed = 1;
nodes = (
(892,486,l),
(892,487,l),
(690,730,l),
(289,730,l),
(289,486,l)
);
},
{
attr = {
gradient = {
colors = (
(
(64,255),
0
),
(
(191,255),
1
)
);
end = (0.1074,0.0614);
start = (0.0822,0.7526);
};
identifier = ID0x7f9cefa20ff0;
};
closed = 1;
nodes = (
(388,772,l),
(388,864,l),
(248,853,l),
(248,772,l)
);
},
{
attr = {
gradient = {
colors = (
(
(64,255),
0
),
(
(191,255),
1
)
);
end = (0.6184,0.9359);
start = (0.7521,0.2542);
};
identifier = ID0x7f9cefa20ff0;
};
closed = 1;
nodes = (
(716,827,l),
(716,915,l),
(577,915,l),
(577,806,l)
);
},
{
attr = {
gradient = {
colors = (
(
(191,255),
0
),
(
(64,255),
0.47072
),
(
(191,255),
1
)
);
end = (0.3209,0.9503);
start = (0.7223,0.0762);
};
identifier = ID0x7f9cefa20ff0;
};
closed = 1;
nodes = (
(578,756,l),
(716,826,l),
(716,827,l),
(397,923,l),
(386,923,l),
(248,854,l),
(248,853,l),
(567,756,l)
);
}
);
width = 927;
}
);
unicode = 195;
},
{
glyphname = AE;
kernLeft = A;
kernRight = E;
lastChange = "2022-08-22 22:11:46 +0000";
layers = (
{
anchors = (
{
name = top;
pos = (138,700);
}
);
attr = {
color = "1";
};
layerId = "33AE93C6-B8B3-427A-A53B-F24970E840CE";
shapes = (
{
attr = {
gradient = {
colors = (
(
(64,255),
0
),
(
(191,255),
1
)
);
end = (0.5074,0.9658);
start = (0.4884,0.0287);
};
};
closed = 1;
nodes = (
(77,0,l),
(77,700,l),
(76,700,l),
(53,677,l),
(53,0,l)
);
},
{
attr = {
gradient = {
colors = (
(
(64,255),
0
),
(
(191,255),
1
)
);
end = (0.1131,0.4794);
start = (0.8848,0.5435);
};
};
closed = 1;
nodes = (
(196,353,l),
(196,377,l),
(77,377,l),
(77,353,l)
);
},
{
attr = {
gradient = {
colors = (
(
(191,255),
0
),
(
(64,255),
1
)
);
end = (0.1579,0.5878);
start = (0.9155,0.5837);
};
};
closed = 1;
nodes = (
(363,0,l),
(363,24,l),
(196,24,l),
(196,23,l),
(220,0,l)
);
},
{
attr = {
gradient = {
colors = (
(
(64,255),
0
),
(
(191,255),
1
)
);
end = (0.5067,0.0149);
start = (0.5564,0.9658);
};
};
closed = 1;
nodes = (
(220,24,l),
(220,676,l),
(196,676,l),
(196,24,l)
);
},
{
attr = {
gradient = {
colors = (
(
(64,255),
0
),
(
(191,255),
1
)
);
end = (0.8875,0.2428);
start = (0.0693,0.513);
};
};
closed = 1;
nodes = (
(220,676,l),
(220,677,l),
(197,700,l),
(77,700,l),
(77,676,l)
);
},
{
attr = {
gradient = {
colors = (
(
(64,255),
0
),
(
(191,255),
1
)
);
end = (0.8878,0.5878);
start = (0.0693,0.513);
};
};
closed = 1;
nodes = (
(339,353,l),
(339,377,l),
(220,377,l),
(220,353,l)
);
},
{
attr = {
gradient = {
colors = (
(
(64,255),
0
),
(
(191,255),
1
)
);
end = (0.8878,0.5878);
start = (0.0878,0.6802);
};
};
closed = 1;
nodes = (
(340,676,l),
(363,699,l),
(363,700,l),
(197,700,l),
(220,676,l)
);
}
);
width = 383;
},
{
anchors = (
{
name = top;
pos = (486,730);
}
);
attr = {
color = "1";
};
layerId = m003;
shapes = (
{
attr = {
gradient = {
colors = (
(
(64,255),
0
),
(
(191,255),
1
)
);
end = (0.9039,0.9423);
start = (0.6371,0.0178);
};
};
closed = 1;
nodes = (
(289,0,l),
(289,730,l),
(288,730,l),
(35,523,l),
(35,0,l)
);
},
{
attr = {
gradient = {
colors = (
(
(64,255),
0
),
(
(191,255),
1
)
);
end = (0.0383,0.0895);
start = (0.8813,0.0608);
};
};
closed = 1;
nodes = (
(661,173,l),
(598,417,l),
(289,417,l),
(289,173,l)
);
},
{
attr = {
gradient = {
colors = (
(
(191,255),
0
),
(
(64,255),
1
)
);
end = (0.0952,0.8756);
start = (0.9731,0.0568);
};
};
closed = 1;
nodes = (
(1325,0,l),
(1325,244,l),
(598,244,l),
(598,243,l),
(800,0,l)
);
},
{
attr = {
gradient = {
colors = (
(
(64,255),
0
),
(
(191,255),
1
)
);
end = (0.9202,0.0835);
start = (0.0855,0.7853);
};
};
closed = 1;
nodes = (
(852,244,l),
(852,486,l),
(598,486,l),
(598,244,l)
);
},
{
attr = {
gradient = {
colors = (
(
(64,255),
0
),
(
(191,255),
1
)
);
end = (0.713,0.9264);
start = (0.0306,0.307);
};
};
closed = 1;
nodes = (
(852,486,l),
(852,487,l),
(650,730,l),
(289,730,l),
(289,486,l)
);
},
{
attr = {
gradient = {
colors = (
(
(64,255),
0
),
(
(191,255),
1
)
);
end = (0.926,0.8502);
start = (0.0825,0.1006);
};
};
closed = 1;
nodes = (
(1212,263,l),
(1212,467,l),
(852,467,l),
(852,263,l)
);
},
{
attr = {
gradient = {
colors = (
(
(64,255),
0
),
(
(191,255),
1
)
);
end = (0.8585,0.8442);
start = (0.1052,0.5322);
};
};
closed = 1;
nodes = (
(1174,486,l),
(1376,729,l),
(1376,730,l),
(650,730,l),
(852,486,l)
);
}
);
width = 1356;
}
);
metricLeft = A;
metricRight = E;
unicode = 198;
},
{
glyphname = AEacute;
kernLeft = A;
kernRight = E;
lastChange = "2022-08-22 22:11:46 +0000";
layers = (
{
anchors = (
{
name = top;
pos = (138,700);
}
);
attr = {
color = "1";
};
layerId = "33AE93C6-B8B3-427A-A53B-F24970E840CE";
shapes = (
{
attr = {
gradient = {
colors = (
(
(64,255),
0
),
(
(191,255),
1
)
);
end = (0.5074,0.9658);
start = (0.4884,0.0287);
};
identifier = ID0x7f9cefa21b50;
};
closed = 1;
nodes = (
(77,0,l),
(77,700,l),
(76,700,l),
(53,677,l),
(53,0,l)
);
},
{
attr = {
gradient = {
colors = (
(
(64,255),
0
),
(
(191,255),
1
)
);
end = (0.1131,0.4794);
start = (0.8848,0.5435);
};
identifier = ID0x7f9cefa21b50;
};
closed = 1;
nodes = (
(196,353,l),
(196,377,l),
(77,377,l),
(77,353,l)
);
},
{
attr = {
gradient = {
colors = (
(
(191,255),
0
),
(
(64,255),
1
)
);
end = (0.1579,0.5878);
start = (0.9155,0.5837);
};
identifier = ID0x7f9cefa21b50;
};
closed = 1;
nodes = (
(363,0,l),
(363,24,l),
(196,24,l),
(196,23,l),
(220,0,l)
);
},
{
attr = {
gradient = {
colors = (
(
(64,255),
0
),
(
(191,255),
1
)
);
end = (0.5067,0.0149);
start = (0.5564,0.9658);
};
identifier = ID0x7f9cefa21b50;
};
closed = 1;
nodes = (
(220,24,l),
(220,676,l),
(196,676,l),
(196,24,l)
);
},
{
attr = {
gradient = {
colors = (
(
(64,255),
0
),
(
(191,255),
1
)
);
end = (0.8875,0.2428);
start = (0.0693,0.513);
};
identifier = ID0x7f9cefa21b50;
};
closed = 1;
nodes = (
(220,676,l),
(220,677,l),
(197,700,l),
(77,700,l),
(77,676,l)
);
},
{
attr = {
gradient = {
colors = (
(
(64,255),
0
),
(
(191,255),
1
)
);
end = (0.8878,0.5878);
start = (0.0693,0.513);
};
identifier = ID0x7f9cefa21b50;
};
closed = 1;
nodes = (
(339,353,l),
(339,377,l),
(220,377,l),
(220,353,l)
);
},
{
attr = {
gradient = {
colors = (
(
(64,255),
0
),
(
(191,255),
1
)
);
end = (0.8878,0.5878);
start = (0.0878,0.6802);
};
identifier = ID0x7f9cefa21b50;
};
closed = 1;
nodes = (
(340,676,l),
(363,699,l),
(363,700,l),
(197,700,l),
(220,676,l)
);
},
{
attr = {
gradient = {
colors = (
(
(191,255),
0
),
(
(64,255),
1
)
);
end = (0.8295,0.9141);
start = (0.1608,0.0873);
};
identifier = ID0x7f9cefa21c60;
};
closed = 1;
nodes = (
(144,735,l),
(171,854,l),
(171,855,l),
(140,855,l),
(120,735,l)
);
}
);
width = 383;
},
{
anchors = (
{
name = top;
pos = (486,730);
}
);
attr = {
color = "1";
};
layerId = m003;
shapes = (
{
attr = {
gradient = {
colors = (
(
(64,255),
0
),
(
(191,255),
1
)
);
end = (0.9039,0.9423);
start = (0.6371,0.0178);
};
identifier = ID0x7f9cefa21f70;
};
closed = 1;
nodes = (
(289,0,l),
(289,730,l),
(288,730,l),
(35,523,l),
(35,0,l)
);
},
{
attr = {
gradient = {
colors = (
(
(64,255),
0
),
(
(191,255),
1
)
);
end = (0.0383,0.0895);
start = (0.8813,0.0608);
};
identifier = ID0x7f9cefa21f70;
};
closed = 1;
nodes = (
(661,173,l),
(598,417,l),
(289,417,l),
(289,173,l)
);
},
{
attr = {
gradient = {
colors = (
(
(191,255),
0
),
(
(64,255),
1
)
);
end = (0.0952,0.8756);
start = (0.9731,0.0568);
};
identifier = ID0x7f9cefa21f70;
};
closed = 1;
nodes = (
(1325,0,l),
(1325,244,l),
(598,244,l),
(598,243,l),
(800,0,l)
);
},
{
attr = {
gradient = {
colors = (
(
(64,255),
0
),
(
(191,255),
1
)
);
end = (0.9202,0.0835);
start = (0.0855,0.7853);
};
identifier = ID0x7f9cefa21f70;
};
closed = 1;
nodes = (
(852,244,l),
(852,486,l),
(598,486,l),
(598,244,l)
);
},
{
attr = {
gradient = {
colors = (
(
(64,255),
0
),
(
(191,255),
1
)
);
end = (0.713,0.9264);
start = (0.0306,0.307);
};
identifier = ID0x7f9cefa21f70;
};
closed = 1;
nodes = (
(852,486,l),
(852,487,l),
(650,730,l),
(289,730,l),
(289,486,l)
);
},
{
attr = {
gradient = {
colors = (
(
(64,255),
0
),
(
(191,255),
1
)
);
end = (0.926,0.8502);
start = (0.0825,0.1006);
};
identifier = ID0x7f9cefa21f70;
};
closed = 1;
nodes = (
(1212,263,l),
(1212,467,l),
(852,467,l),
(852,263,l)
);
},
{
attr = {
gradient = {
colors = (
(
(64,255),
0
),
(
(191,255),
1
)
);
end = (0.8585,0.8442);
start = (0.1052,0.5322);
};
identifier = ID0x7f9cefa21f70;
};
closed = 1;
nodes = (
(1174,486,l),
(1376,729,l),
(1376,730,l),
(650,730,l),
(852,486,l)
);
},
{
attr = {
gradient = {
colors = (
(
(191,255),
0
),
(
(64,255),
1
)
);
end = (0.8428,0.923);
start = (0.0434,0.0801);
};
identifier = ID0x7f9cefa22080;
};
closed = 1;
nodes = (
(548,760,l),
(663,899,l),
(663,900,l),
(417,900,l),
(382,760,l)
);
}
);
width = 1356;
}
);
unicode = 508;
},
{
glyphname = B;
kernLeft = H;
kernRight = B;
lastChange = "2022-08-22 22:11:46 +0000";
layers = (
{
attr = {
color = "1";
};
layerId = "33AE93C6-B8B3-427A-A53B-F24970E840CE";
shapes = (
{
attr = {
gradient = {
colors = (
(
(64,255),
0
),
(
(128,255),
1
)
);
end = (0.7785,0.8588);
start = (0.0992,0.2024);
};
};
closed = 1;
nodes = (
(152,676,l),
(152,700,l),
(77,700,l),
(77,676,l)
);
},
{
attr = {
gradient = {
colors = (
(
(64,255),
0
),
(
(191,255),
1
)
);
end = (0.0372,0.5775);
start = (0.9225,0.2287);
};
};
closed = 1;
nodes = (
(226,0,l),
(226,24,l),
(53,24,l),
(53,0,l)
);
},
{
attr = {
gradient = {
colors = (
(
(64,255),
0
),
(
(191,255),
1
)
);
end = (0.4877,0.9217);
start = (0.6258,0.0095);
};
};
closed = 1;
nodes = (
(77,24,l),
(77,700,l),
(53,700,l),
(53,24,l)
);
},
{
attr = {
gradient = {
colors = (
(
(191,255),
0
),
(
(64,255),
1
)
);
end = (0.5152,0.0336);
start = (0.4447,0.6672);
};
};
closed = 1;
nodes = (
(176,677,l),
(153,700,l),
(152,700,l),
(152,377,l),
(166,377,l),
(176,377,l)
);
},
{
attr = {
gradient = {
colors = (
(
(64,255),
0
),
(
(191,255),
1
)
);
end = (0.2671,0.5486);
start = (0.937,0.3463);
};
};
closed = 1;
nodes = (
(226,353,l),
(226,377,l),
(152,377,l),
(54,377,l),
(77,353,l)
);
},
{
attr = {
gradient = {
colors = (
(
(191,255),
0
),
(
(64,255),
1
)
);
end = (0.5245,0.827);
start = (0.2492,0.0773);
};
};
closed = 1;
nodes = (
(227,0,l),
(250,23,l),
(250,354,l),
(227,377,l),
(226,377,l),
(226,0,l)
);
}
);
width = 283;
},
{
attr = {
color = "1";
};
layerId = m003;
shapes = (
{
attr = {
gradient = {
colors = (
(
(64,255),
0
),
(
(128,255),
1
)
);
end = (0.478,0.9186);
start = (0.4393,0.0388);
};
};
closed = 1;
nodes = (
(584,486,l),
(584,730,l),
(289,730,l),
(289,486,l)
);
},
{
attr = {
gradient = {
colors = (
(
(64,255),
0
),
(
(191,255),
1
)
);
end = (0.033,0.9134);
start = (0.9541,0.1381);
};
};
closed = 1;
nodes = (
(738,0,l),
(738,244,l),
(35,244,l),
(35,0,l)
);
},
{
attr = {
gradient = {
colors = (
(
(64,255),
0
),
(
(191,255),
1
)
);
end = (0.4877,0.9217);
start = (0.8204,0.0543);
};
};
closed = 1;
nodes = (
(289,244,l),
(289,730,l),
(35,730,l),
(35,244,l)
);
},
{
attr = {
gradient = {
colors = (
(
(191,255),
0
),
(
(64,255),
1
)
);
end = (0.1105,0.2981);
start = (0.4063,0.7233);
};
};
closed = 1;
nodes = (
(858,533,l),
(585,730,l),
(584,730,l),
(584,467,l),
(739,467,l),
(858,376,l)
);
},
{
attr = {
gradient = {
colors = (
(
(64,255),
0
),
(
(191,255),
1
)
);
end = (0.2023,0.9106);
start = (0.903,0.2412);
};
};
closed = 1;
nodes = (
(738,263,l),
(738,467,l),
(584,467,l),
(584,466,l),
(737,263,l)
);
},
{
attr = {
gradient = {
colors = (
(
(191,255),
0
),
(
(64,255),
1
)
);
end = (0.8951,0.576);
start = (0.0689,0.4017);
};
};
closed = 1;
nodes = (
(739,0,l),
(992,193,l),
(992,274,l),
(739,467,l),
(738,467,l),
(738,0,l)
);
}
);
width = 992;
}
);
unicode = 66;
},
{
glyphname = C;
kernLeft = O;
lastChange = "2022-08-22 22:11:46 +0000";
layers = (
{
anchors = (
{
name = bottom;
pos = (140,0);
},
{
name = top;
pos = (138,700);
}
);
attr = {
color = "1";
};
layerId = "33AE93C6-B8B3-427A-A53B-F24970E840CE";
shapes = (
{
attr = {
gradient = {
colors = (
(
(191,255),
0
),
(
(64,255),
1
)
);
end = (0.9394,0.7375);
start = (0.0907,0.6919);
};
};
closed = 1;
nodes = (
(197,0,l),
(220,23,l),
(220,24,l),
(53,24,l),
(53,23,l),
(76,0,l)
);
},
{
attr = {
gradient = {
colors = (
(
(64,255),
0
),
(
(191,255),
1
)
);
end = (0.4877,0.9217);
start = (0.3885,0.0091);
};
};
closed = 1;
nodes = (
(77,24,l),
(77,700,l),
(76,700,l),
(53,677,l),
(53,24,l)
);
},
{
attr = {
gradient = {
colors = (
(
(64,255),
0
),
(
(191,255),
1
)
);
end = (0.8878,0.5878);
start = (0.0693,0.513);
};
};
closed = 1;
nodes = (
(220,676,l),
(220,677,l),
(197,700,l),
(77,700,l),
(77,676,l)
);
}
);
width = 235;
},
{
anchors = (
{
name = bottom;
pos = (482,0);
},
{
name = top;
pos = (476,730);
}
);
attr = {
color = "1";
};
layerId = m003;
shapes = (
{
attr = {
gradient = {
colors = (
(
(191,255),
0
),
(
(64,255),
1
)
);
end = (0.8878,0.5878);
start = (0.0935,0.7984);
};
};
closed = 1;
nodes = (
(660,0,l),
(862,243,l),
(862,244,l),
(25,244,l),
(25,243,l),
(227,0,l)
);
},
{
attr = {
gradient = {
colors = (
(
(64,255),
0
),
(
(191,255),
1
)
);
end = (0.8939,0.8988);
start = (0.3814,0.045);
};
};
closed = 1;
nodes = (
(279,244,l),
(279,730,l),
(278,730,l),
(25,523,l),
(25,244,l)
);
},
{
attr = {
gradient = {
colors = (
(
(64,255),
0
),
(
(191,255),
1
)
);
end = (0.8774,0.2729);
start = (0.0693,0.513);
};
};
closed = 1;
nodes = (
(862,486,l),
(862,487,l),
(660,730,l),
(279,730,l),
(279,486,l)
);
}
);
width = 862;
}
);
unicode = 67;
},
{
glyphname = Cacute;
kernLeft = O;
kernRight = C;
lastChange = "2022-08-22 22:11:46 +0000";
layers = (
{
anchors = (
{
name = bottom;
pos = (140,0);
},
{
name = top;
pos = (138,700);
}
);
attr = {
color = "1";
};
layerId = "33AE93C6-B8B3-427A-A53B-F24970E840CE";
shapes = (
{
attr = {
gradient = {
colors = (
(
(191,255),
0
),
(
(64,255),
1
)
);
end = (0.9394,0.7375);
start = (0.0907,0.6919);
};
identifier = ID0x7f9cefa23010;
};
closed = 1;
nodes = (
(197,0,l),
(220,23,l),
(220,24,l),
(53,24,l),
(53,23,l),
(76,0,l)
);
},
{
attr = {
gradient = {
colors = (
(
(64,255),
0
),
(
(191,255),
1
)
);
end = (0.4877,0.9217);
start = (0.3885,0.0091);
};
identifier = ID0x7f9cefa23010;
};
closed = 1;
nodes = (
(77,24,l),
(77,700,l),
(76,700,l),
(53,677,l),
(53,24,l)
);
},
{
attr = {
gradient = {
colors = (
(
(64,255),
0
),
(
(191,255),
1
)
);
end = (0.8878,0.5878);
start = (0.0693,0.513);
};
identifier = ID0x7f9cefa23010;
};
closed = 1;
nodes = (
(220,676,l),
(220,677,l),
(197,700,l),
(77,700,l),
(77,676,l)
);
},
{
attr = {
gradient = {
colors = (
(
(191,255),
0
),
(
(64,255),
1
)
);
end = (0.8295,0.9141);
start = (0.1608,0.0873);
};
identifier = ID0x7f9cefa23120;
};
closed = 1;
nodes = (
(144,735,l),
(171,854,l),
(171,855,l),
(140,855,l),
(120,735,l)
);
}
);
width = 235;
},
{
anchors = (
{
name = bottom;
pos = (482,0);
},
{
name = top;
pos = (476,730);
}
);
attr = {
color = "1";
};
layerId = m003;
shapes = (
{
attr = {
gradient = {
colors = (
(
(191,255),
0
),
(
(64,255),
1
)
);
end = (0.8878,0.5878);
start = (0.0935,0.7984);
};
identifier = ID0x7f9cefa23430;
};
closed = 1;
nodes = (
(660,0,l),
(862,243,l),
(862,244,l),
(25,244,l),
(25,243,l),
(227,0,l)
);
},
{
attr = {
gradient = {
colors = (
(
(64,255),
0
),
(
(191,255),
1
)
);
end = (0.8939,0.8988);
start = (0.3814,0.045);
};
identifier = ID0x7f9cefa23430;
};
closed = 1;
nodes = (
(279,244,l),
(279,730,l),
(278,730,l),
(25,523,l),
(25,244,l)
);
},
{
attr = {
gradient = {
colors = (
(
(64,255),
0
),
(
(191,255),
1
)
);
end = (0.8774,0.2729);
start = (0.0693,0.513);
};
identifier = ID0x7f9cefa23430;
};
closed = 1;
nodes = (
(862,486,l),
(862,487,l),
(660,730,l),
(279,730,l),
(279,486,l)
);
},
{
attr = {
gradient = {
colors = (
(
(191,255),
0
),
(
(64,255),
1
)
);
end = (0.8428,0.923);
start = (0.0434,0.0801);
};
identifier = ID0x7f9cefa23540;
};
closed = 1;
nodes = (
(538,760,l),
(653,899,l),
(653,900,l),
(407,900,l),
(372,760,l)
);
}
);
width = 862;
}
);
unicode = 262;
},
{
glyphname = Ccaron;
kernLeft = O;
kernRight = C;
lastChange = "2022-08-22 22:11:46 +0000";
layers = (
{
anchors = (
{
name = bottom;
pos = (140,0);
},
{
name = top;
pos = (138,700);
}
);
attr = {
color = "1";
};
layerId = "33AE93C6-B8B3-427A-A53B-F24970E840CE";
shapes = (
{
attr = {
gradient = {
colors = (
(
(191,255),
0
),
(
(64,255),
1
)
);
end = (0.9394,0.7375);
start = (0.0907,0.6919);
};
identifier = ID0x7f9cefa043c0;
};
closed = 1;
nodes = (
(197,0,l),
(220,23,l),
(220,24,l),
(53,24,l),
(53,23,l),
(76,0,l)
);
},
{
attr = {
gradient = {
colors = (
(
(64,255),
0
),
(
(191,255),
1
)
);
end = (0.4877,0.9217);
start = (0.3885,0.0091);
};
identifier = ID0x7f9cefa043c0;
};
closed = 1;
nodes = (
(77,24,l),
(77,700,l),
(76,700,l),
(53,677,l),
(53,24,l)
);
},
{
attr = {
gradient = {
colors = (
(
(64,255),
0
),
(
(191,255),
1
)
);
end = (0.8878,0.5878);
start = (0.0693,0.513);
};
identifier = ID0x7f9cefa043c0;
};
closed = 1;
nodes = (
(220,676,l),
(220,677,l),
(197,700,l),
(77,700,l),
(77,676,l)
);
},
{
attr = {
gradient = {
colors = (
(
(191,255),
0
),
(
(64,255),
1
)
);
end = (0.6919,0.095);
start = (0.1777,0.9503);
};
identifier = ID0x7f9cefa044d0;
};
closed = 1;
nodes = (
(149,750,l),
(105,840,l),
(81,840,l),
(81,839,l),
(125,750,l)
);
},
{
attr = {
gradient = {
colors = (
(
(64,255),
0
),
(
(191,255),
1
)
);
end = (0.1367,0.051);
start = (0.8716,0.9453);
};
identifier = ID0x7f9cefa044d0;
};
closed = 1;
nodes = (
(149,750,l),
(195,839,l),
(195,840,l),
(171,840,l),
(126,750,l)
);
}
);
width = 235;
},
{
anchors = (
{
name = bottom;
pos = (482,0);
},
{
name = top;
pos = (476,730);
}
);
attr = {
color = "1";
};
layerId = m003;
shapes = (
{
attr = {
gradient = {
colors = (
(
(191,255),
0
),
(
(64,255),
1
)
);
end = (0.8878,0.5878);
start = (0.0935,0.7984);
};
identifier = ID0x7f9cefa047e0;
};
closed = 1;
nodes = (
(660,0,l),
(862,243,l),
(862,244,l),
(25,244,l),
(25,243,l),
(227,0,l)
);
},
{
attr = {
gradient = {
colors = (
(
(64,255),
0
),
(
(191,255),
1
)
);
end = (0.8939,0.8988);
start = (0.3814,0.045);
};
identifier = ID0x7f9cefa047e0;
};
closed = 1;
nodes = (
(279,244,l),
(279,730,l),
(278,730,l),
(25,523,l),
(25,244,l)
);
},
{
attr = {
gradient = {
colors = (
(
(64,255),
0
),
(
(191,255),
1
)
);
end = (0.8774,0.2729);
start = (0.0693,0.513);
};
identifier = ID0x7f9cefa047e0;
};
closed = 1;
nodes = (
(862,486,l),
(862,487,l),
(660,730,l),
(279,730,l),
(279,486,l)
);
},
{
attr = {
gradient = {
colors = (
(
(191,255),
0
),
(
(64,255),
1
)
);
end = (0.7695,0.5176);
start = (0.0969,0.9365);
};
identifier = ID0x7f9cefa048f0;
};
closed = 1;
nodes = (
(545,793,l),
(401,900,l),
(224,900,l),
(224,899,l),
(392,760,l)
);
},
{
attr = {
gradient = {
colors = (
(
(64,255),
0
),
(
(191,255),
1
)
);
end = (0.0646,0.0508);
start = (0.9221,0.9501);
};
identifier = ID0x7f9cefa048f0;
};
closed = 1;
nodes = (
(566,760,l),
(730,899,l),
(730,900,l),
(556,900,l),
(392,760,l)
);
}
);
width = 862;
}
);
unicode = 268;
},
{
glyphname = Ccedilla;
kernLeft = O;
kernRight = C;
lastChange = "2022-08-22 22:11:46 +0000";
layers = (
{
anchors = (
{
name = bottom;
pos = (140,0);
},
{
name = top;
pos = (138,700);
}
);
attr = {
color = "1";
};
layerId = "33AE93C6-B8B3-427A-A53B-F24970E840CE";
shapes = (
{
attr = {
gradient = {
colors = (
(
(191,255),
0
),
(
(64,255),
1
)
);
end = (0.9394,0.7375);
start = (0.0907,0.6919);
};
identifier = ID0x7f9cefa04d80;
};
closed = 1;
nodes = (
(197,0,l),
(220,23,l),
(220,24,l),
(53,24,l),
(53,23,l),
(76,0,l)
);
},
{
attr = {
gradient = {
colors = (
(
(64,255),
0
),
(
(191,255),
1
)
);
end = (0.4877,0.9217);
start = (0.3885,0.0091);
};
identifier = ID0x7f9cefa04d80;
};
closed = 1;
nodes = (
(77,24,l),
(77,700,l),
(76,700,l),
(53,677,l),
(53,24,l)
);
},
{
attr = {
gradient = {
colors = (
(
(64,255),
0
),
(
(191,255),
1
)
);
end = (0.8878,0.5878);
start = (0.0693,0.513);
};
identifier = ID0x7f9cefa04d80;
};
closed = 1;
nodes = (
(220,676,l),
(220,677,l),
(197,700,l),
(77,700,l),
(77,676,l)
);
},
{
attr = {
gradient = {
colors = (
(
(64,255),
0
),
(
(191,255),
1
)
);
end = (0.5836,0.6474);
start = (0.1071,0.1963);
};
identifier = ID0x7f9cefa04e90;
};
closed = 1;
nodes = (
(171,-44,l),
(171,-43,l),
(153,-25,l),
(136,-25,l),
(136,-44,l)
);
},
{
attr = {
gradient = {
colors = (
(
(64,255),
0
),
(
(191,255),
1
)
);
end = (0.5284,0.9233);
start = (0.0909,0.0594);
};
identifier = ID0x7f9cefa04e90;
};
closed = 1;
nodes = (
(136,-44,l),
(151,-1,l),
(151,0,l),
(127,0,l),
(115,-43,l),
(115,-44,l)
);
},
{
attr = {
gradient = {
colors = (
(
(191,255),
0
),
(
(64,255),
1
)
);
end = (0.9307,0.2251);
start = (0.3311,0.8227);
};
identifier = ID0x7f9cefa04e90;
};
closed = 1;
nodes = (
(150,-109,l),
(150,-90,l),
(100,-90,l),
(100,-91,l),
(118,-109,l)
);
},
{
attr = {
gradient = {
colors = (
(
(64,255),
0
),
(
(191,255),
1
)
);
end = (0.1243,0.237);
start = (0.7667,0.939);
};
identifier = ID0x7f9cefa04e90;
};
closed = 1;
nodes = (
(151,-109,l),
(171,-91,l),
(171,-44,l),
(150,-44,l),
(150,-109,l)
);
}
);
width = 235;
},
{
anchors = (
{
name = bottom;
pos = (482,0);
},
{
name = top;
pos = (476,730);
}
);
attr = {
color = "1";
};
layerId = m003;
shapes = (
{
attr = {
gradient = {
colors = (
(
(191,255),
0
),
(
(64,255),
1
)
);
end = (0.8878,0.5878);
start = (0.0935,0.7984);
};
identifier = ID0x7f9cefa051a0;
};
closed = 1;
nodes = (
(660,0,l),
(862,243,l),
(862,244,l),
(25,244,l),
(25,243,l),
(227,0,l)
);
},
{
attr = {
gradient = {
colors = (
(
(64,255),
0
),
(
(191,255),
1
)
);
end = (0.8939,0.8988);
start = (0.3814,0.045);
};
identifier = ID0x7f9cefa051a0;
};
closed = 1;
nodes = (
(279,244,l),
(279,730,l),
(278,730,l),
(25,523,l),
(25,244,l)
);
},
{
attr = {
gradient = {
colors = (
(
(64,255),
0
),
(
(191,255),
1
)
);
end = (0.8774,0.2729);
start = (0.0693,0.513);
};
identifier = ID0x7f9cefa051a0;
};
closed = 1;
nodes = (
(862,486,l),
(862,487,l),
(660,730,l),
(279,730,l),
(279,486,l)
);
},
{
attr = {
gradient = {
colors = (
(
(64,255),
0
),
(
(191,255),
1
)
);
end = (0.7233,0.4038);
start = (0.1103,0.1271);
};
identifier = ID0x7f9cefa052b0;
};
closed = 1;
nodes = (
(611,-126,l),
(611,-125,l),
(541,-32,l),
(487,-32,l),
(451,-126,l)
);
},
{
attr = {
gradient = {
colors = (
(
(64,255),
0
),
(
(191,255),
1
)
);
end = (0.5715,0.9395);
start = (0.2597,0.0869);
};
identifier = ID0x7f9cefa052b0;
};
closed = 1;
nodes = (
(451,-126,l),
(527,-1,l),
(527,0,l),
(412,0,l),
(335,-125,l),
(335,-126,l)
);
},
{
attr = {
gradient = {
colors = (
(
(191,255),
0
),
(
(64,255),
1
)
);
end = (0.9584,0.2081);
start = (0.3367,0.7956);
};
identifier = ID0x7f9cefa052b0;
};
closed = 1;
nodes = (
(503,-260,l),
(503,-168,l),
(285,-168,l),
(285,-169,l),
(345,-260,l)
);
},
{
attr = {
gradient = {
colors = (
(
(64,255),
0
),
(
(191,255),
1
)
);
end = (0.175,0.1703);
start = (0.4192,0.8964);
};
identifier = ID0x7f9cefa052b0;
};
closed = 1;
nodes = (
(504,-260,l),
(611,-204,l),
(611,-126,l),
(503,-126,l),
(503,-260,l)
);
}
);
width = 862;
}
);
unicode = 199;
},
{
glyphname = Ccircumflex;
kernLeft = O;
kernRight = C;
lastChange = "2022-08-22 22:11:46 +0000";
layers = (
{
anchors = (
{
name = bottom;
pos = (140,0);
},
{
name = top;
pos = (138,700);
}
);
attr = {
color = "1";
};
layerId = "33AE93C6-B8B3-427A-A53B-F24970E840CE";
shapes = (
{
attr = {
gradient = {
colors = (
(
(191,255),
0
),
(
(64,255),
1
)
);
end = (0.9394,0.7375);
start = (0.0907,0.6919);
};
identifier = ID0x7f9cefa05740;
};
closed = 1;
nodes = (
(197,0,l),
(220,23,l),
(220,24,l),
(53,24,l),
(53,23,l),
(76,0,l)
);
},
{
attr = {
gradient = {
colors = (
(
(64,255),
0
),
(
(191,255),
1
)
);
end = (0.4877,0.9217);
start = (0.3885,0.0091);
};
identifier = ID0x7f9cefa05740;
};
closed = 1;
nodes = (
(77,24,l),
(77,700,l),
(76,700,l),
(53,677,l),
(53,24,l)
);
},
{
attr = {
gradient = {
colors = (
(
(64,255),
0
),
(
(191,255),
1
)
);
end = (0.8878,0.5878);
start = (0.0693,0.513);
};
identifier = ID0x7f9cefa05740;
};
closed = 1;
nodes = (
(220,676,l),
(220,677,l),
(197,700,l),
(77,700,l),
(77,676,l)
);
},
{
attr = {
gradient = {
colors = (
(
(191,255),
0
),
(
(64,255),
1
)
);
end = (0.3436,0.9317);
start = (0.8521,0.1516);
};
identifier = ID0x7f9cefa05850;
};
closed = 1;
nodes = (
(192,760,l),
(192,761,l),
(148,850,l),
(124,850,l),
(168,760,l)
);
},
{
attr = {
gradient = {
colors = (
(
(64,255),
0
),
(
(191,255),
1
)
);
end = (0.9007,0.953);
start = (0.117,0.0327);
};
identifier = ID0x7f9cefa05850;
};
closed = 1;
nodes = (
(102,760,l),
(147,850,l),
(124,850,l),
(78,761,l),
(78,760,l)
);
}
);
width = 235;
},
{
anchors = (
{
name = bottom;
pos = (482,0);
},
{
name = top;
pos = (476,730);
}
);
attr = {
color = "1";
};
layerId = m003;
shapes = (
{
attr = {
gradient = {
colors = (
(
(191,255),
0
),
(
(64,255),
1
)
);
end = (0.8878,0.5878);
start = (0.0935,0.7984);
};
identifier = ID0x7f9cefa05b60;
};
closed = 1;
nodes = (
(660,0,l),
(862,243,l),
(862,244,l),
(25,244,l),
(25,243,l),
(227,0,l)
);
},
{
attr = {
gradient = {
colors = (
(
(64,255),
0
),
(
(191,255),
1
)
);
end = (0.8939,0.8988);
start = (0.3814,0.045);
};
identifier = ID0x7f9cefa05b60;
};
closed = 1;
nodes = (
(279,244,l),
(279,730,l),
(278,730,l),
(25,523,l),
(25,244,l)
);
},
{
attr = {
gradient = {
colors = (
(
(64,255),
0
),
(
(191,255),
1
)
);
end = (0.8774,0.2729);
start = (0.0693,0.513);
};
identifier = ID0x7f9cefa05b60;
};
closed = 1;
nodes = (
(862,486,l),
(862,487,l),
(660,730,l),
(279,730,l),
(279,486,l)
);
},
{
attr = {
gradient = {
colors = (
(
(191,255),
0
),
(
(64,255),
1
)
);
end = (0.4452,0.9278);
start = (0.782,0.2138);
};
identifier = ID0x7f9cefa05c70;
};
closed = 1;
nodes = (
(736,760,l),
(736,761,l),
(568,900,l),
(415,867,l),
(559,760,l)
);
},
{
attr = {
gradient = {
colors = (
(
(64,255),
0
),
(
(191,255),
1
)
);
end = (0.6568,0.9502);
start = (0.2244,0.068);
};
identifier = ID0x7f9cefa05c70;
};
closed = 1;
nodes = (
(404,760,l),
(568,900,l),
(384,900,l),
(230,761,l),
(230,760,l)
);
}
);
width = 862;
}
);
unicode = 264;
},
{
glyphname = Cdotaccent;
kernLeft = O;
kernRight = C;
lastChange = "2022-08-22 22:11:46 +0000";
layers = (
{
anchors = (
{
name = bottom;
pos = (140,0);
},
{
name = top;
pos = (138,800);
}
);
attr = {
color = "1";
};
layerId = "33AE93C6-B8B3-427A-A53B-F24970E840CE";
shapes = (
{
attr = {
gradient = {
colors = (
(
(191,255),
0
),
(
(64,255),
1
)
);
end = (0.9394,0.7375);
start = (0.0907,0.6919);
};
identifier = ID0x7f9cefa06100;
};
closed = 1;
nodes = (
(197,0,l),
(220,23,l),
(220,24,l),
(53,24,l),
(53,23,l),
(76,0,l)
);
},
{
attr = {
gradient = {
colors = (
(
(64,255),
0
),
(
(191,255),
1
)
);
end = (0.4877,0.9217);
start = (0.3885,0.0091);
};
identifier = ID0x7f9cefa06100;
};
closed = 1;
nodes = (
(77,24,l),
(77,700,l),
(76,700,l),
(53,677,l),
(53,24,l)
);
},
{
attr = {
gradient = {
colors = (
(
(64,255),
0
),
(
(191,255),
1
)
);
end = (0.8878,0.5878);
start = (0.0693,0.513);
};
identifier = ID0x7f9cefa06100;
};
closed = 1;
nodes = (
(220,676,l),
(220,677,l),
(197,700,l),
(77,700,l),
(77,676,l)
);
},
{
attr = {
gradient = {
colors = (
(
(191,255),
0
),
(
(64,255),
1
)
);
end = (0.8542,0.1311);
start = (0.0734,0.8956);
};
identifier = ID0x7f9cefa06210;
};
closed = 1;
nodes = (
(153,811,l),
(153,845,l),
(123,845,l),
(123,811,l)
);
}
);
width = 235;
},
{
anchors = (
{
name = bottom;
pos = (482,0);
},
{
name = top;
pos = (476,900);
}
);
attr = {
color = "1";
};
layerId = m003;
shapes = (
{
attr = {
gradient = {
colors = (
(
(191,255),
0
),
(
(64,255),
1
)
);
end = (0.8878,0.5878);
start = (0.0935,0.7984);
};
identifier = ID0x7f9cefa06520;
};
closed = 1;
nodes = (
(660,0,l),
(862,243,l),
(862,244,l),
(25,244,l),
(25,243,l),
(227,0,l)
);
},
{
attr = {
gradient = {
colors = (
(
(64,255),
0
),
(
(191,255),
1
)
);
end = (0.8939,0.8988);
start = (0.3814,0.045);
};
identifier = ID0x7f9cefa06520;
};
closed = 1;
nodes = (
(279,244,l),
(279,730,l),
(278,730,l),
(25,523,l),
(25,244,l)
);
},
{
attr = {
gradient = {
colors = (
(
(64,255),
0
),
(
(191,255),
1
)
);
end = (0.8774,0.2729);
start = (0.0693,0.513);
};
identifier = ID0x7f9cefa06520;
};
closed = 1;
nodes = (
(862,486,l),
(862,487,l),
(660,730,l),
(279,730,l),
(279,486,l)
);
},
{
attr = {
gradient = {
colors = (
(
(191,255),
0
),
(
(64,255),
1
)
);
end = (0.9396,0.1051);
start = (0.0907,0.9221);
};
identifier = ID0x7f9cefa06630;
};
closed = 1;
nodes = (
(564,768,l),
(564,900,l),
(388,900,l),
(388,768,l)
);
}
);
width = 862;
}
);
unicode = 266;
},
{
glyphname = D;
kernRight = O;
lastChange = "2022-08-22 22:11:46 +0000";
layers = (
{
anchors = (
{
name = stroke;
pos = (65,365);
},
{
name = top;
pos = (138,700);
}
);
attr = {
color = "1";
};
layerId = "33AE93C6-B8B3-427A-A53B-F24970E840CE";
shapes = (
{
attr = {
gradient = {
colors = (
(
(64,255),
0
),
(
(191,255),
1
)
);
end = (0.8613,0.3327);
start = (0.0949,0.4208);
};
};
closed = 1;
nodes = (
(222,676,l),
(222,677,l),
(199,700,l),
(77,700,l),
(77,676,l)
);
},
{
attr = {
gradient = {
colors = (
(
(191,255),
0
),
(
(64,255),
1
)
);
end = (0.8878,0.5878);
start = (0.0693,0.513);
};
};
closed = 1;
nodes = (
(198,0,l),
(198,24,l),
(53,24,l),
(53,0,l)
);
},
{
attr = {
gradient = {
colors = (
(
(64,255),
0
),
(
(191,255),
1
)
);
end = (0.4877,0.9217);
start = (0.3995,0.0139);
};
};
closed = 1;
nodes = (
(77,24,l),
(77,700,l),
(53,700,l),
(53,24,l)
);
},
{
attr = {
gradient = {
colors = (
(
(64,255),
0
),
(
(191,255),
1
)
);
end = (0.4056,0.1204);
start = (0.4192,0.8964);
};
};
closed = 1;
nodes = (
(199,0,l),
(222,23,l),
(222,676,l),
(198,676,l),
(198,0,l)
);
}
);
width = 275;
},
{
anchors = (
{
name = stroke;
pos = (166,361);
},
{
name = top;
pos = (476,730);
}
);
attr = {
color = "1";
};
layerId = m003;
shapes = (
{
attr = {
gradient = {
colors = (
(
(64,255),
0
),
(
(191,255),
1
)
);
end = (0.8183,0.4624);
start = (0.0693,0.513);
};
};
closed = 1;
nodes = (
(922,486,l),
(922,487,l),
(720,730,l),
(289,730,l),
(289,486,l)
);
},
{
attr = {
gradient = {
colors = (
(
(191,255),
0
),
(
(64,255),
1
)
);
end = (0.8878,0.5878);
start = (0.0693,0.513);
};
};
closed = 1;
nodes = (
(668,-4,l),
(668,240,l),
(35,240,l),
(35,-4,l)
);
},
{
attr = {
gradient = {
colors = (
(
(64,255),
0
),
(
(191,255),
1
)
);
end = (0.4877,0.9217);
start = (0.4098,0.0603);
};
};
closed = 1;
nodes = (
(289,240,l),
(289,730,l),
(35,730,l),
(35,240,l)
);
},
{
attr = {
gradient = {
colors = (
(
(64,255),
0
),
(
(191,255),
1
)
);
end = (0.2039,0.1594);
start = (0.4192,0.8964);
};
};
closed = 1;
nodes = (
(669,-4,l),
(922,193,l),
(922,486,l),
(668,486,l),
(668,-4,l)
);
}
);
width = 947;
}
);
unicode = 68;
},
{
glyphname = DZcaron;
kernLeft = H;
kernRight = Z;
lastChange = "2022-08-22 22:11:46 +0000";
layers = (
{
anchors = (
{
name = stroke;
pos = (65,365);
},
{
name = top;
pos = (361,700);
}
);
attr = {
color = "1";
};
layerId = "33AE93C6-B8B3-427A-A53B-F24970E840CE";
shapes = (
{
attr = {
gradient = {
colors = (
(
(64,255),
0
),
(
(191,255),
1
)
);
end = (0.8613,0.3327);
start = (0.0949,0.4208);
};
identifier = ID0x7f9cefa07040;
};
closed = 1;
nodes = (
(222,676,l),
(222,677,l),
(199,700,l),
(77,700,l),
(77,676,l)
);
},
{
attr = {
gradient = {
colors = (
(
(191,255),
0
),
(
(64,255),
1
)
);
end = (0.8878,0.5878);
start = (0.0693,0.513);
};
identifier = ID0x7f9cefa07040;
};
closed = 1;
nodes = (
(198,0,l),
(198,24,l),
(53,24,l),
(53,0,l)
);
},
{
attr = {
gradient = {
colors = (
(
(64,255),
0
),
(
(191,255),
1
)
);
end = (0.4877,0.9217);
start = (0.3995,0.0139);
};
identifier = ID0x7f9cefa07040;
};
closed = 1;
nodes = (
(77,24,l),
(77,700,l),
(53,700,l),
(53,24,l)
);
},
{
attr = {
gradient = {
colors = (
(
(64,255),
0
),
(
(191,255),
1
)
);
end = (0.4056,0.1204);
start = (0.4192,0.8964);
};
identifier = ID0x7f9cefa07040;
};
closed = 1;
nodes = (
(199,0,l),
(222,23,l),
(222,676,l),
(198,676,l),
(198,0,l)
);
},
{
attr = {
gradient = {
colors = (
(
(191,255),
0
),
(
(64,255),
1
)
);
end = (0.8878,0.5878);
start = (0.0693,0.513);
};
identifier = ID0x7f9cef346800;
};
closed = 1;
nodes = (
(406,676,l),
(409,700,l),
(276,700,l),
(276,676,l)
);
},
{
attr = {
gradient = {
colors = (
(
(64,255),
0
),
(
(191,255),
1
)
);
end = (0.9008,0.9446);
start = (0.0902,0.0193);
};
identifier = ID0x7f9cef346800;
};
closed = 1;
nodes = (
(428,677,l),
(409,700,l),
(276,25,l),
(276,24,l),
(299,24,l)
);
},
{
attr = {
gradient = {
colors = (
(
(191,255),
0
),
(
(64,255),
1
)
);
end = (0.9306,0.3915);
start = (0.1725,0.6802);
};
identifier = ID0x7f9cef346800;
};
closed = 1;
nodes = (
(432,0,l),
(432,24,l),
(276,24,l),
(299,0,l)
);
},
{
attr = {
gradient = {
colors = (
(
(191,255),
0
),
(
(64,255),
1
)
);
end = (0.6919,0.095);
start = (0.1777,0.9503);
};
identifier = ID0x7f9cef344e80;
};
closed = 1;
nodes = (
(372,750,l),
(328,840,l),
(304,840,l),
(304,839,l),
(348,750,l)
);
},
{
attr = {
gradient = {
colors = (
(
(64,255),
0
),
(
(191,255),
1
)
);
end = (0.1367,0.051);
start = (0.8716,0.9453);
};
identifier = ID0x7f9cef344e80;
};
closed = 1;
nodes = (
(372,750,l),
(418,839,l),
(418,840,l),
(394,840,l),
(349,750,l)
);
}
);
width = 505;
},
{
anchors = (
{
name = stroke;
pos = (166,361);
},
{
name = top;
pos = (1333,730);
}
);
attr = {
color = "1";
};
layerId = m003;
shapes = (
{
attr = {
gradient = {
colors = (
(
(64,255),
0
),
(
(191,255),
1
)
);
end = (0.8183,0.4624);
start = (0.0693,0.513);
};
identifier = ID0x7f9cefa07460;
};
closed = 1;
nodes = (
(922,486,l),
(922,487,l),
(720,730,l),
(289,730,l),
(289,486,l)
);
},
{
attr = {
gradient = {
colors = (
(
(191,255),
0
),
(
(64,255),
1
)
);
end = (0.8878,0.5878);
start = (0.0693,0.513);
};
identifier = ID0x7f9cefa07460;
};
closed = 1;
nodes = (
(668,-4,l),
(668,240,l),
(35,240,l),
(35,-4,l)
);
},
{
attr = {
gradient = {
colors = (
(
(64,255),
0
),
(
(191,255),
1
)
);
end = (0.4877,0.9217);
start = (0.4098,0.0603);
};
identifier = ID0x7f9cefa07460;
};
closed = 1;
nodes = (
(289,240,l),
(289,730,l),
(35,730,l),
(35,240,l)
);
},
{
attr = {
gradient = {
colors = (
(
(64,255),
0
),
(
(191,255),
1
)
);
end = (0.2039,0.1594);
start = (0.4192,0.8964);
};
identifier = ID0x7f9cefa07460;
};
closed = 1;
nodes = (
(669,-4,l),
(922,193,l),
(922,486,l),
(668,486,l),
(668,-4,l)
);
},
{
attr = {
gradient = {
colors = (
(
(191,255),
0
),
(
(64,255),
1
)
);
end = (0.8495,0.7893);
start = (0.0361,0.7074);
};
identifier = ID0x7f9cf101a2a0;
};
closed = 1;
nodes = (
(1565,486,l),
(1591,730,l),
(982,730,l),
(982,486,l)
);
},
{
attr = {
gradient = {
colors = (
(
(64,255),
0
),
(
(191,255),
1
)
);
end = (0.8718,0.8447);
start = (0.0877,0.235);
};
identifier = ID0x7f9cf101a2a0;
};
closed = 1;
nodes = (
(1731,535,l),
(1591,730,l),
(988,245,l),
(988,244,l),
(1191,119,l)
);
},
{
attr = {
gradient = {
colors = (
(
(191,255),
0
),
(
(64,255),
1
)
);
end = (0.9726,0.891);
start = (0.0297,0.1676);
};
identifier = ID0x7f9cf101a2a0;
};
closed = 1;
nodes = (
(1737,0,l),
(1737,244,l),
(988,244,l),
(988,0,l)
);
},
{
attr = {
gradient = {
colors = (
(
(191,255),
0
),
(
(64,255),
1
)
);
end = (0.7695,0.5176);
start = (0.0969,0.9365);
};
identifier = ID0x7f9ced6d81f0;
};
closed = 1;
nodes = (
(1402,793,l),
(1258,900,l),
(1081,900,l),
(1081,899,l),
(1249,760,l)
);
},
{
attr = {
gradient = {
colors = (
(
(64,255),
0
),
(
(191,255),
1
)
);
end = (0.0646,0.0508);
start = (0.9221,0.9501);
};
identifier = ID0x7f9ced6d81f0;
};
closed = 1;
nodes = (
(1423,760,l),
(1587,899,l),
(1587,900,l),
(1413,900,l),
(1249,760,l)
);
}
);
width = 1772;
}
);
unicode = 452;
},
{
glyphname = Eth;
kernRight = O;
lastChange = "2022-08-22 22:11:46 +0000";
layers = (
{
anchors = (
{
name = _stroke;
pos = (65,365);
},
{
name = stroke;
pos = (65,365);
},
{
name = top;
pos = (138,700);
}
);
attr = {
color = "1";
};
layerId = "33AE93C6-B8B3-427A-A53B-F24970E840CE";
shapes = (
{
attr = {
gradient = {
colors = (
(
(191,255),
0
),
(
(64,255),
0.3071
),
(
(64,255),
0.66009
),
(
(128,255),
1
)
);
end = (0.9733,0.1353);
start = (0.0286,0.824);
};
identifier = ID0x7f9cefa07a00;
};
closed = 1;
nodes = (
(146,353,l),
(146,377,l),
(-15,377,l),
(-15,353,l)
);
},
{
attr = {
gradient = {
colors = (
(
(64,255),
0
),
(
(191,255),
1
)
);
end = (0.8613,0.3327);
start = (0.0949,0.4208);
};
identifier = ID0x7f9cefa07b10;
};
closed = 1;
nodes = (
(222,676,l),
(222,677,l),
(199,700,l),
(77,700,l),
(77,676,l)
);
},
{
attr = {
gradient = {
colors = (
(
(191,255),
0
),
(
(64,255),
1
)
);
end = (0.8878,0.5878);
start = (0.0693,0.513);
};
identifier = ID0x7f9cefa07b10;
};
closed = 1;
nodes = (
(198,0,l),
(198,24,l),
(53,24,l),
(53,0,l)
);
},
{
attr = {
gradient = {
colors = (
(
(64,255),
0
),
(
(191,255),
1
)
);
end = (0.4877,0.9217);
start = (0.3995,0.0139);
};
identifier = ID0x7f9cefa07b10;
};
closed = 1;
nodes = (
(77,24,l),
(77,700,l),
(53,700,l),
(53,24,l)
);
},
{
attr = {
gradient = {
colors = (
(
(64,255),
0
),
(
(191,255),
1
)
);
end = (0.4056,0.1204);
start = (0.4192,0.8964);
};
identifier = ID0x7f9cefa07b10;
};
closed = 1;
nodes = (
(199,0,l),
(222,23,l),
(222,676,l),
(198,676,l),
(198,0,l)
);
}
);
width = 273;
},
{
anchors = (
{
name = _stroke;
pos = (302,361);
},
{
name = stroke;
pos = (212,361);
},
{
name = top;
pos = (522,730);
}
);
attr = {
color = "1";
};
layerId = m003;
shapes = (
{
attr = {
gradient = {
colors = (
(
(191,255),
0
),
(
(64,255),
0.40456
),
(
(64,255),
0.5102
),
(
(128,255),
1
)
);
end = (0.9593,0.4883);
start = (0.0469,0.1884);
};
identifier = ID0x7f9cefa07e20;
};
closed = 1;
nodes = (
(599,269,l),
(599,453,l),
(5,453,l),
(5,269,l)
);
},
{
attr = {
gradient = {
colors = (
(
(64,255),
0
),
(
(191,255),
1
)
);
end = (0.8183,0.4624);
start = (0.0693,0.513);
};
identifier = ID0x7f9cefa07f30;
};
closed = 1;
nodes = (
(968,486,l),
(968,487,l),
(766,730,l),
(335,730,l),
(335,486,l)
);
},
{
attr = {
gradient = {
colors = (
(
(191,255),
0
),
(
(64,255),
1
)
);
end = (0.8878,0.5878);
start = (0.0693,0.513);
};
identifier = ID0x7f9cefa07f30;
};
closed = 1;
nodes = (
(714,-4,l),
(714,240,l),
(81,240,l),
(81,-4,l)
);
},
{
attr = {
gradient = {
colors = (
(
(64,255),
0
),
(
(191,255),
1
)
);
end = (0.4877,0.9217);
start = (0.4098,0.0603);
};
identifier = ID0x7f9cefa07f30;
};
closed = 1;
nodes = (
(335,240,l),
(335,730,l),
(81,730,l),
(81,240,l)
);
},
{
attr = {
gradient = {
colors = (
(
(64,255),
0
),
(
(191,255),
1
)
);
end = (0.2039,0.1594);
start = (0.4192,0.8964);
};
identifier = ID0x7f9cefa07f30;
};
closed = 1;
nodes = (
(715,-4,l),
(968,193,l),
(968,486,l),
(714,486,l),
(714,-4,l)
);
}
);
width = 983;
}
);
unicode = 208;
},
{
glyphname = Dcaron;
kernLeft = H;
kernRight = O;
lastChange = "2022-08-22 22:11:46 +0000";
layers = (
{
anchors = (
{
name = stroke;
pos = (65,365);
},
{
name = top;
pos = (138,700);
}
);
attr = {
color = "1";
};
layerId = "33AE93C6-B8B3-427A-A53B-F24970E840CE";
shapes = (
{
attr = {
gradient = {
colors = (
(
(64,255),
0
),
(
(191,255),
1
)
);
end = (0.8613,0.3327);
start = (0.0949,0.4208);
};
identifier = ID0x7f9cefa083c0;
};
closed = 1;
nodes = (
(222,676,l),
(222,677,l),
(199,700,l),
(77,700,l),
(77,676,l)
);
},
{
attr = {
gradient = {
colors = (
(
(191,255),
0
),
(
(64,255),
1
)
);
end = (0.8878,0.5878);
start = (0.0693,0.513);
};
identifier = ID0x7f9cefa083c0;
};
closed = 1;
nodes = (
(198,0,l),
(198,24,l),
(53,24,l),
(53,0,l)
);
},
{
attr = {
gradient = {
colors = (
(
(64,255),
0
),
(
(191,255),
1
)
);
end = (0.4877,0.9217);
start = (0.3995,0.0139);
};
identifier = ID0x7f9cefa083c0;
};
closed = 1;
nodes = (
(77,24,l),
(77,700,l),
(53,700,l),
(53,24,l)
);
},
{
attr = {
gradient = {
colors = (
(
(64,255),
0
),
(
(191,255),
1
)
);
end = (0.4056,0.1204);
start = (0.4192,0.8964);
};
identifier = ID0x7f9cefa083c0;
};
closed = 1;
nodes = (
(199,0,l),
(222,23,l),
(222,676,l),
(198,676,l),
(198,0,l)
);
},
{
attr = {
gradient = {
colors = (
(
(191,255),
0
),
(
(64,255),
1
)
);
end = (0.6919,0.095);
start = (0.1777,0.9503);
};
identifier = ID0x7f9cefa084d0;
};
closed = 1;
nodes = (
(149,750,l),
(105,840,l),
(81,840,l),
(81,839,l),
(125,750,l)
);
},
{
attr = {
gradient = {
colors = (
(
(64,255),
0
),
(
(191,255),
1
)
);
end = (0.1367,0.051);
start = (0.8716,0.9453);
};
identifier = ID0x7f9cefa084d0;
};
closed = 1;
nodes = (
(149,750,l),
(195,839,l),
(195,840,l),
(171,840,l),
(126,750,l)
);
}
);
width = 275;
},
{
anchors = (
{
name = stroke;
pos = (166,361);
},
{
name = top;
pos = (476,730);
}
);
attr = {
color = "1";
};
layerId = m003;
shapes = (
{
attr = {
gradient = {
colors = (
(
(64,255),
0
),
(
(191,255),
1
)
);
end = (0.8183,0.4624);
start = (0.0693,0.513);
};
identifier = ID0x7f9cefa087e0;
};
closed = 1;
nodes = (
(922,486,l),
(922,487,l),
(720,730,l),
(289,730,l),
(289,486,l)
);
},
{
attr = {
gradient = {
colors = (
(
(191,255),
0
),
(
(64,255),
1
)
);
end = (0.8878,0.5878);
start = (0.0693,0.513);
};
identifier = ID0x7f9cefa087e0;
};
closed = 1;
nodes = (
(668,-4,l),
(668,240,l),
(35,240,l),
(35,-4,l)
);
},
{
attr = {
gradient = {
colors = (
(
(64,255),
0
),
(
(191,255),
1
)
);
end = (0.4877,0.9217);
start = (0.4098,0.0603);
};
identifier = ID0x7f9cefa087e0;
};
closed = 1;
nodes = (
(289,240,l),
(289,730,l),
(35,730,l),
(35,240,l)
);
},
{
attr = {
gradient = {
colors = (
(
(64,255),
0
),
(
(191,255),
1
)
);
end = (0.2039,0.1594);
start = (0.4192,0.8964);
};
identifier = ID0x7f9cefa087e0;
};
closed = 1;
nodes = (
(669,-4,l),
(922,193,l),
(922,486,l),
(668,486,l),
(668,-4,l)
);
},
{
attr = {
gradient = {
colors = (
(
(191,255),
0
),
(
(64,255),
1
)
);
end = (0.7695,0.5176);
start = (0.0969,0.9365);
};
identifier = ID0x7f9cefa088f0;
};
closed = 1;
nodes = (
(545,793,l),
(401,900,l),
(224,900,l),
(224,899,l),
(392,760,l)
);
},
{
attr = {
gradient = {
colors = (
(
(64,255),
0
),
(
(191,255),
1
)
);
end = (0.0646,0.0508);
start = (0.9221,0.9501);
};
identifier = ID0x7f9cefa088f0;
};
closed = 1;
nodes = (
(566,760,l),
(730,899,l),
(730,900,l),
(556,900,l),
(392,760,l)
);
}
);
width = 947;
}
);
unicode = 270;
},
{
glyphname = Dcroat;
kernLeft = Eth;
kernRight = O;
lastChange = "2022-08-22 22:11:46 +0000";
layers = (
{
anchors = (
{
name = _stroke;
pos = (65,365);
},
{
name = stroke;
pos = (65,365);
},
{
name = top;
pos = (138,700);
}
);
attr = {
color = "1";
};
layerId = "33AE93C6-B8B3-427A-A53B-F24970E840CE";
shapes = (
{
attr = {
gradient = {
colors = (
(
(191,255),
0
),
(
(64,255),
0.3071
),
(
(64,255),
0.66009
),
(
(128,255),
1
)
);
end = (0.9733,0.1353);
start = (0.0286,0.824);
};
identifier = ID0x7f9cefa08d80;
};
closed = 1;
nodes = (
(146,353,l),
(146,377,l),
(-15,377,l),
(-15,353,l)
);
},
{
attr = {
gradient = {
colors = (
(
(64,255),
0
),
(
(191,255),
1
)
);
end = (0.8613,0.3327);
start = (0.0949,0.4208);
};
identifier = ID0x7f9cefa08d80;
};
closed = 1;
nodes = (
(222,676,l),
(222,677,l),
(199,700,l),
(77,700,l),
(77,676,l)
);
},
{
attr = {
gradient = {
colors = (
(
(191,255),
0
),
(
(64,255),
1
)
);
end = (0.8878,0.5878);
start = (0.0693,0.513);
};
identifier = ID0x7f9cefa08d80;
};
closed = 1;
nodes = (
(198,0,l),
(198,24,l),
(53,24,l),
(53,0,l)
);
},
{
attr = {
gradient = {
colors = (
(
(64,255),
0
),
(
(191,255),
1
)
);
end = (0.4877,0.9217);
start = (0.3995,0.0139);
};
identifier = ID0x7f9cefa08d80;
};
closed = 1;
nodes = (
(77,24,l),
(77,700,l),
(53,700,l),
(53,24,l)
);
},
{
attr = {
gradient = {
colors = (
(
(64,255),
0
),
(
(191,255),
1
)
);
end = (0.4056,0.1204);
start = (0.4192,0.8964);
};
identifier = ID0x7f9cefa08d80;
};
closed = 1;
nodes = (
(199,0,l),
(222,23,l),
(222,676,l),
(198,676,l),
(198,0,l)
);
}
);
width = 273;
},
{
anchors = (
{
name = _stroke;
pos = (302,361);
},
{
name = stroke;
pos = (212,361);
},
{
name = top;
pos = (522,730);
}
);
attr = {
color = "1";
};
layerId = m003;
shapes = (
{
attr = {
gradient = {
colors = (
(
(191,255),
0
),
(
(64,255),
0.40456
),
(
(64,255),
0.5102
),
(
(128,255),
1
)
);
end = (0.9593,0.4883);
start = (0.0469,0.1884);
};
identifier = ID0x7f9cefa09090;
};
closed = 1;
nodes = (
(599,269,l),
(599,453,l),
(5,453,l),
(5,269,l)
);
},
{
attr = {
gradient = {
colors = (
(
(64,255),
0
),
(
(191,255),
1
)
);
end = (0.8183,0.4624);
start = (0.0693,0.513);
};
identifier = ID0x7f9cefa09090;
};
closed = 1;
nodes = (
(968,486,l),
(968,487,l),
(766,730,l),
(335,730,l),
(335,486,l)
);
},
{
attr = {
gradient = {
colors = (
(
(191,255),
0
),
(
(64,255),
1
)
);
end = (0.8878,0.5878);
start = (0.0693,0.513);
};
identifier = ID0x7f9cefa09090;
};
closed = 1;
nodes = (
(714,-4,l),
(714,240,l),
(81,240,l),
(81,-4,l)
);
},
{
attr = {
gradient = {
colors = (
(
(64,255),
0
),
(
(191,255),
1
)
);
end = (0.4877,0.9217);
start = (0.4098,0.0603);
};
identifier = ID0x7f9cefa09090;
};
closed = 1;
nodes = (
(335,240,l),
(335,730,l),
(81,730,l),
(81,240,l)
);
},
{
attr = {
gradient = {
colors = (
(
(64,255),
0
),
(
(191,255),
1
)
);
end = (0.2039,0.1594);
start = (0.4192,0.8964);
};
identifier = ID0x7f9cefa09090;
};
closed = 1;
nodes = (
(715,-4,l),
(968,193,l),
(968,486,l),
(714,486,l),
(714,-4,l)
);
}
);
width = 983;
}
);
unicode = 272;
},
{
glyphname = Dzcaron;
kernLeft = H;
kernRight = z;
lastChange = "2022-08-22 22:11:46 +0000";
layers = (
{
anchors = (
{
name = stroke;
pos = (65,365);
},
{
name = top;
pos = (358,500);
}
);
attr = {
color = "1";
};
layerId = "33AE93C6-B8B3-427A-A53B-F24970E840CE";
shapes = (
{
attr = {
gradient = {
colors = (
(
(64,255),
0
),
(
(191,255),
1
)
);
end = (0.8613,0.3327);
start = (0.0949,0.4208);
};
identifier = ID0x7f9cefa09520;
};
closed = 1;
nodes = (
(222,676,l),
(222,677,l),
(199,700,l),
(77,700,l),
(77,676,l)
);
},
{
attr = {
gradient = {
colors = (
(
(191,255),
0
),
(
(64,255),
1
)
);
end = (0.8878,0.5878);
start = (0.0693,0.513);
};
identifier = ID0x7f9cefa09520;
};
closed = 1;
nodes = (
(198,0,l),
(198,24,l),
(53,24,l),
(53,0,l)
);
},
{
attr = {
gradient = {
colors = (
(
(64,255),
0
),
(
(191,255),
1
)
);
end = (0.4877,0.9217);
start = (0.3995,0.0139);
};
identifier = ID0x7f9cefa09520;
};
closed = 1;
nodes = (
(77,24,l),
(77,700,l),
(53,700,l),
(53,24,l)
);
},
{
attr = {
gradient = {
colors = (
(
(64,255),
0
),
(
(191,255),
1
)
);
end = (0.4056,0.1204);
start = (0.4192,0.8964);
};
identifier = ID0x7f9cefa09520;
};
closed = 1;
nodes = (
(199,0,l),
(222,23,l),
(222,676,l),
(198,676,l),
(198,0,l)
);
},
{
attr = {
gradient = {
colors = (
(
(191,255),
0
),
(
(64,255),
1
)
);
end = (0.91,0.7035);
start = (0.0693,0.513);
};
identifier = ID0x7f9d6dcf40b0;
};
closed = 1;
nodes = (
(398,476,l),
(401,500,l),
(298,500,l),
(298,477,l),
(298,476,l)
);
},
{
attr = {
gradient = {
colors = (
(
(64,255),
0
),
(
(191,255),
1
)
);
end = (0.8504,0.9599);
start = (0.1093,0.0211);
};
identifier = ID0x7f9d6dcf40b0;
};
closed = 1;
nodes = (
(420,477,l),
(401,500,l),
(298,25,l),
(298,24,l),
(321,24,l)
);
},
{
attr = {
gradient = {
colors = (
(
(191,255),
0
),
(
(64,255),
1
)
);
end = (0.9531,0.7317);
start = (0.0951,0.8565);
};
identifier = ID0x7f9d6dcf40b0;
};
closed = 1;
nodes = (
(424,0,l),
(424,24,l),
(298,24,l),
(321,0,l)
);
},
{
attr = {
gradient = {
colors = (
(
(64,255),
0
),
(
(194,255),
1
)
);
end = (0.17,0.9167);
start = (0.656,0.0816);
};
identifier = ID0x7f9cef7ffc90;
};
closed = 1;
nodes = (
(370,590,l),
(326,680,l),
(302,680,l),
(302,679,l),
(346,590,l)
);
},
{
attr = {
gradient = {
colors = (
(
(191,255),
0
),
(
(64,255),
1
)
);
end = (0.8434,0.9413);
start = (0.1839,0.0466);
};
identifier = ID0x7f9cef7ffc90;
};
closed = 1;
nodes = (
(370,590,l),
(416,679,l),
(416,680,l),
(392,680,l),
(347,590,l)
);
}
);
width = 447;
},
{
anchors = (
{
name = stroke;
pos = (166,361);
},
{
name = top;
pos = (1354,530);
}
);
attr = {
color = "1";
};
layerId = m003;
shapes = (
{
attr = {
gradient = {
colors = (
(
(64,255),
0
),
(
(191,255),
1
)
);
end = (0.8183,0.4624);
start = (0.0693,0.513);
};
identifier = ID0x7f9cefa09940;
};
closed = 1;
nodes = (
(922,486,l),
(922,487,l),
(720,730,l),
(289,730,l),
(289,486,l)
);
},
{
attr = {
gradient = {
colors = (
(
(191,255),
0
),
(
(64,255),
1
)
);
end = (0.8878,0.5878);
start = (0.0693,0.513);
};
identifier = ID0x7f9cefa09940;
};
closed = 1;
nodes = (
(668,-4,l),
(668,240,l),
(35,240,l),
(35,-4,l)
);
},
{
attr = {
gradient = {
colors = (
(
(64,255),
0
),
(
(191,255),
1
)
);
end = (0.4877,0.9217);
start = (0.4098,0.0603);
};
identifier = ID0x7f9cefa09940;
};
closed = 1;
nodes = (
(289,240,l),
(289,730,l),
(35,730,l),
(35,240,l)
);
},
{
attr = {
gradient = {
colors = (
(
(64,255),
0
),
(
(191,255),
1
)
);
end = (0.2039,0.1594);
start = (0.4192,0.8964);
};
identifier = ID0x7f9cefa09940;
};
closed = 1;
nodes = (
(669,-4,l),
(922,193,l),
(922,486,l),
(668,486,l),
(668,-4,l)
);
},
{
attr = {
gradient = {
colors = (
(
(191,255),
0
),
(
(64,255),
1
)
);
end = (0.678,0.7095);
start = (0.1021,0.1409);
};
identifier = ID0x7f9ced616790;
};
closed = 1;
nodes = (
(1584,311,l),
(1610,530,l),
(1080,530,l),
(973,312,l),
(973,311,l)
);
},
{
attr = {
gradient = {
colors = (
(
(64,255),
0
),
(
(191,255),
1
)
);
end = (0.9423,0.5292);
start = (0.248,0.2407);
};
identifier = ID0x7f9ced616790;
};
closed = 1;
nodes = (
(1700,325,l),
(1610,530,l),
(967,220,l),
(967,219,l),
(1330,149,l)
);
},
{
attr = {
gradient = {
colors = (
(
(191,255),
0
),
(
(64,255),
1
)
);
end = (0.913,0.2676);
start = (0.0531,0.8562);
};
identifier = ID0x7f9ced616790;
};
closed = 1;
nodes = (
(1694,0,l),
(1694,219,l),
(967,219,l),
(1074,0,l)
);
},
{
attr = {
gradient = {
colors = (
(
(64,255),
0
),
(
(194,255),
1
)
);
end = (0.125,0.9526);
start = (0.5159,0.148);
};
identifier = ID0x7f9ced6117b0;
};
closed = 1;
nodes = (
(1396,613,l),
(1282,750,l),
(1105,750,l),
(1105,749,l),
(1253,582,l)
);
},
{
attr = {
gradient = {
colors = (
(
(191,255),
0
),
(
(64,255),
1
)
);
end = (0.7911,0.8497);
start = (0.3784,0.0995);
};
identifier = ID0x7f9ced6117b0;
};
closed = 1;
nodes = (
(1417,582,l),
(1571,749,l),
(1571,750,l),
(1397,750,l),
(1253,582,l)
);
}
);
width = 1730;
}
);
unicode = 453;
},
{
glyphname = E;
kernLeft = U;
lastChange = "2022-08-22 22:11:46 +0000";
layers = (
{
anchors = (
{
name = bottom;
pos = (135,0);
},
{
name = top;
pos = (138,700);
}
);
attr = {
color = "1";
};
layerId = "33AE93C6-B8B3-427A-A53B-F24970E840CE";
shapes = (
{
attr = {
gradient = {
colors = (
(
(64,255),
0
),
(
(191,255),
1
)
);
end = (0.0726,0.8409);
start = (0.9727,0.513);
};
};
closed = 1;
nodes = (
(220,0,l),
(220,24,l),
(53,24,l),
(53,23,l),
(77,0,l)
);
},
{
attr = {
gradient = {
colors = (
(
(64,255),
0
),
(
(191,255),
1
)
);
end = (0.5603,0.9888);
start = (0.4654,0.007);
};
};
closed = 1;
nodes = (
(77,24,l),
(77,700,l),
(53,700,l),
(53,24,l)
);
},
{
attr = {
gradient = {
colors = (
(
(64,255),
0
),
(
(191,255),
1
)
);
end = (0.9395,0.824);
start = (0.0304,0.1025);
};
};
closed = 1;
nodes = (
(196,353,l),
(196,377,l),
(77,377,l),
(77,353,l)
);
},
{
attr = {
gradient = {
colors = (
(
(64,255),
0
),
(
(191,255),
1
)
);
end = (0.9219,0.702);
start = (0.0502,0.2276);
};
};
closed = 1;
nodes = (
(197,676,l),
(220,699,l),
(220,700,l),
(77,700,l),
(77,676,l)
);
}
);
width = 240;
},
{
anchors = (
{
name = bottom;
pos = (442,0);
},
{
name = top;
pos = (456,730);
}
);
attr = {
color = "1";
};
layerId = m003;
shapes = (
{
attr = {
gradient = {
colors = (
(
(64,255),
0
),
(
(191,255),
1
)
);
end = (0.082,0.9228);
start = (0.9659,0.1);
};
};
closed = 1;
nodes = (
(801,0,l),
(801,244,l),
(35,244,l),
(35,243,l),
(237,0,l)
);
},
{
attr = {
gradient = {
colors = (
(
(64,255),
0
),
(
(191,255),
1
)
);
end = (0.4877,0.9217);
start = (0.5389,0.033);
};
};
closed = 1;
nodes = (
(289,244,l),
(289,730,l),
(35,730,l),
(35,244,l)
);
},
{
attr = {
gradient = {
colors = (
(
(64,255),
0
),
(
(191,255),
1
)
);
end = (0.8437,0.8454);
start = (0.0849,0.1153);
};
};
closed = 1;
nodes = (
(698,263,l),
(698,467,l),
(289,467,l),
(289,263,l)
);
},
{
attr = {
gradient = {
colors = (
(
(64,255),
0
),
(
(191,255),
1
)
);
end = (0.713,0.9264);
start = (0.0306,0.307);
};
};
closed = 1;
nodes = (
(650,486,l),
(852,729,l),
(852,730,l),
(289,730,l),
(289,486,l)
);
}
);
width = 832;
}
);
unicode = 69;
},
{
glyphname = Eacute;
kernLeft = U;
kernRight = E;
lastChange = "2022-08-22 22:11:46 +0000";
layers = (
{
anchors = (
{
name = bottom;
pos = (135,0);
},
{
name = top;
pos = (138,700);
}
);
attr = {
color = "1";
};
layerId = "33AE93C6-B8B3-427A-A53B-F24970E840CE";
shapes = (
{
attr = {
gradient = {
colors = (
(
(64,255),
0
),
(
(191,255),
1
)
);
end = (0.0726,0.8409);
start = (0.9727,0.513);
};
identifier = ID0x7f9cefa0a460;
};
closed = 1;
nodes = (
(220,0,l),
(220,24,l),
(53,24,l),
(53,23,l),
(77,0,l)
);
},
{
attr = {
gradient = {
colors = (
(
(64,255),
0
),
(
(191,255),
1
)
);
end = (0.5603,0.9888);
start = (0.4654,0.007);
};
identifier = ID0x7f9cefa0a460;
};
closed = 1;
nodes = (
(77,24,l),
(77,700,l),
(53,700,l),
(53,24,l)
);
},
{
attr = {
gradient = {
colors = (
(
(64,255),
0
),
(
(191,255),
1
)
);
end = (0.9395,0.824);
start = (0.0304,0.1025);
};
identifier = ID0x7f9cefa0a460;
};
closed = 1;
nodes = (
(196,353,l),
(196,377,l),
(77,377,l),
(77,353,l)
);
},
{
attr = {
gradient = {
colors = (
(
(64,255),
0
),
(
(191,255),
1
)
);
end = (0.9219,0.702);
start = (0.0502,0.2276);
};
identifier = ID0x7f9cefa0a460;
};
closed = 1;
nodes = (
(197,676,l),
(220,699,l),
(220,700,l),
(77,700,l),
(77,676,l)
);
},
{
attr = {
gradient = {
colors = (
(
(191,255),
0
),
(
(64,255),
1
)
);
end = (0.8295,0.9141);
start = (0.1608,0.0873);
};
identifier = ID0x7f9cefa0a570;
};
closed = 1;
nodes = (
(144,735,l),
(171,854,l),
(171,855,l),
(140,855,l),
(120,735,l)
);
}
);
width = 240;
},
{
anchors = (
{
name = bottom;
pos = (442,0);
},
{
name = top;
pos = (456,730);
}
);
attr = {
color = "1";
};
layerId = m003;
shapes = (
{
attr = {
gradient = {
colors = (
(
(64,255),
0
),
(
(191,255),
1
)
);
end = (0.082,0.9228);
start = (0.9659,0.1);
};
identifier = ID0x7f9cefa0a880;
};
closed = 1;
nodes = (
(801,0,l),
(801,244,l),
(35,244,l),
(35,243,l),
(237,0,l)
);
},
{
attr = {
gradient = {
colors = (
(
(64,255),
0
),
(
(191,255),
1
)
);
end = (0.4877,0.9217);
start = (0.5389,0.033);
};
identifier = ID0x7f9cefa0a880;
};
closed = 1;
nodes = (
(289,244,l),
(289,730,l),
(35,730,l),
(35,244,l)
);
},
{
attr = {
gradient = {
colors = (
(
(64,255),
0
),
(
(191,255),
1
)
);
end = (0.8437,0.8454);
start = (0.0849,0.1153);
};
identifier = ID0x7f9cefa0a880;
};
closed = 1;
nodes = (
(698,263,l),
(698,467,l),
(289,467,l),
(289,263,l)
);
},
{
attr = {
gradient = {
colors = (
(
(64,255),
0
),
(
(191,255),
1
)
);
end = (0.713,0.9264);
start = (0.0306,0.307);
};
identifier = ID0x7f9cefa0a880;
};
closed = 1;
nodes = (
(650,486,l),
(852,729,l),
(852,730,l),
(289,730,l),
(289,486,l)
);
},
{
attr = {
gradient = {
colors = (
(
(191,255),
0
),
(
(64,255),
1
)
);
end = (0.8428,0.923);
start = (0.0434,0.0801);
};
identifier = ID0x7f9cefa0a990;
};
closed = 1;
nodes = (
(518,760,l),
(633,899,l),
(633,900,l),
(387,900,l),
(352,760,l)
);
}
);
width = 832;
}
);
unicode = 201;
},
{
glyphname = Ebreve;
kernLeft = U;
kernRight = E;
lastChange = "2022-08-22 22:11:46 +0000";
layers = (
{
anchors = (
{
name = bottom;
pos = (135,0);
},
{
name = top;
pos = (138,700);
}
);
attr = {
color = "1";
};
layerId = "33AE93C6-B8B3-427A-A53B-F24970E840CE";
shapes = (
{
attr = {
gradient = {
colors = (
(
(64,255),
0
),
(
(191,255),
1
)
);
end = (0.0726,0.8409);
start = (0.9727,0.513);
};
identifier = ID0x7f9cefa21680;
};
closed = 1;
nodes = (
(220,0,l),
(220,24,l),
(53,24,l),
(53,23,l),
(77,0,l)
);
},
{
attr = {
gradient = {
colors = (
(
(64,255),
0
),
(
(191,255),
1
)
);
end = (0.5603,0.9888);
start = (0.4654,0.007);
};
identifier = ID0x7f9cefa21680;
};
closed = 1;
nodes = (
(77,24,l),
(77,700,l),
(53,700,l),
(53,24,l)
);
},
{
attr = {
gradient = {
colors = (
(
(64,255),
0
),
(
(191,255),
1
)
);
end = (0.9395,0.824);
start = (0.0304,0.1025);
};
identifier = ID0x7f9cefa21680;
};
closed = 1;
nodes = (
(196,353,l),
(196,377,l),
(77,377,l),
(77,353,l)
);
},
{
attr = {
gradient = {
colors = (
(
(64,255),
0
),
(
(191,255),
1
)
);
end = (0.9219,0.702);
start = (0.0502,0.2276);
};
identifier = ID0x7f9cefa21680;
};
closed = 1;
nodes = (
(197,676,l),
(220,699,l),
(220,700,l),
(77,700,l),
(77,676,l)
);
},
{
attr = {
gradient = {
colors = (
(
(191,255),
0
),
(
(64,255),
1
)
);
end = (0.7632,0.1468);
start = (0.4204,0.8452);
};
identifier = ID0x7f9cefa0b040;
};
closed = 1;
nodes = (
(166,781,l),
(185,803,l),
(91,803,l),
(110,781,l)
);
},
{
attr = {
gradient = {
colors = (
(
(191,255),
0
),
(
(64,255),
1
)
);
end = (0.8353,0.121);
start = (0.1796,0.882);
};
identifier = ID0x7f9cefa0b040;
};
closed = 1;
nodes = (
(123,803,l),
(92,840,l),
(60,840,l),
(60,839,l),
(91,803,l)
);
},
{
attr = {
gradient = {
colors = (
(
(191,255),
0
),
(
(64,255),
1
)
);
end = (0.1664,0.1286);
start = (0.5937,0.8477);
};
identifier = ID0x7f9cefa0b040;
};
closed = 1;
nodes = (
(185,803,l),
(216,839,l),
(216,840,l),
(184,840,l),
(153,803,l)
);
}
);
width = 240;
},
{
anchors = (
{
name = bottom;
pos = (442,0);
},
{
name = top;
pos = (456,730);
}
);
attr = {
color = "1";
};
layerId = m003;
shapes = (
{
attr = {
gradient = {
colors = (
(
(64,255),
0
),
(
(191,255),
1
)
);
end = (0.082,0.9228);
start = (0.9659,0.1);
};
identifier = ID0x7f9cefa0b350;
};
closed = 1;
nodes = (
(801,0,l),
(801,244,l),
(35,244,l),
(35,243,l),
(237,0,l)
);
},
{
attr = {
gradient = {
colors = (
(
(64,255),
0
),
(
(191,255),
1
)
);
end = (0.4877,0.9217);
start = (0.5389,0.033);
};
identifier = ID0x7f9cefa0b350;
};
closed = 1;
nodes = (
(289,244,l),
(289,730,l),
(35,730,l),
(35,244,l)
);
},
{
attr = {
gradient = {
colors = (
(
(64,255),
0
),
(
(191,255),
1
)
);
end = (0.8437,0.8454);
start = (0.0849,0.1153);
};
identifier = ID0x7f9cefa0b350;
};
closed = 1;
nodes = (
(698,263,l),
(698,467,l),
(289,467,l),
(289,263,l)
);
},
{
attr = {
gradient = {
colors = (
(
(64,255),
0
),
(
(191,255),
1
)
);
end = (0.713,0.9264);
start = (0.0306,0.307);
};
identifier = ID0x7f9cefa0b350;
};
closed = 1;
nodes = (
(650,486,l),
(852,729,l),
(852,730,l),
(289,730,l),
(289,486,l)
);
},
{
attr = {
gradient = {
colors = (
(
(191,255),
0
),
(
(64,255),
1
)
);
end = (0.9143,0.8534);
start = (0.2813,0.7774);
};
identifier = ID0x7f9cefa0b460;
};
closed = 1;
nodes = (
(569,760,l),
(663,860,l),
(230,860,l),
(324,760,l)
);
},
{
attr = {
gradient = {
colors = (
(
(191,255),
0
),
(
(64,255),
1
)
);
end = (0.8902,0.1828);
start = (0.1269,0.8041);
};
identifier = ID0x7f9cefa0b460;
};
closed = 1;
nodes = (
(409,860,l),
(372,900,l),
(196,900,l),
(196,898,l),
(230,860,l)
);
},
{
attr = {
gradient = {
colors = (
(
(191,255),
0
),
(
(64,255),
1
)
);
end = (0.0848,0.1896);
start = (0.9215,0.8746);
};
identifier = ID0x7f9cefa0b460;
};
closed = 1;
nodes = (
(663,860,l),
(697,899,l),
(697,900,l),
(521,900,l),
(484,860,l)
);
}
);
width = 832;
}
);
unicode = 276;
},
{
glyphname = Ecaron;
kernLeft = U;
kernRight = E;
lastChange = "2022-08-22 22:11:46 +0000";
layers = (
{
anchors = (
{
name = bottom;
pos = (135,0);
},
{
name = top;
pos = (138,700);
}
);
attr = {
color = "1";
};
layerId = "33AE93C6-B8B3-427A-A53B-F24970E840CE";
shapes = (
{
attr = {
gradient = {
colors = (
(
(64,255),
0
),
(
(191,255),
1
)
);
end = (0.0726,0.8409);
start = (0.9727,0.513);
};
identifier = ID0x7f9cefa20c60;
};
closed = 1;
nodes = (
(220,0,l),
(220,24,l),
(53,24,l),
(53,23,l),
(77,0,l)
);
},
{
attr = {
gradient = {
colors = (
(
(64,255),
0
),
(
(191,255),
1
)
);
end = (0.5603,0.9888);
start = (0.4654,0.007);
};
identifier = ID0x7f9cefa20c60;
};
closed = 1;
nodes = (
(77,24,l),
(77,700,l),
(53,700,l),
(53,24,l)
);
},
{
attr = {
gradient = {
colors = (
(
(64,255),
0
),
(
(191,255),
1
)
);
end = (0.9395,0.824);
start = (0.0304,0.1025);
};
identifier = ID0x7f9cefa20c60;
};
closed = 1;
nodes = (
(196,353,l),
(196,377,l),
(77,377,l),
(77,353,l)
);
},
{
attr = {
gradient = {
colors = (
(
(64,255),
0
),
(
(191,255),
1
)
);
end = (0.9219,0.702);
start = (0.0502,0.2276);
};
identifier = ID0x7f9cefa20c60;
};
closed = 1;
nodes = (
(197,676,l),
(220,699,l),
(220,700,l),
(77,700,l),
(77,676,l)
);
},
{
attr = {
gradient = {
colors = (
(
(191,255),
0
),
(
(64,255),
1
)
);
end = (0.6919,0.095);
start = (0.1777,0.9503);
};
identifier = ID0x7f9cefa20d70;
};
closed = 1;
nodes = (
(149,750,l),
(105,840,l),
(81,840,l),
(81,839,l),
(125,750,l)
);
},
{
attr = {
gradient = {
colors = (
(
(64,255),
0
),
(
(191,255),
1
)
);
end = (0.1367,0.051);
start = (0.8716,0.9453);
};
identifier = ID0x7f9cefa20d70;
};
closed = 1;
nodes = (
(149,750,l),
(195,839,l),
(195,840,l),
(171,840,l),
(126,750,l)
);
}
);
width = 240;
},
{
anchors = (
{
name = bottom;
pos = (442,0);
},
{
name = top;
pos = (456,730);
}
);
attr = {
color = "1";
};
layerId = m003;
shapes = (
{
attr = {
gradient = {
colors = (
(
(64,255),
0
),
(
(191,255),
1
)
);
end = (0.082,0.9228);
start = (0.9659,0.1);
};
identifier = ID0x7f9cefa0bd70;
};
closed = 1;
nodes = (
(801,0,l),
(801,244,l),
(35,244,l),
(35,243,l),
(237,0,l)
);
},
{
attr = {
gradient = {
colors = (
(
(64,255),
0
),
(
(191,255),
1
)
);
end = (0.4877,0.9217);
start = (0.5389,0.033);
};
identifier = ID0x7f9cefa0bd70;
};
closed = 1;
nodes = (
(289,244,l),
(289,730,l),
(35,730,l),
(35,244,l)
);
},
{
attr = {
gradient = {
colors = (
(
(64,255),
0
),
(
(191,255),
1
)
);
end = (0.8437,0.8454);
start = (0.0849,0.1153);
};
identifier = ID0x7f9cefa0bd70;
};
closed = 1;
nodes = (
(698,263,l),
(698,467,l),
(289,467,l),
(289,263,l)
);
},
{
attr = {
gradient = {
colors = (
(
(64,255),
0
),
(
(191,255),
1
)
);
end = (0.713,0.9264);
start = (0.0306,0.307);
};
identifier = ID0x7f9cefa0bd70;
};
closed = 1;
nodes = (
(650,486,l),
(852,729,l),
(852,730,l),
(289,730,l),
(289,486,l)
);
},
{
attr = {
gradient = {
colors = (
(
(191,255),
0
),
(
(64,255),
1
)
);
end = (0.7695,0.5176);
start = (0.0969,0.9365);
};
identifier = ID0x7f9cefa0be80;
};
closed = 1;
nodes = (
(525,793,l),
(381,900,l),
(204,900,l),
(204,899,l),
(372,760,l)
);
},
{
attr = {
gradient = {
colors = (
(
(64,255),
0
),
(
(191,255),
1
)
);
end = (0.0646,0.0508);
start = (0.9221,0.9501);
};
identifier = ID0x7f9cefa0be80;
};
closed = 1;
nodes = (
(546,760,l),
(710,899,l),
(710,900,l),
(536,900,l),
(372,760,l)
);
}
);
width = 832;
}
);
unicode = 282;
},
{
glyphname = Ecircumflex;
kernLeft = U;
kernRight = E;
lastChange = "2022-08-22 22:11:46 +0000";
layers = (
{
anchors = (
{
name = bottom;
pos = (135,0);
},
{
name = top;
pos = (138,700);
}
);
attr = {
color = "1";
};
layerId = "33AE93C6-B8B3-427A-A53B-F24970E840CE";
shapes = (
{
attr = {
gradient = {
colors = (
(
(64,255),
0
),
(
(191,255),
1
)
);
end = (0.0726,0.8409);
start = (0.9727,0.513);
};
identifier = ID0x7f9cefa0c310;
};
closed = 1;
nodes = (
(220,0,l),
(220,24,l),
(53,24,l),
(53,23,l),
(77,0,l)
);
},
{
attr = {
gradient = {
colors = (
(
(64,255),
0
),
(
(191,255),
1
)
);
end = (0.5603,0.9888);
start = (0.4654,0.007);
};
identifier = ID0x7f9cefa0c310;
};
closed = 1;
nodes = (
(77,24,l),
(77,700,l),
(53,700,l),
(53,24,l)
);
},
{
attr = {
gradient = {
colors = (
(
(64,255),
0
),
(
(191,255),
1
)
);
end = (0.9395,0.824);
start = (0.0304,0.1025);
};
identifier = ID0x7f9cefa0c310;
};
closed = 1;
nodes = (
(196,353,l),
(196,377,l),
(77,377,l),
(77,353,l)
);
},
{
attr = {
gradient = {
colors = (
(
(64,255),
0
),
(
(191,255),
1
)
);
end = (0.9219,0.702);
start = (0.0502,0.2276);
};
identifier = ID0x7f9cefa0c310;
};
closed = 1;
nodes = (
(197,676,l),
(220,699,l),
(220,700,l),
(77,700,l),
(77,676,l)
);
},
{
attr = {
gradient = {
colors = (
(
(191,255),
0
),
(
(64,255),
1
)
);
end = (0.3436,0.9317);
start = (0.8521,0.1516);
};
identifier = ID0x7f9cefa0c420;
};
closed = 1;
nodes = (
(192,760,l),
(192,761,l),
(148,850,l),
(124,850,l),
(168,760,l)
);
},
{
attr = {
gradient = {
colors = (
(
(64,255),
0
),
(
(191,255),
1
)
);
end = (0.9007,0.953);
start = (0.117,0.0327);
};
identifier = ID0x7f9cefa0c420;
};
closed = 1;
nodes = (
(102,760,l),
(147,850,l),
(124,850,l),
(78,761,l),
(78,760,l)
);
}
);
width = 240;
},
{
anchors = (
{
name = bottom;
pos = (442,0);
},
{
name = top;
pos = (456,730);
}
);
attr = {
color = "1";
};
layerId = m003;
shapes = (
{
attr = {
gradient = {
colors = (
(
(64,255),
0
),
(
(191,255),
1
)
);
end = (0.082,0.9228);
start = (0.9659,0.1);
};
identifier = ID0x7f9cefa0c730;
};
closed = 1;
nodes = (
(801,0,l),
(801,244,l),
(35,244,l),
(35,243,l),
(237,0,l)
);
},
{
attr = {
gradient = {
colors = (
(
(64,255),
0
),
(
(191,255),
1
)
);
end = (0.4877,0.9217);
start = (0.5389,0.033);
};
identifier = ID0x7f9cefa0c730;
};
closed = 1;
nodes = (
(289,244,l),
(289,730,l),
(35,730,l),
(35,244,l)
);
},
{
attr = {
gradient = {
colors = (
(
(64,255),
0
),
(
(191,255),
1
)
);
end = (0.8437,0.8454);
start = (0.0849,0.1153);
};
identifier = ID0x7f9cefa0c730;
};
closed = 1;
nodes = (
(698,263,l),
(698,467,l),
(289,467,l),
(289,263,l)
);
},
{
attr = {
gradient = {
colors = (
(
(64,255),
0
),
(
(191,255),
1
)
);
end = (0.713,0.9264);
start = (0.0306,0.307);
};
identifier = ID0x7f9cefa0c730;
};
closed = 1;
nodes = (
(650,486,l),
(852,729,l),
(852,730,l),
(289,730,l),
(289,486,l)
);
},
{
attr = {
gradient = {
colors = (
(
(191,255),
0
),
(
(64,255),
1
)
);
end = (0.4452,0.9278);
start = (0.782,0.2138);
};
identifier = ID0x7f9cefa0c840;
};
closed = 1;
nodes = (
(716,760,l),
(716,761,l),
(548,900,l),
(395,867,l),
(539,760,l)
);
},
{
attr = {
gradient = {
colors = (
(
(64,255),
0
),
(
(191,255),
1
)
);
end = (0.6568,0.9502);
start = (0.2244,0.068);
};
identifier = ID0x7f9cefa0c840;
};
closed = 1;
nodes = (
(384,760,l),
(548,900,l),
(364,900,l),
(210,761,l),
(210,760,l)
);
}
);
width = 832;
}
);
unicode = 202;
},
{
glyphname = Ecircumflexacute;
kernLeft = U;
kernRight = E;
lastChange = "2022-08-22 22:11:46 +0000";
layers = (
{
anchors = (
{
name = bottom;
pos = (135,0);
},
{
name = top;
pos = (138,700);
}
);
attr = {
color = "1";
};
layerId = "33AE93C6-B8B3-427A-A53B-F24970E840CE";
shapes = (
{
attr = {
gradient = {
colors = (
(
(64,255),
0
),
(
(191,255),
1
)
);
end = (0.0726,0.8409);
start = (0.9727,0.513);
};
identifier = ID0x7f9cefa0ccd0;
};
closed = 1;
nodes = (
(220,0,l),
(220,24,l),
(53,24,l),
(53,23,l),
(77,0,l)
);
},
{
attr = {
gradient = {
colors = (
(
(64,255),
0
),
(
(191,255),
1
)
);
end = (0.5603,0.9888);
start = (0.4654,0.007);
};
identifier = ID0x7f9cefa0ccd0;
};
closed = 1;
nodes = (
(77,24,l),
(77,700,l),
(53,700,l),
(53,24,l)
);
},
{
attr = {
gradient = {
colors = (
(
(64,255),
0
),
(
(191,255),
1
)
);
end = (0.9395,0.824);
start = (0.0304,0.1025);
};
identifier = ID0x7f9cefa0ccd0;
};
closed = 1;
nodes = (
(196,353,l),
(196,377,l),
(77,377,l),
(77,353,l)
);
},
{
attr = {
gradient = {
colors = (
(
(64,255),
0
),
(
(191,255),
1
)
);
end = (0.9219,0.702);
start = (0.0502,0.2276);
};
identifier = ID0x7f9cefa0ccd0;
};
closed = 1;
nodes = (
(197,676,l),
(220,699,l),
(220,700,l),
(77,700,l),
(77,676,l)
);
},
{
attr = {
gradient = {
colors = (
(
(191,255),
0
),
(
(64,255),
1
)
);
end = (0.3671,0.8704);
start = (0.7737,0.0951);
};
identifier = ID0x7f9cefa0cde0;
};
closed = 1;
nodes = (
(195,770,l),
(195,771,l),
(151,860,l),
(127,860,l),
(171,770,l)
);
},
{
attr = {
gradient = {
colors = (
(
(64,255),
0
),
(
(191,255),
1
)
);
end = (0.9007,0.953);
start = (0.2006,0.0758);
};
identifier = ID0x7f9cefa0cde0;
};
closed = 1;
nodes = (
(105,770,l),
(150,860,l),
(127,860,l),
(81,771,l),
(81,770,l)
);
},
{
attr = {
gradient = {
colors = (
(
(191,255),
0
),
(
(64,255),
1
)
);
end = (0.1643,0.0661);
start = (0.8302,0.9298);
};
identifier = ID0x7f9cefa0cde0;
};
closed = 1;
nodes = (
(210,810,l),
(242,899,l),
(242,900,l),
(214,900,l),
(189,810,l)
);
}
);
width = 240;
},
{
anchors = (
{
name = bottom;
pos = (442,0);
},
{
name = top;
pos = (456,730);
}
);
attr = {
color = "1";
};
layerId = m003;
shapes = (
{
attr = {
gradient = {
colors = (
(
(64,255),
0
),
(
(191,255),
1
)
);
end = (0.082,0.9228);
start = (0.9659,0.1);
};
identifier = ID0x7f9cefa0d0f0;
};
closed = 1;
nodes = (
(801,0,l),
(801,244,l),
(35,244,l),
(35,243,l),
(237,0,l)
);
},
{
attr = {
gradient = {
colors = (
(
(64,255),
0
),
(
(191,255),
1
)
);
end = (0.4877,0.9217);
start = (0.5389,0.033);
};
identifier = ID0x7f9cefa0d0f0;
};
closed = 1;
nodes = (
(289,244,l),
(289,730,l),
(35,730,l),
(35,244,l)
);
},
{
attr = {
gradient = {
colors = (
(
(64,255),
0
),
(
(191,255),
1
)
);
end = (0.8437,0.8454);
start = (0.0849,0.1153);
};
identifier = ID0x7f9cefa0d0f0;
};
closed = 1;
nodes = (
(698,263,l),
(698,467,l),
(289,467,l),
(289,263,l)
);
},
{
attr = {
gradient = {
colors = (
(
(64,255),
0
),
(
(191,255),
1
)
);
end = (0.713,0.9264);
start = (0.0306,0.307);
};
identifier = ID0x7f9cefa0d0f0;
};
closed = 1;
nodes = (
(650,486,l),
(852,729,l),
(852,730,l),
(289,730,l),
(289,486,l)
);
},
{
attr = {
gradient = {
colors = (
(
(191,255),
0
),
(
(64,255),
1
)
);
end = (0.475,0.852);
start = (0.8377,0.0764);
};
identifier = ID0x7f9cefa0d200;
};
closed = 1;
nodes = (
(646,755,l),
(646,756,l),
(518,883,l),
(385,852,l),
(489,755,l)
);
},
{
attr = {
gradient = {
colors = (
(
(64,255),
0
),
(
(191,255),
1
)
);
end = (0.6471,0.9661);
start = (0.2597,0.0984);
};
identifier = ID0x7f9cefa0d200;
};
closed = 1;
nodes = (
(374,755,l),
(518,883,l),
(354,883,l),
(220,756,l),
(220,755,l)
);
},
{
attr = {
gradient = {
colors = (
(
(191,255),
0
),
(
(64,255),
1
)
);
end = (0.0775,0.1199);
start = (0.895,0.9123);
};
identifier = ID0x7f9cefa0d200;
};
closed = 1;
nodes = (
(718,808,l),
(811,949,l),
(811,950,l),
(645,950,l),
(602,808,l)
);
}
);
width = 832;
}
);
unicode = 7870;
},
{
glyphname = Ecircumflexdotbelow;
kernLeft = U;
kernRight = E;
lastChange = "2022-08-22 22:11:46 +0000";
layers = (
{
anchors = (
{
name = bottom;
pos = (135,0);
},
{
name = top;
pos = (138,700);
}
);
attr = {
color = "1";
};
layerId = "33AE93C6-B8B3-427A-A53B-F24970E840CE";
shapes = (
{
attr = {
gradient = {
colors = (
(
(64,255),
0
),
(
(191,255),
1
)
);
end = (0.0726,0.8409);
start = (0.9727,0.513);
};
identifier = ID0x7f9cefa0d690;
};
closed = 1;
nodes = (
(220,0,l),
(220,24,l),
(53,24,l),
(53,23,l),
(77,0,l)
);
},
{
attr = {
gradient = {
colors = (
(
(64,255),
0
),
(
(191,255),
1
)
);
end = (0.5603,0.9888);
start = (0.4654,0.007);
};
identifier = ID0x7f9cefa0d690;
};
closed = 1;
nodes = (
(77,24,l),
(77,700,l),
(53,700,l),
(53,24,l)
);
},
{
attr = {
gradient = {
colors = (
(
(64,255),
0
),
(
(191,255),
1
)
);
end = (0.9395,0.824);
start = (0.0304,0.1025);
};
identifier = ID0x7f9cefa0d690;
};
closed = 1;
nodes = (
(196,353,l),
(196,377,l),
(77,377,l),
(77,353,l)
);
},
{
attr = {
gradient = {
colors = (
(
(64,255),
0
),
(
(191,255),
1
)
);
end = (0.9219,0.702);
start = (0.0502,0.2276);
};
identifier = ID0x7f9cefa0d690;
};
closed = 1;
nodes = (
(197,676,l),
(220,699,l),
(220,700,l),
(77,700,l),
(77,676,l)
);
},
{
attr = {
gradient = {
colors = (
(
(191,255),
0
),
(
(64,255),
1
)
);
end = (0.9081,0.083);
start = (0.0737,0.9244);
};
identifier = ID0x7f9cefa0d7a0;
};
closed = 1;
nodes = (
(151,-119,l),
(151,-85,l),
(121,-85,l),
(121,-119,l)
);
},
{
attr = {
gradient = {
colors = (
(
(191,255),
0
),
(
(64,255),
1
)
);
end = (0.3436,0.9317);
start = (0.8521,0.1516);
};
identifier = ID0x7f9cefa0d8b0;
};
closed = 1;
nodes = (
(192,760,l),
(192,761,l),
(148,850,l),
(124,850,l),
(168,760,l)
);
},
{
attr = {
gradient = {
colors = (
(
(64,255),
0
),
(
(191,255),
1
)
);
end = (0.9007,0.953);
start = (0.117,0.0327);
};
identifier = ID0x7f9cefa0d8b0;
};
closed = 1;
nodes = (
(102,760,l),
(147,850,l),
(124,850,l),
(78,761,l),
(78,760,l)
);
}
);
width = 240;
},
{
anchors = (
{
name = bottom;
pos = (442,0);
},
{
name = top;
pos = (456,730);
}
);
attr = {
color = "1";
};
layerId = m003;
shapes = (
{
attr = {
gradient = {
colors = (
(
(64,255),
0
),
(
(191,255),
1
)
);
end = (0.082,0.9228);
start = (0.9659,0.1);
};
identifier = ID0x7f9cefa0dbc0;
};
closed = 1;
nodes = (
(801,0,l),
(801,244,l),
(35,244,l),
(35,243,l),
(237,0,l)
);
},
{
attr = {
gradient = {
colors = (
(
(64,255),
0
),
(
(191,255),
1
)
);
end = (0.4877,0.9217);
start = (0.5389,0.033);
};
identifier = ID0x7f9cefa0dbc0;
};
closed = 1;
nodes = (
(289,244,l),
(289,730,l),
(35,730,l),
(35,244,l)
);
},
{
attr = {
gradient = {
colors = (
(
(64,255),
0
),
(
(191,255),
1
)
);
end = (0.8437,0.8454);
start = (0.0849,0.1153);
};
identifier = ID0x7f9cefa0dbc0;
};
closed = 1;
nodes = (
(698,263,l),
(698,467,l),
(289,467,l),
(289,263,l)
);
},
{
attr = {
gradient = {
colors = (
(
(64,255),
0
),
(
(191,255),
1
)
);
end = (0.713,0.9264);
start = (0.0306,0.307);
};
identifier = ID0x7f9cefa0dbc0;
};
closed = 1;
nodes = (
(650,486,l),
(852,729,l),
(852,730,l),
(289,730,l),
(289,486,l)
);
},
{
attr = {
gradient = {
colors = (
(
(191,255),
0
),
(
(64,255),
1
)
);
end = (0.8925,0.136);
start = (0.1278,0.8543);
};
identifier = ID0x7f9cefa0dcd0;
};
closed = 1;
nodes = (
(547,-200,l),
(547,-38,l),
(343,-38,l),
(343,-200,l)
);
},
{
attr = {
gradient = {
colors = (
(
(191,255),
0
),
(
(64,255),
1
)
);
end = (0.4452,0.9278);
start = (0.782,0.2138);
};
identifier = ID0x7f9cefa0dde0;
};
closed = 1;
nodes = (
(716,760,l),
(716,761,l),
(548,900,l),
(395,867,l),
(539,760,l)
);
},
{
attr = {
gradient = {
colors = (
(
(64,255),
0
),
(
(191,255),
1
)
);
end = (0.6568,0.9502);
start = (0.2244,0.068);
};
identifier = ID0x7f9cefa0dde0;
};
closed = 1;
nodes = (
(384,760,l),
(548,900,l),
(364,900,l),
(210,761,l),
(210,760,l)
);
}
);
width = 832;
}
);
unicode = 7878;
},
{
glyphname = Ecircumflexgrave;
kernLeft = U;
kernRight = E;
lastChange = "2022-08-22 22:11:46 +0000";
layers = (
{
anchors = (
{
name = bottom;
pos = (135,0);
},
{
name = top;
pos = (138,700);
}
);
attr = {
color = "1";
};
layerId = "33AE93C6-B8B3-427A-A53B-F24970E840CE";
shapes = (
{
attr = {
gradient = {
colors = (
(
(64,255),
0
),
(
(191,255),
1
)
);
end = (0.0726,0.8409);
start = (0.9727,0.513);
};
identifier = ID0x7f9cefa0e270;
};
closed = 1;
nodes = (
(220,0,l),
(220,24,l),
(53,24,l),
(53,23,l),
(77,0,l)
);
},
{
attr = {
gradient = {
colors = (
(
(64,255),
0
),
(
(191,255),
1
)
);
end = (0.5603,0.9888);
start = (0.4654,0.007);
};
identifier = ID0x7f9cefa0e270;
};
closed = 1;
nodes = (
(77,24,l),
(77,700,l),
(53,700,l),
(53,24,l)
);
},
{
attr = {
gradient = {
colors = (
(
(64,255),
0
),
(
(191,255),
1
)
);
end = (0.9395,0.824);
start = (0.0304,0.1025);
};
identifier = ID0x7f9cefa0e270;
};
closed = 1;
nodes = (
(196,353,l),
(196,377,l),
(77,377,l),
(77,353,l)
);
},
{
attr = {
gradient = {
colors = (
(
(64,255),
0
),
(
(191,255),
1
)
);
end = (0.9219,0.702);
start = (0.0502,0.2276);
};
identifier = ID0x7f9cefa0e270;
};
closed = 1;
nodes = (
(197,676,l),
(220,699,l),
(220,700,l),
(77,700,l),
(77,676,l)
);
},
{
attr = {
gradient = {
colors = (
(
(191,255),
0
),
(
(64,255),
1
)
);
end = (0.3555,0.8745);
start = (0.7648,0.0924);
};
identifier = ID0x7f9cefa0e380;
};
closed = 1;
nodes = (
(196,744,l),
(196,745,l),
(152,834,l),
(128,834,l),
(172,744,l)
);
},
{
attr = {
gradient = {
colors = (
(
(64,255),
0
),
(
(191,255),
1
)
);
end = (0.86,0.9247);
start = (0.1646,0.087);
};
identifier = ID0x7f9cefa0e380;
};
closed = 1;
nodes = (
(106,744,l),
(151,834,l),
(128,834,l),
(82,745,l),
(82,744,l)
);
},
{
attr = {
gradient = {
colors = (
(
(191,255),
0
),
(
(64,255),
1
)
);
end = (0.1945,0.9162);
start = (0.8997,0.0564);
};
identifier = ID0x7f9cefa0e380;
};
closed = 1;
nodes = (
(223,810,l),
(198,900,l),
(170,900,l),
(170,899,l),
(202,810,l)
);
}
);
width = 240;
},
{
anchors = (
{
name = bottom;
pos = (442,0);
},
{
name = top;
pos = (456,730);
}
);
attr = {
color = "1";
};
layerId = m003;
shapes = (
{
attr = {
gradient = {
colors = (
(
(64,255),
0
),
(
(191,255),
1
)
);
end = (0.082,0.9228);
start = (0.9659,0.1);
};
identifier = ID0x7f9cefa0e690;
};
closed = 1;
nodes = (
(801,0,l),
(801,244,l),
(35,244,l),
(35,243,l),
(237,0,l)
);
},
{
attr = {
gradient = {
colors = (
(
(64,255),
0
),
(
(191,255),
1
)
);
end = (0.4877,0.9217);
start = (0.5389,0.033);
};
identifier = ID0x7f9cefa0e690;
};
closed = 1;
nodes = (
(289,244,l),
(289,730,l),
(35,730,l),
(35,244,l)
);
},
{
attr = {
gradient = {
colors = (
(
(64,255),
0
),
(
(191,255),
1
)
);
end = (0.8437,0.8454);
start = (0.0849,0.1153);
};
identifier = ID0x7f9cefa0e690;
};
closed = 1;
nodes = (
(698,263,l),
(698,467,l),
(289,467,l),
(289,263,l)
);
},
{
attr = {
gradient = {
colors = (
(
(64,255),
0
),
(
(191,255),
1
)
);
end = (0.713,0.9264);
start = (0.0306,0.307);
};
identifier = ID0x7f9cefa0e690;
};
closed = 1;
nodes = (
(650,486,l),
(852,729,l),
(852,730,l),
(289,730,l),
(289,486,l)
);
},
{
attr = {
gradient = {
colors = (
(
(191,255),
0
),
(
(64,255),
1
)
);
end = (0.504,0.8198);
start = (0.8874,0.0814);
};
identifier = ID0x7f9cefa0e7a0;
};
closed = 1;
nodes = (
(646,755,l),
(646,756,l),
(518,883,l),
(385,852,l),
(489,755,l)
);
},
{
attr = {
gradient = {
colors = (
(
(64,255),
0
),
(
(191,255),
1
)
);
end = (0.7316,0.9232);
start = (0.1428,0.1029);
};
identifier = ID0x7f9cefa0e7a0;
};
closed = 1;
nodes = (
(374,755,l),
(518,883,l),
(354,883,l),
(220,756,l),
(220,755,l)
);
},
{
attr = {
gradient = {
colors = (
(
(191,255),
0
),
(
(64,255),
1
)
);
end = (0.1805,0.8573);
start = (0.9241,0.0906);
};
identifier = ID0x7f9cefa0e7a0;
};
closed = 1;
nodes = (
(738,808,l),
(695,950,l),
(529,950,l),
(529,949,l),
(622,808,l)
);
}
);
width = 832;
}
);
unicode = 7872;
},
{
glyphname = Ecircumflexhookabove;
kernLeft = U;
kernRight = E;
lastChange = "2022-08-22 22:11:46 +0000";
layers = (
{
anchors = (
{
name = bottom;
pos = (135,0);
},
{
name = top;
pos = (138,700);
}
);
attr = {
color = "1";
};
layerId = "33AE93C6-B8B3-427A-A53B-F24970E840CE";
shapes = (
{
attr = {
gradient = {
colors = (
(
(64,255),
0
),
(
(191,255),
1
)
);
end = (0.0726,0.8409);
start = (0.9727,0.513);
};
identifier = ID0x7f9cefa0ec30;
};
closed = 1;
nodes = (
(220,0,l),
(220,24,l),
(53,24,l),
(53,23,l),
(77,0,l)
);
},
{
attr = {
gradient = {
colors = (
(
(64,255),
0
),
(
(191,255),
1
)
);
end = (0.5603,0.9888);
start = (0.4654,0.007);
};
identifier = ID0x7f9cefa0ec30;
};
closed = 1;
nodes = (
(77,24,l),
(77,700,l),
(53,700,l),
(53,24,l)
);
},
{
attr = {
gradient = {
colors = (
(
(64,255),
0
),
(
(191,255),
1
)
);
end = (0.9395,0.824);
start = (0.0304,0.1025);
};
identifier = ID0x7f9cefa0ec30;
};
closed = 1;
nodes = (
(196,353,l),
(196,377,l),
(77,377,l),
(77,353,l)
);
},
{
attr = {
gradient = {
colors = (
(
(64,255),
0
),
(
(191,255),
1
)
);
end = (0.9219,0.702);
start = (0.0502,0.2276);
};
identifier = ID0x7f9cefa0ec30;
};
closed = 1;
nodes = (
(197,676,l),
(220,699,l),
(220,700,l),
(77,700,l),
(77,676,l)
);
},
{
attr = {
gradient = {
colors = (
(
(191,255),
0
),
(
(64,255),
1
)
);
end = (0.38,0.8556);
start = (0.8521,0.1516);
};
identifier = ID0x7f9cefa0ed40;
};
closed = 1;
nodes = (
(197,760,l),
(197,761,l),
(153,850,l),
(152,850,l),
(129,850,l),
(173,760,l)
);
},
{
attr = {
gradient = {
colors = (
(
(64,255),
0
),
(
(191,255),
1
)
);
end = (0.9007,0.953);
start = (0.1907,0.0615);
};
identifier = ID0x7f9cefa0ed40;
};
closed = 1;
nodes = (
(107,760,l),
(152,850,l),
(129,850,l),
(83,761,l),
(83,760,l)
);
},
{
attr = {
gradient = {
colors = (
(
(64,255),
0
),
(
(191,255),
1
)
);
end = (0.0416,0.8836);
start = (0.6305,0.7572);
};
identifier = ID0x7f9cefa0ed40;
};
closed = 1;
nodes = (
(250,876,l),
(250,877,l),
(232,900,l),
(173,900,l),
(173,876,l)
);
},
{
attr = {
gradient = {
colors = (
(
(191,255),
0
),
(
(64,255),
1
)
);
end = (0.2458,0.0888);
start = (0.761,0.8385);
};
identifier = ID0x7f9cefa0ed40;
};
closed = 1;
nodes = (
(217,805,l),
(250,876,l),
(250,877,l),
(232,900,l),
(194,806,l),
(194,805,l)
);
}
);
width = 240;
},
{
anchors = (
{
name = bottom;
pos = (442,0);
},
{
name = top;
pos = (456,730);
}
);
attr = {
color = "1";
};
layerId = m003;
shapes = (
{
attr = {
gradient = {
colors = (
(
(64,255),
0
),
(
(191,255),
1
)
);
end = (0.082,0.9228);
start = (0.9659,0.1);
};
identifier = ID0x7f9cefa0f050;
};
closed = 1;
nodes = (
(801,0,l),
(801,244,l),
(35,244,l),
(35,243,l),
(237,0,l)
);
},
{
attr = {
gradient = {
colors = (
(
(64,255),
0
),
(
(191,255),
1
)
);
end = (0.4877,0.9217);
start = (0.5389,0.033);
};
identifier = ID0x7f9cefa0f050;
};
closed = 1;
nodes = (
(289,244,l),
(289,730,l),
(35,730,l),
(35,244,l)
);
},
{
attr = {
gradient = {
colors = (
(
(64,255),
0
),
(
(191,255),
1
)
);
end = (0.8437,0.8454);
start = (0.0849,0.1153);
};
identifier = ID0x7f9cefa0f050;
};
closed = 1;
nodes = (
(698,263,l),
(698,467,l),
(289,467,l),
(289,263,l)
);
},
{
attr = {
gradient = {
colors = (
(
(64,255),
0
),
(
(191,255),
1
)
);
end = (0.713,0.9264);
start = (0.0306,0.307);
};
identifier = ID0x7f9cefa0f050;
};
closed = 1;
nodes = (
(650,486,l),
(852,729,l),
(852,730,l),
(289,730,l),
(289,486,l)
);
},
{
attr = {
gradient = {
colors = (
(
(191,255),
0
),
(
(64,255),
1
)
);
end = (0.4671,0.8636);
start = (0.7465,0.1437);
};
identifier = ID0x7f9cefa0f160;
};
closed = 1;
nodes = (
(662,755,l),
(662,756,l),
(523,873,l),
(454,854,l),
(394,838,l),
(508,755,l)
);
},
{
attr = {
gradient = {
colors = (
(
(64,255),
0
),
(
(191,255),
1
)
);
end = (0.6904,0.8951);
start = (0.1364,0.1011);
};
identifier = ID0x7f9cefa0f160;
};
closed = 1;
nodes = (
(364,755,l),
(523,873,l),
(364,873,l),
(210,756,l),
(210,755,l)
);
},
{
attr = {
gradient = {
colors = (
(
(64,255),
0
),
(
(191,255),
1
)
);
end = (0.0611,0.8551);
start = (0.6556,0.851);
};
identifier = ID0x7f9cefa0f160;
};
closed = 1;
nodes = (
(764,892,l),
(764,893,l),
(687,980,l),
(476,980,l),
(476,892,l)
);
},
{
attr = {
gradient = {
colors = (
(
(191,255),
0
),
(
(64,255),
1
)
);
end = (0.1672,0.0549);
start = (0.6171,0.8745);
};
identifier = ID0x7f9cefa0f160;
};
closed = 1;
nodes = (
(677,824,l),
(764,892,l),
(764,893,l),
(687,980,l),
(589,825,l),
(589,824,l)
);
}
);
width = 832;
}
);
unicode = 7874;
},
{
glyphname = Ecircumflextilde;
kernLeft = U;
kernRight = E;
lastChange = "2022-08-22 22:11:46 +0000";
layers = (
{
anchors = (
{
name = bottom;
pos = (135,0);
},
{
name = top;
pos = (138,700);
}
);
attr = {
color = "1";
};
layerId = "33AE93C6-B8B3-427A-A53B-F24970E840CE";
shapes = (
{
attr = {
gradient = {
colors = (
(
(64,255),
0
),
(
(191,255),
1
)
);
end = (0.0726,0.8409);
start = (0.9727,0.513);
};
identifier = ID0x7f9cefa0f5f0;
};
closed = 1;
nodes = (
(220,0,l),
(220,24,l),
(53,24,l),
(53,23,l),
(77,0,l)
);
},
{
attr = {
gradient = {
colors = (
(
(64,255),
0
),
(
(191,255),
1
)
);
end = (0.5603,0.9888);
start = (0.4654,0.007);
};
identifier = ID0x7f9cefa0f5f0;
};
closed = 1;
nodes = (
(77,24,l),
(77,700,l),
(53,700,l),
(53,24,l)
);
},
{
attr = {
gradient = {
colors = (
(
(64,255),
0
),
(
(191,255),
1
)
);
end = (0.9395,0.824);
start = (0.0304,0.1025);
};
identifier = ID0x7f9cefa0f5f0;
};
closed = 1;
nodes = (
(196,353,l),
(196,377,l),
(77,377,l),
(77,353,l)
);
},
{
attr = {
gradient = {
colors = (
(
(64,255),
0
),
(
(191,255),
1
)
);
end = (0.9219,0.702);
start = (0.0502,0.2276);
};
identifier = ID0x7f9cefa0f5f0;
};
closed = 1;
nodes = (
(197,676,l),
(220,699,l),
(220,700,l),
(77,700,l),
(77,676,l)
);
},
{
attr = {
gradient = {
colors = (
(
(191,255),
0
),
(
(64,255),
1
)
);
end = (0.3353,0.8849);
start = (0.8521,0.1516);
};
identifier = ID0x7f9cefa0f700;
};
closed = 1;
nodes = (
(204,757,l),
(204,758,l),
(150,832,l),
(120,832,l),
(174,757,l)
);
},
{
attr = {
gradient = {
colors = (
(
(64,255),
0
),
(
(191,255),
1
)
);
end = (0.9007,0.953);
start = (0.2066,0.0796);
};
identifier = ID0x7f9cefa0f700;
};
closed = 1;
nodes = (
(94,757,l),
(150,832,l),
(120,832,l),
(64,758,l),
(64,757,l)
);
},
{
attr = {
gradient = {
colors = (
(
(64,255),
0
),
(
(191,255),
1
)
);
end = (0.6388,0.1085);
start = (0.1865,0.8406);
};
identifier = ID0x7f9cefa0f700;
};
closed = 1;
nodes = (
(96,869,l),
(96,921,l),
(72,920,l),
(72,869,l)
);
},
{
attr = {
gradient = {
colors = (
(
(64,255),
0
),
(
(191,255),
1
)
);
end = (0.764,0.7986);
start = (0.1544,0.253);
};
identifier = ID0x7f9cefa0f700;
};
closed = 1;
nodes = (
(192,878,l),
(192,930,l),
(168,930,l),
(168,878,l)
);
},
{
attr = {
gradient = {
colors = (
(
(191,255),
0
),
(
(64,255),
0.50526
),
(
(191,255),
1
)
);
end = (0.1796,0.9207);
start = (0.8224,0.0742);
};
identifier = ID0x7f9cefa0f700;
};
closed = 1;
nodes = (
(169,868,l),
(191,877,l),
(191,878,l),
(95,930,l),
(94,930,l),
(72,921,l),
(72,920,l),
(168,868,l)
);
}
);
width = 240;
},
{
anchors = (
{
name = bottom;
pos = (442,0);
},
{
name = top;
pos = (456,730);
}
);
attr = {
color = "1";
};
layerId = m003;
shapes = (
{
attr = {
gradient = {
colors = (
(
(64,255),
0
),
(
(191,255),
1
)
);
end = (0.082,0.9228);
start = (0.9659,0.1);
};
identifier = ID0x7f9cefa0fa10;
};
closed = 1;
nodes = (
(801,0,l),
(801,244,l),
(35,244,l),
(35,243,l),
(237,0,l)
);
},
{
attr = {
gradient = {
colors = (
(
(64,255),
0
),
(
(191,255),
1
)
);
end = (0.4877,0.9217);
start = (0.5389,0.033);
};
identifier = ID0x7f9cefa0fa10;
};
closed = 1;
nodes = (
(289,244,l),
(289,730,l),
(35,730,l),
(35,244,l)
);
},
{
attr = {
gradient = {
colors = (
(
(64,255),
0
),
(
(191,255),
1
)
);
end = (0.8437,0.8454);
start = (0.0849,0.1153);
};
identifier = ID0x7f9cefa0fa10;
};
closed = 1;
nodes = (
(698,263,l),
(698,467,l),
(289,467,l),
(289,263,l)
);
},
{
attr = {
gradient = {
colors = (
(
(64,255),
0
),
(
(191,255),
1
)
);
end = (0.713,0.9264);
start = (0.0306,0.307);
};
identifier = ID0x7f9cefa0fa10;
};
closed = 1;
nodes = (
(650,486,l),
(852,729,l),
(852,730,l),
(289,730,l),
(289,486,l)
);
},
{
attr = {
gradient = {
colors = (
(
(191,255),
0
),
(
(64,255),
1
)
);
end = (0.1891,0.4769);
start = (0.8293,0.1024);
};
identifier = ID0x7f9cefa0fb20;
};
closed = 1;
nodes = (
(692,755,l),
(692,756,l),
(528,853,l),
(414,808,l),
(518,755,l)
);
},
{
attr = {
gradient = {
colors = (
(
(64,255),
0
),
(
(191,255),
1
)
);
end = (0.8331,0.886);
start = (0.136,0.1457);
};
identifier = ID0x7f9cefa0fb20;
};
closed = 1;
nodes = (
(364,755,l),
(528,853,l),
(364,853,l),
(200,756,l),
(200,755,l)
);
},
{
attr = {
gradient = {
colors = (
(
(64,255),
0
),
(
(191,255),
1
)
);
end = (0.8915,0.1123);
start = (0.0645,0.6331);
};
identifier = ID0x7f9cefa0fb20;
};
closed = 1;
nodes = (
(366,868,l),
(366,945,l),
(246,934,l),
(246,868,l)
);
},
{
attr = {
gradient = {
colors = (
(
(64,255),
0
),
(
(191,255),
1
)
);
end = (0.8916,0.8904);
start = (0.1664,0.4798);
};
identifier = ID0x7f9cefa0fb20;
};
closed = 1;
nodes = (
(675,906,l),
(675,980,l),
(555,980,l),
(555,887,l)
);
},
{
attr = {
gradient = {
colors = (
(
(191,255),
0
),
(
(64,255),
0.52095
),
(
(191,255),
1
)
);
end = (0.0573,0.6543);
start = (0.9279,0.3091);
};
identifier = ID0x7f9cefa0fb20;
};
closed = 1;
nodes = (
(583,861,l),
(675,906,l),
(675,927,l),
(357,984,l),
(356,984,l),
(246,935,l),
(246,924,l),
(582,861,l)
);
}
);
width = 832;
}
);
unicode = 7876;
},
{
glyphname = Edblgrave;
kernLeft = U;
kernRight = E;
lastChange = "2022-08-22 22:11:46 +0000";
layers = (
{
anchors = (
{
name = bottom;
pos = (135,0);
},
{
name = top;
pos = (138,700);
}
);
attr = {
color = "1";
};
layerId = "33AE93C6-B8B3-427A-A53B-F24970E840CE";
shapes = (
{
attr = {
gradient = {
colors = (
(
(64,255),
0
),
(
(191,255),
1
)
);
end = (0.0726,0.8409);
start = (0.9727,0.513);
};
identifier = ID0x7f9cefa0ffb0;
};
closed = 1;
nodes = (
(220,0,l),
(220,24,l),
(53,24,l),
(53,23,l),
(77,0,l)
);
},
{
attr = {
gradient = {
colors = (
(
(64,255),
0
),
(
(191,255),
1
)
);
end = (0.5603,0.9888);
start = (0.4654,0.007);
};
identifier = ID0x7f9cefa0ffb0;
};
closed = 1;
nodes = (
(77,24,l),
(77,700,l),
(53,700,l),
(53,24,l)
);
},
{
attr = {
gradient = {
colors = (
(
(64,255),
0
),
(
(191,255),
1
)
);
end = (0.9395,0.824);
start = (0.0304,0.1025);
};
identifier = ID0x7f9cefa0ffb0;
};
closed = 1;
nodes = (
(196,353,l),
(196,377,l),
(77,377,l),
(77,353,l)
);
},
{
attr = {
gradient = {
colors = (
(
(64,255),
0
),
(
(191,255),
1
)
);
end = (0.9219,0.702);
start = (0.0502,0.2276);
};
identifier = ID0x7f9cefa0ffb0;
};
closed = 1;
nodes = (
(197,676,l),
(220,699,l),
(220,700,l),
(77,700,l),
(77,676,l)
);
},
{
attr = {
gradient = {
colors = (
(
(191,255),
0
),
(
(64,255),
1
)
);
end = (0.2389,0.9169);
start = (0.8626,0.0429);
};
identifier = ID0x7f9cefa100c0;
};
closed = 1;
nodes = (
(179,770,l),
(154,860,l),
(123,860,l),
(123,859,l),
(155,770,l)
);
},
{
attr = {
gradient = {
colors = (
(
(191,255),
0
),
(
(64,255),
1
)
);
end = (0.2068,0.9521);
start = (0.8229,0.055);
};
identifier = ID0x7f9cefa100c0;
};
closed = 1;
nodes = (
(122,770,l),
(97,860,l),
(66,860,l),
(66,859,l),
(98,770,l)
);
}
);
width = 240;
},
{
anchors = (
{
name = bottom;
pos = (442,0);
},
{
name = top;
pos = (456,730);
}
);
attr = {
color = "1";
};
layerId = m003;
shapes = (
{
attr = {
gradient = {
colors = (
(
(64,255),
0
),
(
(191,255),
1
)
);
end = (0.082,0.9228);
start = (0.9659,0.1);
};
identifier = ID0x7f9cefa103d0;
};
closed = 1;
nodes = (
(801,0,l),
(801,244,l),
(35,244,l),
(35,243,l),
(237,0,l)
);
},
{
attr = {
gradient = {
colors = (
(
(64,255),
0
),
(
(191,255),
1
)
);
end = (0.4877,0.9217);
start = (0.5389,0.033);
};
identifier = ID0x7f9cefa103d0;
};
closed = 1;
nodes = (
(289,244,l),
(289,730,l),
(35,730,l),
(35,244,l)
);
},
{
attr = {
gradient = {
colors = (
(
(64,255),
0
),
(
(191,255),
1
)
);
end = (0.8437,0.8454);
start = (0.0849,0.1153);
};
identifier = ID0x7f9cefa103d0;
};
closed = 1;
nodes = (
(698,263,l),
(698,467,l),
(289,467,l),
(289,263,l)
);
},
{
attr = {
gradient = {
colors = (
(
(64,255),
0
),
(
(191,255),
1
)
);
end = (0.713,0.9264);
start = (0.0306,0.307);
};
identifier = ID0x7f9cefa103d0;
};
closed = 1;
nodes = (
(650,486,l),
(852,729,l),
(852,730,l),
(289,730,l),
(289,486,l)
);
},
{
attr = {
gradient = {
colors = (
(
(191,255),
0
),
(
(64,255),
1
)
);
end = (0.1692,0.9007);
start = (0.9146,0.1015);
};
identifier = ID0x7f9cefa104e0;
};
closed = 1;
nodes = (
(644,760,l),
(609,900,l),
(403,900,l),
(403,899,l),
(518,760,l)
);
},
{
attr = {
gradient = {
colors = (
(
(191,255),
0
),
(
(64,255),
1
)
);
end = (0.169,0.9162);
start = (0.9061,0.1141);
};
identifier = ID0x7f9cefa104e0;
};
closed = 1;
nodes = (
(414,760,l),
(379,900,l),
(173,900,l),
(173,899,l),
(288,760,l)
);
}
);
width = 832;
}
);
unicode = 516;
},
{
glyphname = Edieresis;
kernLeft = U;
kernRight = E;
lastChange = "2022-08-22 22:11:46 +0000";
layers = (
{
anchors = (
{
name = bottom;
pos = (135,0);
},
{
name = top;
pos = (138,800);
}
);
attr = {
color = "1";
};
layerId = "33AE93C6-B8B3-427A-A53B-F24970E840CE";
shapes = (
{
attr = {
gradient = {
colors = (
(
(64,255),
0
),
(
(191,255),
1
)
);
end = (0.0726,0.8409);
start = (0.9727,0.513);
};
identifier = ID0x7f9cefa10970;
};
closed = 1;
nodes = (
(220,0,l),
(220,24,l),
(53,24,l),
(53,23,l),
(77,0,l)
);
},
{
attr = {
gradient = {
colors = (
(
(64,255),
0
),
(
(191,255),
1
)
);
end = (0.5603,0.9888);
start = (0.4654,0.007);
};
identifier = ID0x7f9cefa10970;
};
closed = 1;
nodes = (
(77,24,l),
(77,700,l),
(53,700,l),
(53,24,l)
);
},
{
attr = {
gradient = {
colors = (
(
(64,255),
0
),
(
(191,255),
1
)
);
end = (0.9395,0.824);
start = (0.0304,0.1025);
};
identifier = ID0x7f9cefa10970;
};
closed = 1;
nodes = (
(196,353,l),
(196,377,l),
(77,377,l),
(77,353,l)
);
},
{
attr = {
gradient = {
colors = (
(
(64,255),
0
),
(
(191,255),
1
)
);
end = (0.9219,0.702);
start = (0.0502,0.2276);
};
identifier = ID0x7f9cefa10970;
};
closed = 1;
nodes = (
(197,676,l),
(220,699,l),
(220,700,l),
(77,700,l),
(77,676,l)
);
},
{
attr = {
gradient = {
colors = (
(
(191,255),
0
),
(
(64,255),
1
)
);
end = (0.1852,0.1283);
start = (0.8002,0.8766);
};
identifier = ID0x7f9cefa10a80;
};
closed = 1;
nodes = (
(186,811,l),
(186,845,l),
(155,845,l),
(155,811,l)
);
},
{
attr = {
gradient = {
colors = (
(
(191,255),
0
),
(
(64,255),
1
)
);
end = (0.2697,0.1121);
start = (0.8383,0.8625);
};
identifier = ID0x7f9cefa10a80;
};
closed = 1;
nodes = (
(121,811,l),
(121,845,l),
(90,845,l),
(90,811,l)
);
}
);
width = 240;
},
{
anchors = (
{
name = bottom;
pos = (442,0);
},
{
name = top;
pos = (456,900);
}
);
attr = {
color = "1";
};
layerId = m003;
shapes = (
{
attr = {
gradient = {
colors = (
(
(64,255),
0
),
(
(191,255),
1
)
);
end = (0.082,0.9228);
start = (0.9659,0.1);
};
identifier = ID0x7f9cefa10d90;
};
closed = 1;
nodes = (
(801,0,l),
(801,244,l),
(35,244,l),
(35,243,l),
(237,0,l)
);
},
{
attr = {
gradient = {
colors = (
(
(64,255),
0
),
(
(191,255),
1
)
);
end = (0.4877,0.9217);
start = (0.5389,0.033);
};
identifier = ID0x7f9cefa10d90;
};
closed = 1;
nodes = (
(289,244,l),
(289,730,l),
(35,730,l),
(35,244,l)
);
},
{
attr = {
gradient = {
colors = (
(
(64,255),
0
),
(
(191,255),
1
)
);
end = (0.8437,0.8454);
start = (0.0849,0.1153);
};
identifier = ID0x7f9cefa10d90;
};
closed = 1;
nodes = (
(698,263,l),
(698,467,l),
(289,467,l),
(289,263,l)
);
},
{
attr = {
gradient = {
colors = (
(
(64,255),
0
),
(
(191,255),
1
)
);
end = (0.713,0.9264);
start = (0.0306,0.307);
};
identifier = ID0x7f9cefa10d90;
};
closed = 1;
nodes = (
(650,486,l),
(852,729,l),
(852,730,l),
(289,730,l),
(289,486,l)
);
},
{
attr = {
gradient = {
colors = (
(
(191,255),
0
),
(
(64,255),
1
)
);
end = (0.1474,0.1754);
start = (0.8842,0.8769);
};
identifier = ID0x7f9cefa10ea0;
};
closed = 1;
nodes = (
(654,788,l),
(654,900,l),
(508,900,l),
(508,788,l)
);
},
{
attr = {
gradient = {
colors = (
(
(191,255),
0
),
(
(64,255),
1
)
);
end = (0.1045,0.1752);
start = (0.7307,0.846);
};
identifier = ID0x7f9cefa10ea0;
};
closed = 1;
nodes = (
(406,788,l),
(406,900,l),
(260,900,l),
(260,788,l)
);
}
);
width = 832;
}
);
unicode = 203;
},
{
glyphname = Edotaccent;
kernLeft = U;
kernRight = E;
lastChange = "2022-08-22 22:11:46 +0000";
layers = (
{
anchors = (
{
name = bottom;
pos = (135,0);
},
{
name = top;
pos = (138,800);
}
);
attr = {
color = "1";
};
layerId = "33AE93C6-B8B3-427A-A53B-F24970E840CE";
shapes = (
{
attr = {
gradient = {
colors = (
(
(64,255),
0
),
(
(191,255),
1
)
);
end = (0.0726,0.8409);
start = (0.9727,0.513);
};
identifier = ID0x7f9cefa11330;
};
closed = 1;
nodes = (
(220,0,l),
(220,24,l),
(53,24,l),
(53,23,l),
(77,0,l)
);
},
{
attr = {
gradient = {
colors = (
(
(64,255),
0
),
(
(191,255),
1
)
);
end = (0.5603,0.9888);
start = (0.4654,0.007);
};
identifier = ID0x7f9cefa11330;
};
closed = 1;
nodes = (
(77,24,l),
(77,700,l),
(53,700,l),
(53,24,l)
);
},
{
attr = {
gradient = {
colors = (
(
(64,255),
0
),
(
(191,255),
1
)
);
end = (0.9395,0.824);
start = (0.0304,0.1025);
};
identifier = ID0x7f9cefa11330;
};
closed = 1;
nodes = (
(196,353,l),
(196,377,l),
(77,377,l),
(77,353,l)
);
},
{
attr = {
gradient = {
colors = (
(
(64,255),
0
),
(
(191,255),
1
)
);
end = (0.9219,0.702);
start = (0.0502,0.2276);
};
identifier = ID0x7f9cefa11330;
};
closed = 1;
nodes = (
(197,676,l),
(220,699,l),
(220,700,l),
(77,700,l),
(77,676,l)
);
},
{
attr = {
gradient = {
colors = (
(
(191,255),
0
),
(
(64,255),
1
)
);
end = (0.8542,0.1311);
start = (0.0734,0.8956);
};
identifier = ID0x7f9cefa11440;
};
closed = 1;
nodes = (
(153,811,l),
(153,845,l),
(123,845,l),
(123,811,l)
);
}
);
width = 240;
},
{
anchors = (
{
name = bottom;
pos = (442,0);
},
{
name = top;
pos = (456,900);
}
);
attr = {
color = "1";
};
layerId = m003;
shapes = (
{
attr = {
gradient = {
colors = (
(
(64,255),
0
),
(
(191,255),
1
)
);
end = (0.082,0.9228);
start = (0.9659,0.1);
};
identifier = ID0x7f9cefa11750;
};
closed = 1;
nodes = (
(801,0,l),
(801,244,l),
(35,244,l),
(35,243,l),
(237,0,l)
);
},
{
attr = {
gradient = {
colors = (
(
(64,255),
0
),
(
(191,255),
1
)
);
end = (0.4877,0.9217);
start = (0.5389,0.033);
};
identifier = ID0x7f9cefa11750;
};
closed = 1;
nodes = (
(289,244,l),
(289,730,l),
(35,730,l),
(35,244,l)
);
},
{
attr = {
gradient = {
colors = (
(
(64,255),
0
),
(
(191,255),
1
)
);
end = (0.8437,0.8454);
start = (0.0849,0.1153);
};
identifier = ID0x7f9cefa11750;
};
closed = 1;
nodes = (
(698,263,l),
(698,467,l),
(289,467,l),
(289,263,l)
);
},
{
attr = {
gradient = {
colors = (
(
(64,255),
0
),
(
(191,255),
1
)
);
end = (0.713,0.9264);
start = (0.0306,0.307);
};
identifier = ID0x7f9cefa11750;
};
closed = 1;
nodes = (
(650,486,l),
(852,729,l),
(852,730,l),
(289,730,l),
(289,486,l)
);
},
{
attr = {
gradient = {
colors = (
(
(191,255),
0
),
(
(64,255),
1
)
);
end = (0.9396,0.1051);
start = (0.0907,0.9221);
};
identifier = ID0x7f9cefa11860;
};
closed = 1;
nodes = (
(544,768,l),
(544,900,l),
(368,900,l),
(368,768,l)
);
}
);
width = 832;
}
);
unicode = 278;
},
{
glyphname = Edotbelow;
kernLeft = U;
kernRight = E;
lastChange = "2022-08-22 22:11:46 +0000";
layers = (
{
anchors = (
{
name = bottom;
pos = (135,0);
},
{
name = top;
pos = (138,700);
}
);
attr = {
color = "1";
};
layerId = "33AE93C6-B8B3-427A-A53B-F24970E840CE";
shapes = (
{
attr = {
gradient = {
colors = (
(
(64,255),
0
),
(
(191,255),
1
)
);
end = (0.0726,0.8409);
start = (0.9727,0.513);
};
identifier = ID0x7f9cefa11cf0;
};
closed = 1;
nodes = (
(220,0,l),
(220,24,l),
(53,24,l),
(53,23,l),
(77,0,l)
);
},
{
attr = {
gradient = {
colors = (
(
(64,255),
0
),
(
(191,255),
1
)
);
end = (0.5603,0.9888);
start = (0.4654,0.007);
};
identifier = ID0x7f9cefa11cf0;
};
closed = 1;
nodes = (
(77,24,l),
(77,700,l),
(53,700,l),
(53,24,l)
);
},
{
attr = {
gradient = {
colors = (
(
(64,255),
0
),
(
(191,255),
1
)
);
end = (0.9395,0.824);
start = (0.0304,0.1025);
};
identifier = ID0x7f9cefa11cf0;
};
closed = 1;
nodes = (
(196,353,l),
(196,377,l),
(77,377,l),
(77,353,l)
);
},
{
attr = {
gradient = {
colors = (
(
(64,255),
0
),
(
(191,255),
1
)
);
end = (0.9219,0.702);
start = (0.0502,0.2276);
};
identifier = ID0x7f9cefa11cf0;
};
closed = 1;
nodes = (
(197,676,l),
(220,699,l),
(220,700,l),
(77,700,l),
(77,676,l)
);
},
{
attr = {
gradient = {
colors = (
(
(191,255),
0
),
(
(64,255),
1
)
);
end = (0.9081,0.083);
start = (0.0737,0.9244);
};
identifier = ID0x7f9cefa11e00;
};
closed = 1;
nodes = (
(151,-119,l),
(151,-85,l),
(121,-85,l),
(121,-119,l)
);
}
);
width = 240;
},
{
anchors = (
{
name = bottom;
pos = (442,0);
},
{
name = top;
pos = (456,730);
}
);
attr = {
color = "1";
};
layerId = m003;
shapes = (
{
attr = {
gradient = {
colors = (
(
(64,255),
0
),
(
(191,255),
1
)
);
end = (0.082,0.9228);
start = (0.9659,0.1);
};
identifier = ID0x7f9cefa12110;
};
closed = 1;
nodes = (
(801,0,l),
(801,244,l),
(35,244,l),
(35,243,l),
(237,0,l)
);
},
{
attr = {
gradient = {
colors = (
(
(64,255),
0
),
(
(191,255),
1
)
);
end = (0.4877,0.9217);
start = (0.5389,0.033);
};
identifier = ID0x7f9cefa12110;
};
closed = 1;
nodes = (
(289,244,l),
(289,730,l),
(35,730,l),
(35,244,l)
);
},
{
attr = {
gradient = {
colors = (
(
(64,255),
0
),
(
(191,255),
1
)
);
end = (0.8437,0.8454);
start = (0.0849,0.1153);
};
identifier = ID0x7f9cefa12110;
};
closed = 1;
nodes = (
(698,263,l),
(698,467,l),
(289,467,l),
(289,263,l)
);
},
{
attr = {
gradient = {
colors = (
(
(64,255),
0
),
(
(191,255),
1
)
);
end = (0.713,0.9264);
start = (0.0306,0.307);
};
identifier = ID0x7f9cefa12110;
};
closed = 1;
nodes = (
(650,486,l),
(852,729,l),
(852,730,l),
(289,730,l),
(289,486,l)
);
},
{
attr = {
gradient = {
colors = (
(
(191,255),
0
),
(
(64,255),
1
)
);
end = (0.8925,0.136);
start = (0.1278,0.8543);
};
identifier = ID0x7f9cefa12220;
};
closed = 1;
nodes = (
(547,-200,l),
(547,-38,l),
(343,-38,l),
(343,-200,l)
);
}
);
width = 832;
}
);
unicode = 7864;
},
{
glyphname = Egrave;
kernLeft = U;
kernRight = E;
lastChange = "2022-08-22 22:11:46 +0000";
layers = (
{
anchors = (
{
name = bottom;
pos = (135,0);
},
{
name = top;
pos = (138,700);
}
);
attr = {
color = "1";
};
layerId = "33AE93C6-B8B3-427A-A53B-F24970E840CE";
shapes = (
{
attr = {
gradient = {
colors = (
(
(64,255),
0
),
(
(191,255),
1
)
);
end = (0.0726,0.8409);
start = (0.9727,0.513);
};
identifier = ID0x7f9cefa126b0;
};
closed = 1;
nodes = (
(220,0,l),
(220,24,l),
(53,24,l),
(53,23,l),
(77,0,l)
);
},
{
attr = {
gradient = {
colors = (
(
(64,255),
0
),
(
(191,255),
1
)
);
end = (0.5603,0.9888);
start = (0.4654,0.007);
};
identifier = ID0x7f9cefa126b0;
};
closed = 1;
nodes = (
(77,24,l),
(77,700,l),
(53,700,l),
(53,24,l)
);
},
{
attr = {
gradient = {
colors = (
(
(64,255),
0
),
(
(191,255),
1
)
);
end = (0.9395,0.824);
start = (0.0304,0.1025);
};
identifier = ID0x7f9cefa126b0;
};
closed = 1;
nodes = (
(196,353,l),
(196,377,l),
(77,377,l),
(77,353,l)
);
},
{
attr = {
gradient = {
colors = (
(
(64,255),
0
),
(
(191,255),
1
)
);
end = (0.9219,0.702);
start = (0.0502,0.2276);
};
identifier = ID0x7f9cefa126b0;
};
closed = 1;
nodes = (
(197,676,l),
(220,699,l),
(220,700,l),
(77,700,l),
(77,676,l)
);
},
{
attr = {
gradient = {
colors = (
(
(191,255),
0
),
(
(64,255),
1
)
);
end = (0.1637,0.9293);
start = (0.8526,0.0553);
};
identifier = ID0x7f9cefa127c0;
};
closed = 1;
nodes = (
(152,740,l),
(142,860,l),
(111,860,l),
(111,859,l),
(128,740,l)
);
}
);
width = 240;
},
{
anchors = (
{
name = bottom;
pos = (442,0);
},
{
name = top;
pos = (456,730);
}
);
attr = {
color = "1";
};
layerId = m003;
shapes = (
{
attr = {
gradient = {
colors = (
(
(64,255),
0
),
(
(191,255),
1
)
);
end = (0.082,0.9228);
start = (0.9659,0.1);
};
identifier = ID0x7f9cefa12ad0;
};
closed = 1;
nodes = (
(801,0,l),
(801,244,l),
(35,244,l),
(35,243,l),
(237,0,l)
);
},
{
attr = {
gradient = {
colors = (
(
(64,255),
0
),
(
(191,255),
1
)
);
end = (0.4877,0.9217);
start = (0.5389,0.033);
};
identifier = ID0x7f9cefa12ad0;
};
closed = 1;
nodes = (
(289,244,l),
(289,730,l),
(35,730,l),
(35,244,l)
);
},
{
attr = {
gradient = {
colors = (
(
(64,255),
0
),
(
(191,255),
1
)
);
end = (0.8437,0.8454);
start = (0.0849,0.1153);
};
identifier = ID0x7f9cefa12ad0;
};
closed = 1;
nodes = (
(698,263,l),
(698,467,l),
(289,467,l),
(289,263,l)
);
},
{
attr = {
gradient = {
colors = (
(
(64,255),
0
),
(
(191,255),
1
)
);
end = (0.713,0.9264);
start = (0.0306,0.307);
};
identifier = ID0x7f9cefa12ad0;
};
closed = 1;
nodes = (
(650,486,l),
(852,729,l),
(852,730,l),
(289,730,l),
(289,486,l)
);
},
{
attr = {
gradient = {
colors = (
(
(191,255),
0
),
(
(64,255),
1
)
);
end = (0.1271,0.9168);
start = (0.9403,0.0787);
};
identifier = ID0x7f9cefa12be0;
};
closed = 1;
nodes = (
(535,760,l),
(500,900,l),
(294,900,l),
(294,899,l),
(409,760,l)
);
}
);
width = 832;
}
);
unicode = 200;
},
